<?xml version="1.0" encoding="UTF-8" standalone="no"?>
<!DOCTYPE svg PUBLIC "-//W3C//DTD SVG 1.1//EN"
 "http://www.w3.org/Graphics/SVG/1.1/DTD/svg11.dtd">
<!-- Generated by graphviz version 13.1.2 (20250808.2320)
 -->
<!-- Title: CIActionUsage Pages: 1 -->
<svg width="630pt" height="2941pt"
 viewBox="0.00 0.00 630.00 2941.00" xmlns="http://www.w3.org/2000/svg" xmlns:xlink="http://www.w3.org/1999/xlink">
<g id="graph0" class="graph" transform="scale(1 1) rotate(0) translate(4 2937)">
<title>CIActionUsage</title>
<polygon fill="white" stroke="none" points="-4,4 -4,-2937 626,-2937 626,4 -4,4"/>
<g id="clust1" class="cluster">
<title>cluster_ci_action</title>
<polygon fill="lightblue" stroke="lightblue" points="329.25,-70 329.25,-2091 614,-2091 614,-70 329.25,-70"/>
<text xml:space="preserve" text-anchor="middle" x="471.62" y="-2073.7" font-family="Times New Roman,serif" font-size="14.00">ci&#45;action repository</text>
</g>
<g id="clust2" class="cluster">
<title>cluster_repo_1</title>
<polygon fill="lightgreen" stroke="lightgreen" points="71.38,-2848 71.38,-2925 245.88,-2925 245.88,-2848 71.38,-2848"/>
<text xml:space="preserve" text-anchor="middle" x="158.62" y="-2907.7" font-family="Times New Roman,serif" font-size="14.00">dynobuffers</text>
</g>
<g id="clust3" class="cluster">
<title>cluster_repo_2</title>
<polygon fill="lightgreen" stroke="lightgreen" points="8,-2277 8,-2840 309.25,-2840 309.25,-2277 8,-2277"/>
<text xml:space="preserve" text-anchor="middle" x="158.62" y="-2822.7" font-family="Times New Roman,serif" font-size="14.00">airs&#45;bp3</text>
</g>
<g id="clust4" class="cluster">
<title>cluster_repo_3</title>
<polygon fill="lightgreen" stroke="lightgreen" points="38,-1922 38,-2269 279.25,-2269 279.25,-1922 38,-1922"/>
<text xml:space="preserve" text-anchor="middle" x="158.62" y="-2251.7" font-family="Times New Roman,serif" font-size="14.00">airc&#45;backoffice2</text>
</g>
<g id="clust5" class="cluster">
<title>cluster_repo_4</title>
<polygon fill="lightgreen" stroke="lightgreen" points="38,-1351 38,-1914 279.25,-1914 279.25,-1351 38,-1351"/>
<text xml:space="preserve" text-anchor="middle" x="158.62" y="-1896.7" font-family="Times New Roman,serif" font-size="14.00">web&#45;portals</text>
</g>
<g id="clust6" class="cluster">
<title>cluster_repo_5</title>
<polygon fill="lightgreen" stroke="lightgreen" points="71.75,-1266 71.75,-1343 245.5,-1343 245.5,-1266 71.75,-1266"/>
<text xml:space="preserve" text-anchor="middle" x="158.62" y="-1325.7" font-family="Times New Roman,serif" font-size="14.00">airc&#45;web&#45;pos</text>
</g>
<g id="clust7" class="cluster">
<title>cluster_repo_6</title>
<polygon fill="lightgreen" stroke="lightgreen" points="54.5,-1181 54.5,-1258 262.75,-1258 262.75,-1181 54.5,-1181"/>
<text xml:space="preserve" text-anchor="middle" x="158.62" y="-1240.7" font-family="Times New Roman,serif" font-size="14.00">airs&#45;scheme</text>
</g>
<g id="clust8" class="cluster">
<title>cluster_repo_7</title>
<polygon fill="lightgreen" stroke="lightgreen" points="16.25,-664 16.25,-1173 301,-1173 301,-664 16.25,-664"/>
<text xml:space="preserve" text-anchor="middle" x="158.62" y="-1155.7" font-family="Times New Roman,serif" font-size="14.00">ci&#45;action</text>
</g>
<g id="clust9" class="cluster">
<title>cluster_repo_8</title>
<polygon fill="lightgreen" stroke="lightgreen" points="54.5,-579 54.5,-656 262.75,-656 262.75,-579 54.5,-579"/>
<text xml:space="preserve" text-anchor="middle" x="158.62" y="-638.7" font-family="Times New Roman,serif" font-size="14.00">airc&#45;ticket&#45;layouts</text>
</g>
<g id="clust10" class="cluster">
<title>cluster_repo_9</title>
<polygon fill="lightgreen" stroke="lightgreen" points="38,-8 38,-571 279.25,-571 279.25,-8 38,-8"/>
<text xml:space="preserve" text-anchor="middle" x="158.62" y="-553.7" font-family="Times New Roman,serif" font-size="14.00">voedger</text>
</g>
<!-- n1 -->
<g id="node1" class="node">
<title>n1</title>
<path fill="lightcoral" stroke="red" d="M571.12,-114C571.12,-114 372.12,-114 372.12,-114 366.12,-114 360.12,-108 360.12,-102 360.12,-102 360.12,-90 360.12,-90 360.12,-84 366.12,-78 372.12,-78 372.12,-78 571.12,-78 571.12,-78 577.12,-78 583.12,-84 583.12,-90 583.12,-90 583.12,-102 583.12,-102 583.12,-108 577.12,-114 571.12,-114"/>
<text xml:space="preserve" text-anchor="middle" x="471.62" y="-90.95" font-family="Times New Roman,serif" font-size="14.00">.github/workflows/ci&#45;extrachecks.yml</text>
</g>
<!-- n2 -->
<g id="node2" class="node">
<title>n2</title>
<path fill="lightcoral" stroke="red" d="M537,-168C537,-168 406.25,-168 406.25,-168 400.25,-168 394.25,-162 394.25,-156 394.25,-156 394.25,-144 394.25,-144 394.25,-138 400.25,-132 406.25,-132 406.25,-132 537,-132 537,-132 543,-132 549,-138 549,-144 549,-144 549,-156 549,-156 549,-162 543,-168 537,-168"/>
<text xml:space="preserve" text-anchor="middle" x="471.62" y="-144.95" font-family="Times New Roman,serif" font-size="14.00">.github/workflows/ci.yml</text>
</g>
<!-- n3 -->
<g id="node3" class="node">
<title>n3</title>
<path fill="lightyellow" stroke="black" d="M573,-1302C573,-1302 370.25,-1302 370.25,-1302 364.25,-1302 358.25,-1296 358.25,-1290 358.25,-1290 358.25,-1278 358.25,-1278 358.25,-1272 364.25,-1266 370.25,-1266 370.25,-1266 573,-1266 573,-1266 579,-1266 585,-1272 585,-1278 585,-1278 585,-1290 585,-1290 585,-1296 579,-1302 573,-1302"/>
<text xml:space="preserve" text-anchor="middle" x="471.62" y="-1278.95" font-family="Times New Roman,serif" font-size="14.00">.github/workflows/ci_rebuild_bp3.yml</text>
</g>
<!-- n4 -->
<g id="node4" class="node">
<title>n4</title>
<path fill="lightyellow" stroke="black" d="M554.62,-1680C554.62,-1680 388.62,-1680 388.62,-1680 382.62,-1680 376.62,-1674 376.62,-1668 376.62,-1668 376.62,-1656 376.62,-1656 376.62,-1650 382.62,-1644 388.62,-1644 388.62,-1644 554.62,-1644 554.62,-1644 560.62,-1644 566.62,-1650 566.62,-1656 566.62,-1656 566.62,-1668 566.62,-1668 566.62,-1674 560.62,-1680 554.62,-1680"/>
<text xml:space="preserve" text-anchor="middle" x="471.62" y="-1656.95" font-family="Times New Roman,serif" font-size="14.00">.github/workflows/ci_reuse.yml</text>
</g>
<!-- n5 -->
<g id="node5" class="node">
<title>n5</title>
<path fill="lightyellow" stroke="black" d="M564.75,-492C564.75,-492 378.5,-492 378.5,-492 372.5,-492 366.5,-486 366.5,-480 366.5,-480 366.5,-468 366.5,-468 366.5,-462 372.5,-456 378.5,-456 378.5,-456 564.75,-456 564.75,-456 570.75,-456 576.75,-462 576.75,-468 576.75,-468 576.75,-480 576.75,-480 576.75,-486 570.75,-492 564.75,-492"/>
<text xml:space="preserve" text-anchor="middle" x="471.62" y="-468.95" font-family="Times New Roman,serif" font-size="14.00">.github/workflows/ci_reuse_go.yml</text>
</g>
<!-- n6 -->
<g id="node6" class="node">
<title>n6</title>
<path fill="lightyellow" stroke="black" d="M576.75,-1950C576.75,-1950 366.5,-1950 366.5,-1950 360.5,-1950 354.5,-1944 354.5,-1938 354.5,-1938 354.5,-1926 354.5,-1926 354.5,-1920 360.5,-1914 366.5,-1914 366.5,-1914 576.75,-1914 576.75,-1914 582.75,-1914 588.75,-1920 588.75,-1926 588.75,-1926 588.75,-1938 588.75,-1938 588.75,-1944 582.75,-1950 576.75,-1950"/>
<text xml:space="preserve" text-anchor="middle" x="471.62" y="-1926.95" font-family="Times New Roman,serif" font-size="14.00">.github/workflows/ci_reuse_go_cas.yml</text>
</g>
<!-- n7 -->
<g id="node7" class="node">
<title>n7</title>
<path fill="lightyellow" stroke="black" d="M594,-600C594,-600 349.25,-600 349.25,-600 343.25,-600 337.25,-594 337.25,-588 337.25,-588 337.25,-576 337.25,-576 337.25,-570 343.25,-564 349.25,-564 349.25,-564 594,-564 594,-564 600,-564 606,-570 606,-576 606,-576 606,-588 606,-588 606,-594 600,-600 594,-600"/>
<text xml:space="preserve" text-anchor="middle" x="471.62" y="-576.95" font-family="Times New Roman,serif" font-size="14.00">.github/workflows/ci_reuse_go_norebuild.yml</text>
</g>
<!-- n8 -->
<g id="node8" class="node">
<title>n8</title>
<path fill="lightyellow" stroke="black" d="M573.38,-276C573.38,-276 369.88,-276 369.88,-276 363.88,-276 357.88,-270 357.88,-264 357.88,-264 357.88,-252 357.88,-252 357.88,-246 363.88,-240 369.88,-240 369.88,-240 573.38,-240 573.38,-240 579.38,-240 585.38,-246 585.38,-252 585.38,-252 585.38,-264 585.38,-264 585.38,-270 579.38,-276 573.38,-276"/>
<text xml:space="preserve" text-anchor="middle" x="471.62" y="-252.95" font-family="Times New Roman,serif" font-size="14.00">.github/workflows/ci_reuse_go_pr.yml</text>
</g>
<!-- n9 -->
<g id="node9" class="node">
<title>n9</title>
<path fill="lightyellow" stroke="black" d="M538.5,-1734C538.5,-1734 404.75,-1734 404.75,-1734 398.75,-1734 392.75,-1728 392.75,-1722 392.75,-1722 392.75,-1710 392.75,-1710 392.75,-1704 398.75,-1698 404.75,-1698 404.75,-1698 538.5,-1698 538.5,-1698 544.5,-1698 550.5,-1704 550.5,-1710 550.5,-1710 550.5,-1722 550.5,-1722 550.5,-1728 544.5,-1734 538.5,-1734"/>
<text xml:space="preserve" text-anchor="middle" x="471.62" y="-1710.95" font-family="Times New Roman,serif" font-size="14.00">.github/workflows/cp.yml</text>
</g>
<!-- n10 -->
<g id="node10" class="node">
<title>n10</title>
<path fill="lightyellow" stroke="black" d="M565.12,-546C565.12,-546 378.12,-546 378.12,-546 372.12,-546 366.12,-540 366.12,-534 366.12,-534 366.12,-522 366.12,-522 366.12,-516 372.12,-510 378.12,-510 378.12,-510 565.12,-510 565.12,-510 571.12,-510 577.12,-516 577.12,-522 577.12,-522 577.12,-534 577.12,-534 577.12,-540 571.12,-546 565.12,-546"/>
<text xml:space="preserve" text-anchor="middle" x="471.62" y="-522.95" font-family="Times New Roman,serif" font-size="14.00">.github/workflows/create_issue.yml</text>
</g>
<!-- n11 -->
<g id="node11" class="node">
<title>n11</title>
<path fill="lightyellow" stroke="black" d="M537.38,-1788C537.38,-1788 405.88,-1788 405.88,-1788 399.88,-1788 393.88,-1782 393.88,-1776 393.88,-1776 393.88,-1764 393.88,-1764 393.88,-1758 399.88,-1752 405.88,-1752 405.88,-1752 537.38,-1752 537.38,-1752 543.38,-1752 549.38,-1758 549.38,-1764 549.38,-1764 549.38,-1776 549.38,-1776 549.38,-1782 543.38,-1788 537.38,-1788"/>
<text xml:space="preserve" text-anchor="middle" x="471.62" y="-1764.95" font-family="Times New Roman,serif" font-size="14.00">.github/workflows/rc.yml</text>
</g>
<!-- n12 -->
<g id="node12" class="node">
<title>n12</title>
<path fill="lightyellow" stroke="black" d="M496.88,-1572C496.88,-1572 446.38,-1572 446.38,-1572 440.38,-1572 434.38,-1566 434.38,-1560 434.38,-1560 434.38,-1548 434.38,-1548 434.38,-1542 440.38,-1536 446.38,-1536 446.38,-1536 496.88,-1536 496.88,-1536 502.88,-1536 508.88,-1542 508.88,-1548 508.88,-1548 508.88,-1560 508.88,-1560 508.88,-1566 502.88,-1572 496.88,-1572"/>
<text xml:space="preserve" text-anchor="middle" x="471.62" y="-1548.95" font-family="Times New Roman,serif" font-size="14.00">action.yml</text>
</g>
<!-- n13 -->
<g id="node13" class="node">
<title>n13</title>
<path fill="lightyellow" stroke="black" d="M544.12,-762C544.12,-762 399.12,-762 399.12,-762 393.12,-762 387.12,-756 387.12,-750 387.12,-750 387.12,-738 387.12,-738 387.12,-732 393.12,-726 399.12,-726 399.12,-726 544.12,-726 544.12,-726 550.12,-726 556.12,-732 556.12,-738 556.12,-738 556.12,-750 556.12,-750 556.12,-756 550.12,-762 544.12,-762"/>
<text xml:space="preserve" text-anchor="middle" x="471.62" y="-738.95" font-family="Times New Roman,serif" font-size="14.00">scripts/add&#45;issue&#45;commit.sh</text>
</g>
<!-- n14 -->
<g id="node14" class="node">
<title>n14</title>
<path fill="lightyellow" stroke="black" d="M538.12,-1032C538.12,-1032 405.12,-1032 405.12,-1032 399.12,-1032 393.12,-1026 393.12,-1020 393.12,-1020 393.12,-1008 393.12,-1008 393.12,-1002 399.12,-996 405.12,-996 405.12,-996 538.12,-996 538.12,-996 544.12,-996 550.12,-1002 550.12,-1008 550.12,-1008 550.12,-1020 550.12,-1020 550.12,-1026 544.12,-1032 538.12,-1032"/>
<text xml:space="preserve" text-anchor="middle" x="471.62" y="-1008.95" font-family="Times New Roman,serif" font-size="14.00">scripts/cancelworkflow.sh</text>
</g>
<!-- n15 -->
<g id="node15" class="node">
<title>n15</title>
<path fill="lightyellow" stroke="black" d="M519,-1086C519,-1086 424.25,-1086 424.25,-1086 418.25,-1086 412.25,-1080 412.25,-1074 412.25,-1074 412.25,-1062 412.25,-1062 412.25,-1056 418.25,-1050 424.25,-1050 424.25,-1050 519,-1050 519,-1050 525,-1050 531,-1056 531,-1062 531,-1062 531,-1074 531,-1074 531,-1080 525,-1086 519,-1086"/>
<text xml:space="preserve" text-anchor="middle" x="471.62" y="-1062.95" font-family="Times New Roman,serif" font-size="14.00">scripts/checkPR.sh</text>
</g>
<!-- n16 -->
<g id="node16" class="node">
<title>n16</title>
<path fill="lightyellow" stroke="black" d="M540,-924C540,-924 403.25,-924 403.25,-924 397.25,-924 391.25,-918 391.25,-912 391.25,-912 391.25,-900 391.25,-900 391.25,-894 397.25,-888 403.25,-888 403.25,-888 540,-888 540,-888 546,-888 552,-894 552,-900 552,-900 552,-912 552,-912 552,-918 546,-924 540,-924"/>
<text xml:space="preserve" text-anchor="middle" x="471.62" y="-900.95" font-family="Times New Roman,serif" font-size="14.00">scripts/check_copyright.sh</text>
</g>
<!-- n17 -->
<g id="node17" class="node">
<title>n17</title>
<path fill="lightyellow" stroke="black" d="M524.62,-816C524.62,-816 418.62,-816 418.62,-816 412.62,-816 406.62,-810 406.62,-804 406.62,-804 406.62,-792 406.62,-792 406.62,-786 412.62,-780 418.62,-780 418.62,-780 524.62,-780 524.62,-780 530.62,-780 536.62,-786 536.62,-792 536.62,-792 536.62,-804 536.62,-804 536.62,-810 530.62,-816 524.62,-816"/>
<text xml:space="preserve" text-anchor="middle" x="471.62" y="-792.95" font-family="Times New Roman,serif" font-size="14.00">scripts/close&#45;issue.sh</text>
</g>
<!-- n18 -->
<g id="node18" class="node">
<title>n18</title>
<path fill="lightyellow" stroke="black" d="M501.38,-708C501.38,-708 441.88,-708 441.88,-708 435.88,-708 429.88,-702 429.88,-696 429.88,-696 429.88,-684 429.88,-684 429.88,-678 435.88,-672 441.88,-672 441.88,-672 501.38,-672 501.38,-672 507.38,-672 513.38,-678 513.38,-684 513.38,-684 513.38,-696 513.38,-696 513.38,-702 507.38,-708 501.38,-708"/>
<text xml:space="preserve" text-anchor="middle" x="471.62" y="-684.95" font-family="Times New Roman,serif" font-size="14.00">scripts/cp.sh</text>
</g>
<!-- n19 -->
<g id="node19" class="node">
<title>n19</title>
<path fill="lightyellow" stroke="black" d="M524.62,-654C524.62,-654 418.62,-654 418.62,-654 412.62,-654 406.62,-648 406.62,-642 406.62,-642 406.62,-630 406.62,-630 406.62,-624 412.62,-618 418.62,-618 418.62,-618 524.62,-618 524.62,-618 530.62,-618 536.62,-624 536.62,-630 536.62,-630 536.62,-642 536.62,-642 536.62,-648 530.62,-654 524.62,-654"/>
<text xml:space="preserve" text-anchor="middle" x="471.62" y="-630.95" font-family="Times New Roman,serif" font-size="14.00">scripts/createissue.sh</text>
</g>
<!-- n20 -->
<g id="node20" class="node">
<title>n20</title>
<path fill="lightyellow" stroke="black" d="M550.88,-1464C550.88,-1464 392.38,-1464 392.38,-1464 386.38,-1464 380.38,-1458 380.38,-1452 380.38,-1452 380.38,-1440 380.38,-1440 380.38,-1434 386.38,-1428 392.38,-1428 392.38,-1428 550.88,-1428 550.88,-1428 556.88,-1428 562.88,-1434 562.88,-1440 562.88,-1440 562.88,-1452 562.88,-1452 562.88,-1458 556.88,-1464 550.88,-1464"/>
<text xml:space="preserve" text-anchor="middle" x="471.62" y="-1440.95" font-family="Times New Roman,serif" font-size="14.00">scripts/deleteDockerImages.sh</text>
</g>
<!-- n21 -->
<g id="node21" class="node">
<title>n21</title>
<path fill="lightyellow" stroke="black" d="M524.25,-330C524.25,-330 419,-330 419,-330 413,-330 407,-324 407,-318 407,-318 407,-306 407,-306 407,-300 413,-294 419,-294 419,-294 524.25,-294 524.25,-294 530.25,-294 536.25,-300 536.25,-306 536.25,-306 536.25,-318 536.25,-318 536.25,-324 530.25,-330 524.25,-330"/>
<text xml:space="preserve" text-anchor="middle" x="471.62" y="-306.95" font-family="Times New Roman,serif" font-size="14.00">scripts/domergepr.sh</text>
</g>
<!-- n22 -->
<g id="node22" class="node">
<title>n22</title>
<path fill="lightyellow" stroke="black" d="M526.12,-384C526.12,-384 417.12,-384 417.12,-384 411.12,-384 405.12,-378 405.12,-372 405.12,-372 405.12,-360 405.12,-360 405.12,-354 411.12,-348 417.12,-348 417.12,-348 526.12,-348 526.12,-348 532.12,-348 538.12,-354 538.12,-360 538.12,-360 538.12,-372 538.12,-372 538.12,-378 532.12,-384 526.12,-384"/>
<text xml:space="preserve" text-anchor="middle" x="471.62" y="-360.95" font-family="Times New Roman,serif" font-size="14.00">scripts/execgovuln.sh</text>
</g>
<!-- n23 -->
<g id="node23" class="node">
<title>n23</title>
<path fill="lightyellow" stroke="black" d="M510.75,-978C510.75,-978 432.5,-978 432.5,-978 426.5,-978 420.5,-972 420.5,-966 420.5,-966 420.5,-954 420.5,-954 420.5,-948 426.5,-942 432.5,-942 432.5,-942 510.75,-942 510.75,-942 516.75,-942 522.75,-948 522.75,-954 522.75,-954 522.75,-966 522.75,-966 522.75,-972 516.75,-978 510.75,-978"/>
<text xml:space="preserve" text-anchor="middle" x="471.62" y="-954.95" font-family="Times New Roman,serif" font-size="14.00">scripts/gbash.sh</text>
</g>
<!-- n24 -->
<g id="node24" class="node">
<title>n24</title>
<path fill="lightcoral" stroke="red" d="M523.12,-1356C523.12,-1356 420.12,-1356 420.12,-1356 414.12,-1356 408.12,-1350 408.12,-1344 408.12,-1344 408.12,-1332 408.12,-1332 408.12,-1326 414.12,-1320 420.12,-1320 420.12,-1320 523.12,-1320 523.12,-1320 529.12,-1320 535.12,-1326 535.12,-1332 535.12,-1332 535.12,-1344 535.12,-1344 535.12,-1350 529.12,-1356 523.12,-1356"/>
<text xml:space="preserve" text-anchor="middle" x="471.62" y="-1332.95" font-family="Times New Roman,serif" font-size="14.00">scripts/git&#45;release.sh</text>
</g>
<!-- n25 -->
<g id="node25" class="node">
<title>n25</title>
<path fill="lightcoral" stroke="red" d="M535.5,-1410C535.5,-1410 407.75,-1410 407.75,-1410 401.75,-1410 395.75,-1404 395.75,-1398 395.75,-1398 395.75,-1386 395.75,-1386 395.75,-1380 401.75,-1374 407.75,-1374 407.75,-1374 535.5,-1374 535.5,-1374 541.5,-1374 547.5,-1380 547.5,-1386 547.5,-1386 547.5,-1398 547.5,-1398 547.5,-1404 541.5,-1410 535.5,-1410"/>
<text xml:space="preserve" text-anchor="middle" x="471.62" y="-1386.95" font-family="Times New Roman,serif" font-size="14.00">scripts/large&#45;file&#45;hook.sh</text>
</g>
<!-- n26 -->
<g id="node26" class="node">
<title>n26</title>
<path fill="lightyellow" stroke="black" d="M532.12,-438C532.12,-438 411.12,-438 411.12,-438 405.12,-438 399.12,-432 399.12,-426 399.12,-426 399.12,-414 399.12,-414 399.12,-408 405.12,-402 411.12,-402 411.12,-402 532.12,-402 532.12,-402 538.12,-402 544.12,-408 544.12,-414 544.12,-414 544.12,-426 544.12,-426 544.12,-432 538.12,-438 532.12,-438"/>
<text xml:space="preserve" text-anchor="middle" x="471.62" y="-414.95" font-family="Times New Roman,serif" font-size="14.00">scripts/linkmilestone.sh</text>
</g>
<!-- n27 -->
<g id="node27" class="node">
<title>n27</title>
<path fill="lightcoral" stroke="red" d="M543,-1518C543,-1518 400.25,-1518 400.25,-1518 394.25,-1518 388.25,-1512 388.25,-1506 388.25,-1506 388.25,-1494 388.25,-1494 388.25,-1488 394.25,-1482 400.25,-1482 400.25,-1482 543,-1482 543,-1482 549,-1482 555,-1488 555,-1494 555,-1494 555,-1506 555,-1506 555,-1512 549,-1518 543,-1518"/>
<text xml:space="preserve" text-anchor="middle" x="471.62" y="-1494.95" font-family="Times New Roman,serif" font-size="14.00">scripts/pre&#45;commit&#45;hook.sh</text>
</g>
<!-- n28 -->
<g id="node28" class="node">
<title>n28</title>
<path fill="lightyellow" stroke="black" d="M500.25,-870C500.25,-870 443,-870 443,-870 437,-870 431,-864 431,-858 431,-858 431,-846 431,-846 431,-840 437,-834 443,-834 443,-834 500.25,-834 500.25,-834 506.25,-834 512.25,-840 512.25,-846 512.25,-846 512.25,-858 512.25,-858 512.25,-864 506.25,-870 500.25,-870"/>
<text xml:space="preserve" text-anchor="middle" x="471.62" y="-846.95" font-family="Times New Roman,serif" font-size="14.00">scripts/rc.sh</text>
</g>
<!-- n29 -->
<g id="node29" class="node">
<title>n29</title>
<path fill="lightyellow" stroke="black" d="M552,-1896C552,-1896 391.25,-1896 391.25,-1896 385.25,-1896 379.25,-1890 379.25,-1884 379.25,-1884 379.25,-1872 379.25,-1872 379.25,-1866 385.25,-1860 391.25,-1860 391.25,-1860 552,-1860 552,-1860 558,-1860 564,-1866 564,-1872 564,-1872 564,-1884 564,-1884 564,-1890 558,-1896 552,-1896"/>
<text xml:space="preserve" text-anchor="middle" x="471.62" y="-1872.95" font-family="Times New Roman,serif" font-size="14.00">scripts/rebuild&#45;schemas&#45;bp3.sh</text>
</g>
<!-- n30 -->
<g id="node30" class="node">
<title>n30</title>
<path fill="lightyellow" stroke="black" d="M538.12,-1248C538.12,-1248 405.12,-1248 405.12,-1248 399.12,-1248 393.12,-1242 393.12,-1236 393.12,-1236 393.12,-1224 393.12,-1224 393.12,-1218 399.12,-1212 405.12,-1212 405.12,-1212 538.12,-1212 538.12,-1212 544.12,-1212 550.12,-1218 550.12,-1224 550.12,-1224 550.12,-1236 550.12,-1236 550.12,-1242 544.12,-1248 538.12,-1248"/>
<text xml:space="preserve" text-anchor="middle" x="471.62" y="-1224.95" font-family="Times New Roman,serif" font-size="14.00">scripts/rebuild&#45;test&#45;bp3.sh</text>
</g>
<!-- n31 -->
<g id="node31" class="node">
<title>n31</title>
<path fill="lightyellow" stroke="black" d="M535.88,-1140C535.88,-1140 407.38,-1140 407.38,-1140 401.38,-1140 395.38,-1134 395.38,-1128 395.38,-1128 395.38,-1116 395.38,-1116 395.38,-1110 401.38,-1104 407.38,-1104 407.38,-1104 535.88,-1104 535.88,-1104 541.88,-1104 547.88,-1110 547.88,-1116 547.88,-1116 547.88,-1128 547.88,-1128 547.88,-1134 541.88,-1140 535.88,-1140"/>
<text xml:space="preserve" text-anchor="middle" x="471.62" y="-1116.95" font-family="Times New Roman,serif" font-size="14.00">scripts/test_subfolders.sh</text>
</g>
<!-- n32 -->
<g id="node32" class="node">
<title>n32</title>
<path fill="lightyellow" stroke="black" d="M548.62,-1194C548.62,-1194 394.62,-1194 394.62,-1194 388.62,-1194 382.62,-1188 382.62,-1182 382.62,-1182 382.62,-1170 382.62,-1170 382.62,-1164 388.62,-1158 394.62,-1158 394.62,-1158 548.62,-1158 548.62,-1158 554.62,-1158 560.62,-1164 560.62,-1170 560.62,-1170 560.62,-1182 560.62,-1182 560.62,-1188 554.62,-1194 548.62,-1194"/>
<text xml:space="preserve" text-anchor="middle" x="471.62" y="-1170.95" font-family="Times New Roman,serif" font-size="14.00">scripts/test_subfolders_full.sh</text>
</g>
<!-- n33 -->
<g id="node33" class="node">
<title>n33</title>
<path fill="lightyellow" stroke="black" d="M538.88,-222C538.88,-222 404.38,-222 404.38,-222 398.38,-222 392.38,-216 392.38,-210 392.38,-210 392.38,-198 392.38,-198 392.38,-192 398.38,-186 404.38,-186 404.38,-186 538.88,-186 538.88,-186 544.88,-186 550.88,-192 550.88,-198 550.88,-198 550.88,-210 550.88,-210 550.88,-216 544.88,-222 538.88,-222"/>
<text xml:space="preserve" text-anchor="middle" x="471.62" y="-198.95" font-family="Times New Roman,serif" font-size="14.00">scripts/unlinkmilestone.sh</text>
</g>
<!-- n34 -->
<g id="node34" class="node">
<title>n34</title>
<path fill="lightyellow" stroke="black" d="M549,-1842C549,-1842 394.25,-1842 394.25,-1842 388.25,-1842 382.25,-1836 382.25,-1830 382.25,-1830 382.25,-1818 382.25,-1818 382.25,-1812 388.25,-1806 394.25,-1806 394.25,-1806 549,-1806 549,-1806 555,-1806 561,-1812 561,-1818 561,-1818 561,-1830 561,-1830 561,-1836 555,-1842 549,-1842"/>
<text xml:space="preserve" text-anchor="middle" x="471.62" y="-1818.95" font-family="Times New Roman,serif" font-size="14.00">scripts/update&#45;bp3&#45;voedger.sh</text>
</g>
<!-- n35 -->
<g id="node35" class="node">
<title>n35</title>
<path fill="lightyellow" stroke="black" d="M531.75,-1626C531.75,-1626 411.5,-1626 411.5,-1626 405.5,-1626 399.5,-1620 399.5,-1614 399.5,-1614 399.5,-1602 399.5,-1602 399.5,-1596 405.5,-1590 411.5,-1590 411.5,-1590 531.75,-1590 531.75,-1590 537.75,-1590 543.75,-1596 543.75,-1602 543.75,-1602 543.75,-1614 543.75,-1614 543.75,-1620 537.75,-1626 531.75,-1626"/>
<text xml:space="preserve" text-anchor="middle" x="471.62" y="-1602.95" font-family="Times New Roman,serif" font-size="14.00">scripts/updateConfig.sh</text>
</g>
<!-- n36 -->
<g id="node36" class="node">
<title>n36</title>
<path fill="lightcoral" stroke="red" d="M554.25,-2004C554.25,-2004 389,-2004 389,-2004 383,-2004 377,-1998 377,-1992 377,-1992 377,-1980 377,-1980 377,-1974 383,-1968 389,-1968 389,-1968 554.25,-1968 554.25,-1968 560.25,-1968 566.25,-1974 566.25,-1980 566.25,-1980 566.25,-1992 566.25,-1992 566.25,-1998 560.25,-2004 554.25,-2004"/>
<text xml:space="preserve" text-anchor="middle" x="471.62" y="-1980.95" font-family="Times New Roman,serif" font-size="14.00">scripts/updateConfigDummy.sh</text>
</g>
<!-- n37 -->
<g id="node37" class="node">
<title>n37</title>
<path fill="lightcoral" stroke="red" d="M522.75,-2058C522.75,-2058 420.5,-2058 420.5,-2058 414.5,-2058 408.5,-2052 408.5,-2046 408.5,-2046 408.5,-2034 408.5,-2034 408.5,-2028 414.5,-2022 420.5,-2022 420.5,-2022 522.75,-2022 522.75,-2022 528.75,-2022 534.75,-2028 534.75,-2034 534.75,-2034 534.75,-2046 534.75,-2046 534.75,-2052 528.75,-2058 522.75,-2058"/>
<text xml:space="preserve" text-anchor="middle" x="471.62" y="-2034.95" font-family="Times New Roman,serif" font-size="14.00">scripts/vulncheck.sh</text>
</g>
<!-- n38 -->
<g id="node38" class="node">
<title>n38</title>
<path fill="white" stroke="black" d="M225.88,-2892C225.88,-2892 91.38,-2892 91.38,-2892 85.38,-2892 79.38,-2886 79.38,-2880 79.38,-2880 79.38,-2868 79.38,-2868 79.38,-2862 85.38,-2856 91.38,-2856 91.38,-2856 225.88,-2856 225.88,-2856 231.88,-2856 237.88,-2862 237.88,-2868 237.88,-2868 237.88,-2880 237.88,-2880 237.88,-2886 231.88,-2892 225.88,-2892"/>
<text xml:space="preserve" text-anchor="middle" x="158.62" y="-2868.95" font-family="Times New Roman,serif" font-size="14.00">.github/workflows/go.yml</text>
</g>
<!-- n38&#45;&gt;n12 -->
<g id="edge1" class="edge">
<title>n38&#45;&gt;n12</title>
<path fill="none" stroke="black" d="M238.15,-2877.04C264.69,-2873.75 291.96,-2864.77 309.25,-2844 354.16,-2790.07 284.1,-1634.72 329.25,-1581 351.52,-1554.51 391.07,-1548.78 422.68,-1549.1"/>
<polygon fill="black" stroke="black" points="422.31,-1552.59 432.41,-1549.41 422.53,-1545.59 422.31,-1552.59"/>
</g>
<!-- n39 -->
<g id="node39" class="node">
<title>n39</title>
<path fill="white" stroke="black" d="M235.62,-2429C235.62,-2429 81.62,-2429 81.62,-2429 75.62,-2429 69.62,-2423 69.62,-2417 69.62,-2417 69.62,-2405 69.62,-2405 69.62,-2399 75.62,-2393 81.62,-2393 81.62,-2393 235.62,-2393 235.62,-2393 241.62,-2393 247.62,-2399 247.62,-2405 247.62,-2405 247.62,-2417 247.62,-2417 247.62,-2423 241.62,-2429 235.62,-2429"/>
<text xml:space="preserve" text-anchor="middle" x="158.62" y="-2405.95" font-family="Times New Roman,serif" font-size="14.00">.github/workflows/cd_go.yml</text>
</g>
<!-- n39&#45;&gt;n20 -->
<g id="edge35" class="edge">
<title>n39&#45;&gt;n20</title>
<path fill="none" stroke="black" d="M248.09,-2414.32C271.25,-2410.57 293.99,-2401.86 309.25,-2384 342.14,-2345.51 296.56,-1511.65 329.25,-1473 339.67,-1460.68 353.84,-1452.85 369.19,-1448.04"/>
<polygon fill="black" stroke="black" points="369.75,-1451.52 378.52,-1445.56 367.95,-1444.75 369.75,-1451.52"/>
</g>
<!-- n40 -->
<g id="node40" class="node">
<title>n40</title>
<path fill="white" stroke="black" d="M239,-2483C239,-2483 78.25,-2483 78.25,-2483 72.25,-2483 66.25,-2477 66.25,-2471 66.25,-2471 66.25,-2459 66.25,-2459 66.25,-2453 72.25,-2447 78.25,-2447 78.25,-2447 239,-2447 239,-2447 245,-2447 251,-2453 251,-2459 251,-2459 251,-2471 251,-2471 251,-2477 245,-2483 239,-2483"/>
<text xml:space="preserve" text-anchor="middle" x="158.62" y="-2459.95" font-family="Times New Roman,serif" font-size="14.00">.github/workflows/cdd_go.yml</text>
</g>
<!-- n40&#45;&gt;n20 -->
<g id="edge36" class="edge">
<title>n40&#45;&gt;n20</title>
<path fill="none" stroke="black" d="M251.22,-2467.8C273.3,-2463.78 294.68,-2455.07 309.25,-2438 344.06,-2397.21 294.65,-1513.96 329.25,-1473 339.67,-1460.67 353.83,-1452.84 369.18,-1448.03"/>
<polygon fill="black" stroke="black" points="369.74,-1451.5 378.5,-1445.55 367.94,-1444.74 369.74,-1451.5"/>
</g>
<!-- n41 -->
<g id="node41" class="node">
<title>n41</title>
<path fill="white" stroke="black" d="M224,-2807C224,-2807 93.25,-2807 93.25,-2807 87.25,-2807 81.25,-2801 81.25,-2795 81.25,-2795 81.25,-2783 81.25,-2783 81.25,-2777 87.25,-2771 93.25,-2771 93.25,-2771 224,-2771 224,-2771 230,-2771 236,-2777 236,-2783 236,-2783 236,-2795 236,-2795 236,-2801 230,-2807 224,-2807"/>
<text xml:space="preserve" text-anchor="middle" x="158.62" y="-2783.95" font-family="Times New Roman,serif" font-size="14.00">.github/workflows/ci.yml</text>
</g>
<!-- n41&#45;&gt;n6 -->
<g id="edge37" class="edge">
<title>n41&#45;&gt;n6</title>
<path fill="none" stroke="black" d="M236.34,-2793.79C263.34,-2791.21 291.39,-2782.84 309.25,-2762 367.33,-2694.23 271.52,-2027.06 329.25,-1959 333.7,-1953.75 338.83,-1949.32 344.45,-1945.59"/>
<polygon fill="black" stroke="black" points="346.05,-1948.7 353,-1940.7 342.58,-1942.63 346.05,-1948.7"/>
</g>
<!-- n42 -->
<g id="node42" class="node">
<title>n42</title>
<path fill="white" stroke="black" d="M261.5,-2375C261.5,-2375 55.75,-2375 55.75,-2375 49.75,-2375 43.75,-2369 43.75,-2363 43.75,-2363 43.75,-2351 43.75,-2351 43.75,-2345 49.75,-2339 55.75,-2339 55.75,-2339 261.5,-2339 261.5,-2339 267.5,-2339 273.5,-2345 273.5,-2351 273.5,-2351 273.5,-2363 273.5,-2363 273.5,-2369 267.5,-2375 261.5,-2375"/>
<text xml:space="preserve" text-anchor="middle" x="158.62" y="-2351.95" font-family="Times New Roman,serif" font-size="14.00">.github/workflows/close_cprelease.yml</text>
</g>
<!-- n42&#45;&gt;n17 -->
<g id="edge38" class="edge">
<title>n42&#45;&gt;n17</title>
<path fill="none" stroke="black" d="M273.78,-2353.83C287.39,-2348.78 299.78,-2341.18 309.25,-2330 363.3,-2266.19 275.53,-889.08 329.25,-825 345.33,-805.82 370.47,-797.52 395.12,-794.51"/>
<polygon fill="black" stroke="black" points="395.22,-798.02 404.86,-793.62 394.59,-791.05 395.22,-798.02"/>
</g>
<!-- n43 -->
<g id="node43" class="node">
<title>n43</title>
<path fill="white" stroke="black" d="M225.5,-2645C225.5,-2645 91.75,-2645 91.75,-2645 85.75,-2645 79.75,-2639 79.75,-2633 79.75,-2633 79.75,-2621 79.75,-2621 79.75,-2615 85.75,-2609 91.75,-2609 91.75,-2609 225.5,-2609 225.5,-2609 231.5,-2609 237.5,-2615 237.5,-2621 237.5,-2621 237.5,-2633 237.5,-2633 237.5,-2639 231.5,-2645 225.5,-2645"/>
<text xml:space="preserve" text-anchor="middle" x="158.62" y="-2621.95" font-family="Times New Roman,serif" font-size="14.00">.github/workflows/cp.yml</text>
</g>
<!-- n43&#45;&gt;n9 -->
<g id="edge39" class="edge">
<title>n43&#45;&gt;n9</title>
<path fill="none" stroke="black" d="M237.91,-2631.65C264.44,-2628.9 291.74,-2620.46 309.25,-2600 340.21,-2563.82 298.47,-1779.34 329.25,-1743 342.4,-1727.47 361.49,-1719.09 381.4,-1714.88"/>
<polygon fill="black" stroke="black" points="381.77,-1718.37 391.03,-1713.21 380.58,-1711.47 381.77,-1718.37"/>
</g>
<!-- n44 -->
<g id="node44" class="node">
<title>n44</title>
<path fill="white" stroke="black" d="M253.62,-2321C253.62,-2321 63.62,-2321 63.62,-2321 57.62,-2321 51.62,-2315 51.62,-2309 51.62,-2309 51.62,-2297 51.62,-2297 51.62,-2291 57.62,-2285 63.62,-2285 63.62,-2285 253.62,-2285 253.62,-2285 259.62,-2285 265.62,-2291 265.62,-2297 265.62,-2297 265.62,-2309 265.62,-2309 265.62,-2315 259.62,-2321 253.62,-2321"/>
<text xml:space="preserve" text-anchor="middle" x="158.62" y="-2297.95" font-family="Times New Roman,serif" font-size="14.00">.github/workflows/nightly_tests.yml</text>
</g>
<!-- n44&#45;&gt;n10 -->
<g id="edge41" class="edge">
<title>n44&#45;&gt;n10</title>
<path fill="none" stroke="black" d="M266.1,-2300.2C282.74,-2294.97 298.09,-2286.46 309.25,-2273 339.71,-2236.26 298.62,-591.6 329.25,-555 336.39,-546.47 345.33,-540.09 355.21,-535.37"/>
<polygon fill="black" stroke="black" points="356.5,-538.62 364.43,-531.6 353.85,-532.14 356.5,-538.62"/>
</g>
<!-- n44&#45;&gt;n12 -->
<g id="edge40" class="edge">
<title>n44&#45;&gt;n12</title>
<path fill="none" stroke="black" d="M265.91,-2300.04C282.57,-2294.83 297.97,-2286.36 309.25,-2273 358.86,-2214.21 279.37,-1639.56 329.25,-1581 351.69,-1554.65 391.23,-1548.91 422.79,-1549.19"/>
<polygon fill="black" stroke="black" points="422.4,-1552.68 432.5,-1549.49 422.62,-1545.68 422.4,-1552.68"/>
</g>
<!-- n45 -->
<g id="node45" class="node">
<title>n45</title>
<path fill="white" stroke="black" d="M224.38,-2699C224.38,-2699 92.88,-2699 92.88,-2699 86.88,-2699 80.88,-2693 80.88,-2687 80.88,-2687 80.88,-2675 80.88,-2675 80.88,-2669 86.88,-2663 92.88,-2663 92.88,-2663 224.38,-2663 224.38,-2663 230.38,-2663 236.38,-2669 236.38,-2675 236.38,-2675 236.38,-2687 236.38,-2687 236.38,-2693 230.38,-2699 224.38,-2699"/>
<text xml:space="preserve" text-anchor="middle" x="158.62" y="-2675.95" font-family="Times New Roman,serif" font-size="14.00">.github/workflows/rc.yml</text>
</g>
<!-- n45&#45;&gt;n11 -->
<g id="edge42" class="edge">
<title>n45&#45;&gt;n11</title>
<path fill="none" stroke="black" d="M236.74,-2685.77C263.63,-2683.14 291.49,-2674.76 309.25,-2654 340.21,-2617.82 298.47,-1833.34 329.25,-1797 342.6,-1781.23 362.08,-1772.83 382.33,-1768.69"/>
<polygon fill="black" stroke="black" points="382.85,-1772.15 392.13,-1767.05 381.69,-1765.25 382.85,-1772.15"/>
</g>
<!-- n46 -->
<g id="node46" class="node">
<title>n46</title>
<path fill="white" stroke="black" d="M289.25,-2753C289.25,-2753 28,-2753 28,-2753 22,-2753 16,-2747 16,-2741 16,-2741 16,-2729 16,-2729 16,-2723 22,-2717 28,-2717 28,-2717 289.25,-2717 289.25,-2717 295.25,-2717 301.25,-2723 301.25,-2729 301.25,-2729 301.25,-2741 301.25,-2741 301.25,-2747 295.25,-2753 289.25,-2753"/>
<text xml:space="preserve" text-anchor="middle" x="158.62" y="-2729.95" font-family="Times New Roman,serif" font-size="14.00">.github/workflows/update_baseline_schemas.yml</text>
</g>
<!-- n46&#45;&gt;n29 -->
<g id="edge43" class="edge">
<title>n46&#45;&gt;n29</title>
<path fill="none" stroke="black" d="M300.62,-2716.51C303.7,-2713.94 306.59,-2711.11 309.25,-2708 367.33,-2640.23 271.52,-1973.06 329.25,-1905 339.4,-1893.04 353.06,-1885.32 367.92,-1880.48"/>
<polygon fill="black" stroke="black" points="368.74,-1883.89 377.45,-1877.85 366.88,-1877.14 368.74,-1883.89"/>
</g>
<!-- n47 -->
<g id="node47" class="node">
<title>n47</title>
<path fill="white" stroke="black" d="M273.5,-2591C273.5,-2591 43.75,-2591 43.75,-2591 37.75,-2591 31.75,-2585 31.75,-2579 31.75,-2579 31.75,-2567 31.75,-2567 31.75,-2561 37.75,-2555 43.75,-2555 43.75,-2555 273.5,-2555 273.5,-2555 279.5,-2555 285.5,-2561 285.5,-2567 285.5,-2567 285.5,-2579 285.5,-2579 285.5,-2585 279.5,-2591 273.5,-2591"/>
<text xml:space="preserve" text-anchor="middle" x="158.62" y="-2567.95" font-family="Times New Roman,serif" font-size="14.00">.github/workflows/update_config_sync.yml</text>
</g>
<!-- n47&#45;&gt;n35 -->
<g id="edge44" class="edge">
<title>n47&#45;&gt;n35</title>
<path fill="none" stroke="black" d="M285.82,-2564.38C294.65,-2559.74 302.65,-2553.73 309.25,-2546 342.14,-2507.51 296.56,-1673.65 329.25,-1635 343.81,-1617.78 365.68,-1609.35 387.89,-1605.64"/>
<polygon fill="black" stroke="black" points="388.19,-1609.13 397.64,-1604.35 387.27,-1602.2 388.19,-1609.13"/>
</g>
<!-- n48 -->
<g id="node48" class="node">
<title>n48</title>
<path fill="white" stroke="black" d="M261.88,-2537C261.88,-2537 55.38,-2537 55.38,-2537 49.38,-2537 43.38,-2531 43.38,-2525 43.38,-2525 43.38,-2513 43.38,-2513 43.38,-2507 49.38,-2501 55.38,-2501 55.38,-2501 261.88,-2501 261.88,-2501 267.88,-2501 273.88,-2507 273.88,-2513 273.88,-2513 273.88,-2525 273.88,-2525 273.88,-2531 267.88,-2537 261.88,-2537"/>
<text xml:space="preserve" text-anchor="middle" x="158.62" y="-2513.95" font-family="Times New Roman,serif" font-size="14.00">.github/workflows/update_voedger.yml</text>
</g>
<!-- n48&#45;&gt;n12 -->
<g id="edge46" class="edge">
<title>n48&#45;&gt;n12</title>
<path fill="none" stroke="black" d="M274.06,-2515.62C287.53,-2510.58 299.82,-2503.04 309.25,-2492 342.14,-2453.51 296.56,-1619.65 329.25,-1581 351.6,-1554.58 391.14,-1548.84 422.73,-1549.14"/>
<polygon fill="black" stroke="black" points="422.35,-1552.63 432.46,-1549.45 422.57,-1545.64 422.35,-1552.63"/>
</g>
<!-- n48&#45;&gt;n34 -->
<g id="edge45" class="edge">
<title>n48&#45;&gt;n34</title>
<path fill="none" stroke="black" d="M274.33,-2515.4C287.68,-2510.37 299.85,-2502.89 309.25,-2492 355.79,-2438.04 282.98,-1905.19 329.25,-1851 340.16,-1838.22 355.1,-1830.29 371.2,-1825.54"/>
<polygon fill="black" stroke="black" points="371.59,-1829.05 380.44,-1823.23 369.89,-1822.26 371.59,-1829.05"/>
</g>
<!-- n49 -->
<g id="node49" class="node">
<title>n49</title>
<path fill="white" stroke="black" d="M225.5,-1966C225.5,-1966 91.75,-1966 91.75,-1966 85.75,-1966 79.75,-1960 79.75,-1954 79.75,-1954 79.75,-1942 79.75,-1942 79.75,-1936 85.75,-1930 91.75,-1930 91.75,-1930 225.5,-1930 225.5,-1930 231.5,-1930 237.5,-1936 237.5,-1942 237.5,-1942 237.5,-1954 237.5,-1954 237.5,-1960 231.5,-1966 225.5,-1966"/>
<text xml:space="preserve" text-anchor="middle" x="158.62" y="-1942.95" font-family="Times New Roman,serif" font-size="14.00">.github/workflows/cd.yml</text>
</g>
<!-- n49&#45;&gt;n20 -->
<g id="edge47" class="edge">
<title>n49&#45;&gt;n20</title>
<path fill="none" stroke="black" d="M237.82,-1950.76C264.33,-1947.44 291.66,-1938.51 309.25,-1918 341.47,-1880.43 296.86,-1510.42 329.25,-1473 339.81,-1460.8 354.05,-1453.03 369.43,-1448.24"/>
<polygon fill="black" stroke="black" points="369.99,-1451.72 378.76,-1445.77 368.2,-1444.95 369.99,-1451.72"/>
</g>
<!-- n50 -->
<g id="node50" class="node">
<title>n50</title>
<path fill="white" stroke="black" d="M228.88,-2020C228.88,-2020 88.38,-2020 88.38,-2020 82.38,-2020 76.38,-2014 76.38,-2008 76.38,-2008 76.38,-1996 76.38,-1996 76.38,-1990 82.38,-1984 88.38,-1984 88.38,-1984 228.88,-1984 228.88,-1984 234.88,-1984 240.88,-1990 240.88,-1996 240.88,-1996 240.88,-2008 240.88,-2008 240.88,-2014 234.88,-2020 228.88,-2020"/>
<text xml:space="preserve" text-anchor="middle" x="158.62" y="-1996.95" font-family="Times New Roman,serif" font-size="14.00">.github/workflows/cdd.yml</text>
</g>
<!-- n50&#45;&gt;n20 -->
<g id="edge49" class="edge">
<title>n50&#45;&gt;n20</title>
<path fill="none" stroke="black" d="M241.24,-2006.09C266.63,-2002.96 292.36,-1994.42 309.25,-1975 345.89,-1932.89 292.82,-1515.3 329.25,-1473 339.78,-1460.77 354,-1452.99 369.37,-1448.2"/>
<polygon fill="black" stroke="black" points="369.94,-1451.67 378.71,-1445.73 368.14,-1444.9 369.94,-1451.67"/>
</g>
<!-- n50&#45;&gt;n35 -->
<g id="edge48" class="edge">
<title>n50&#45;&gt;n35</title>
<path fill="none" stroke="black" d="M241.03,-2005.91C266.4,-2002.76 292.17,-1994.25 309.25,-1975 359.47,-1918.37 279.32,-1691.88 329.25,-1635 344.06,-1618.13 365.88,-1609.78 387.97,-1606.04"/>
<polygon fill="black" stroke="black" points="388.22,-1609.54 397.66,-1604.72 387.28,-1602.6 388.22,-1609.54"/>
</g>
<!-- n51 -->
<g id="node51" class="node">
<title>n51</title>
<path fill="white" stroke="black" d="M224,-2074C224,-2074 93.25,-2074 93.25,-2074 87.25,-2074 81.25,-2068 81.25,-2062 81.25,-2062 81.25,-2050 81.25,-2050 81.25,-2044 87.25,-2038 93.25,-2038 93.25,-2038 224,-2038 224,-2038 230,-2038 236,-2044 236,-2050 236,-2050 236,-2062 236,-2062 236,-2068 230,-2074 224,-2074"/>
<text xml:space="preserve" text-anchor="middle" x="158.62" y="-2050.95" font-family="Times New Roman,serif" font-size="14.00">.github/workflows/ci.yml</text>
</g>
<!-- n51&#45;&gt;n4 -->
<g id="edge50" class="edge">
<title>n51&#45;&gt;n4</title>
<path fill="none" stroke="black" d="M236.36,-2060.43C263.2,-2057.77 291.12,-2049.44 309.25,-2029 359.47,-1972.37 279.32,-1745.88 329.25,-1689 338.97,-1677.93 351.71,-1670.52 365.57,-1665.68"/>
<polygon fill="black" stroke="black" points="366.32,-1669.11 374.91,-1662.9 364.32,-1662.4 366.32,-1669.11"/>
</g>
<!-- n52 -->
<g id="node52" class="node">
<title>n52</title>
<path fill="white" stroke="black" d="M225.5,-2128C225.5,-2128 91.75,-2128 91.75,-2128 85.75,-2128 79.75,-2122 79.75,-2116 79.75,-2116 79.75,-2104 79.75,-2104 79.75,-2098 85.75,-2092 91.75,-2092 91.75,-2092 225.5,-2092 225.5,-2092 231.5,-2092 237.5,-2098 237.5,-2104 237.5,-2104 237.5,-2116 237.5,-2116 237.5,-2122 231.5,-2128 225.5,-2128"/>
<text xml:space="preserve" text-anchor="middle" x="158.62" y="-2104.95" font-family="Times New Roman,serif" font-size="14.00">.github/workflows/cp.yml</text>
</g>
<!-- n52&#45;&gt;n9 -->
<g id="edge51" class="edge">
<title>n52&#45;&gt;n9</title>
<path fill="none" stroke="black" d="M237.91,-2114.27C264.27,-2111.44 291.47,-2103.04 309.25,-2083 359.47,-2026.37 279.32,-1799.88 329.25,-1743 342.54,-1727.86 361.48,-1719.58 381.2,-1715.34"/>
<polygon fill="black" stroke="black" points="381.8,-1718.78 391.04,-1713.59 380.58,-1711.89 381.8,-1718.78"/>
</g>
<!-- n53 -->
<g id="node53" class="node">
<title>n53</title>
<path fill="white" stroke="black" d="M259.25,-2182C259.25,-2182 58,-2182 58,-2182 52,-2182 46,-2176 46,-2170 46,-2170 46,-2158 46,-2158 46,-2152 52,-2146 58,-2146 58,-2146 259.25,-2146 259.25,-2146 265.25,-2146 271.25,-2152 271.25,-2158 271.25,-2158 271.25,-2170 271.25,-2170 271.25,-2176 265.25,-2182 259.25,-2182"/>
<text xml:space="preserve" text-anchor="middle" x="158.62" y="-2158.95" font-family="Times New Roman,serif" font-size="14.00">.github/workflows/cronecprelease.yml</text>
</g>
<!-- n53&#45;&gt;n9 -->
<g id="edge52" class="edge">
<title>n53&#45;&gt;n9</title>
<path fill="none" stroke="black" d="M271.54,-2161.16C285.93,-2156.17 299.14,-2148.49 309.25,-2137 367.16,-2071.18 271.68,-1809.12 329.25,-1743 342.48,-1727.81 361.4,-1719.5 381.11,-1715.26"/>
<polygon fill="black" stroke="black" points="381.71,-1718.71 390.95,-1713.52 380.49,-1711.82 381.71,-1718.71"/>
</g>
<!-- n54 -->
<g id="node54" class="node">
<title>n54</title>
<path fill="white" stroke="black" d="M224.38,-2236C224.38,-2236 92.88,-2236 92.88,-2236 86.88,-2236 80.88,-2230 80.88,-2224 80.88,-2224 80.88,-2212 80.88,-2212 80.88,-2206 86.88,-2200 92.88,-2200 92.88,-2200 224.38,-2200 224.38,-2200 230.38,-2200 236.38,-2206 236.38,-2212 236.38,-2212 236.38,-2224 236.38,-2224 236.38,-2230 230.38,-2236 224.38,-2236"/>
<text xml:space="preserve" text-anchor="middle" x="158.62" y="-2212.95" font-family="Times New Roman,serif" font-size="14.00">.github/workflows/rc.yml</text>
</g>
<!-- n54&#45;&gt;n11 -->
<g id="edge53" class="edge">
<title>n54&#45;&gt;n11</title>
<path fill="none" stroke="black" d="M236.83,-2222.47C263.56,-2219.77 291.29,-2211.41 309.25,-2191 367.16,-2125.18 271.68,-1863.12 329.25,-1797 342.75,-1781.5 362.17,-1773.17 382.32,-1769.01"/>
<polygon fill="black" stroke="black" points="382.78,-1772.48 392.06,-1767.36 381.61,-1765.58 382.78,-1772.48"/>
</g>
<!-- n55 -->
<g id="node55" class="node">
<title>n55</title>
<path fill="white" stroke="black" d="M251.38,-1395C251.38,-1395 65.88,-1395 65.88,-1395 59.88,-1395 53.88,-1389 53.88,-1383 53.88,-1383 53.88,-1371 53.88,-1371 53.88,-1365 59.88,-1359 65.88,-1359 65.88,-1359 251.38,-1359 251.38,-1359 257.38,-1359 263.38,-1365 263.38,-1371 263.38,-1371 263.38,-1383 263.38,-1383 263.38,-1389 257.38,-1395 251.38,-1395"/>
<text xml:space="preserve" text-anchor="middle" x="158.62" y="-1371.95" font-family="Times New Roman,serif" font-size="14.00">.github/workflows/cd&#45;payment.yml</text>
</g>
<!-- n55&#45;&gt;n20 -->
<g id="edge55" class="edge">
<title>n55&#45;&gt;n20</title>
<path fill="none" stroke="black" d="M263.71,-1389.3C279.33,-1392.99 294.97,-1397.78 309.25,-1404 319.44,-1408.44 319.09,-1414.51 329.25,-1419 341.78,-1424.54 355.44,-1428.94 369.15,-1432.45"/>
<polygon fill="black" stroke="black" points="368.13,-1435.8 378.67,-1434.72 369.76,-1428.99 368.13,-1435.8"/>
</g>
<!-- n56 -->
<g id="node56" class="node">
<title>n56</title>
<path fill="white" stroke="black" d="M247.25,-1449C247.25,-1449 70,-1449 70,-1449 64,-1449 58,-1443 58,-1437 58,-1437 58,-1425 58,-1425 58,-1419 64,-1413 70,-1413 70,-1413 247.25,-1413 247.25,-1413 253.25,-1413 259.25,-1419 259.25,-1425 259.25,-1425 259.25,-1437 259.25,-1437 259.25,-1443 253.25,-1449 247.25,-1449"/>
<text xml:space="preserve" text-anchor="middle" x="158.62" y="-1425.95" font-family="Times New Roman,serif" font-size="14.00">.github/workflows/cd&#45;reseller.yml</text>
</g>
<!-- n56&#45;&gt;n20 -->
<g id="edge56" class="edge">
<title>n56&#45;&gt;n20</title>
<path fill="none" stroke="black" d="M259.74,-1435.83C294.59,-1437.51 333.71,-1439.4 368.7,-1441.08"/>
<polygon fill="black" stroke="black" points="368.24,-1444.57 378.4,-1441.55 368.58,-1437.57 368.24,-1444.57"/>
</g>
<!-- n57 -->
<g id="node57" class="node">
<title>n57</title>
<path fill="white" stroke="black" d="M254.75,-1503C254.75,-1503 62.5,-1503 62.5,-1503 56.5,-1503 50.5,-1497 50.5,-1491 50.5,-1491 50.5,-1479 50.5,-1479 50.5,-1473 56.5,-1467 62.5,-1467 62.5,-1467 254.75,-1467 254.75,-1467 260.75,-1467 266.75,-1473 266.75,-1479 266.75,-1479 266.75,-1491 266.75,-1491 266.75,-1497 260.75,-1503 254.75,-1503"/>
<text xml:space="preserve" text-anchor="middle" x="158.62" y="-1479.95" font-family="Times New Roman,serif" font-size="14.00">.github/workflows/cdd&#45;payment.yml</text>
</g>
<!-- n57&#45;&gt;n20 -->
<g id="edge58" class="edge">
<title>n57&#45;&gt;n20</title>
<path fill="none" stroke="black" d="M267.09,-1471.52C299.99,-1467.4 336.08,-1462.87 368.61,-1458.79"/>
<polygon fill="black" stroke="black" points="368.96,-1462.28 378.45,-1457.56 368.09,-1455.33 368.96,-1462.28"/>
</g>
<!-- n57&#45;&gt;n35 -->
<g id="edge57" class="edge">
<title>n57&#45;&gt;n35</title>
<path fill="none" stroke="black" d="M266.99,-1489.37C282.53,-1494.04 297.29,-1501.22 309.25,-1512 332.97,-1533.38 305.64,-1559.5 329.25,-1581 345.3,-1595.61 366.73,-1603.42 388.05,-1607.35"/>
<polygon fill="black" stroke="black" points="387.24,-1610.77 397.66,-1608.84 388.31,-1603.85 387.24,-1610.77"/>
</g>
<!-- n58 -->
<g id="node58" class="node">
<title>n58</title>
<path fill="white" stroke="black" d="M250.62,-1557C250.62,-1557 66.62,-1557 66.62,-1557 60.62,-1557 54.62,-1551 54.62,-1545 54.62,-1545 54.62,-1533 54.62,-1533 54.62,-1527 60.62,-1521 66.62,-1521 66.62,-1521 250.62,-1521 250.62,-1521 256.62,-1521 262.62,-1527 262.62,-1533 262.62,-1533 262.62,-1545 262.62,-1545 262.62,-1551 256.62,-1557 250.62,-1557"/>
<text xml:space="preserve" text-anchor="middle" x="158.62" y="-1533.95" font-family="Times New Roman,serif" font-size="14.00">.github/workflows/cdd&#45;reseller.yml</text>
</g>
<!-- n58&#45;&gt;n20 -->
<g id="edge60" class="edge">
<title>n58&#45;&gt;n20</title>
<path fill="none" stroke="black" d="M262.97,-1533.19C279.54,-1528.77 295.68,-1522.06 309.25,-1512 324.9,-1500.4 313.66,-1484.68 329.25,-1473 340.96,-1464.23 354.72,-1458.05 368.97,-1453.75"/>
<polygon fill="black" stroke="black" points="369.72,-1457.18 378.47,-1451.21 367.91,-1450.41 369.72,-1457.18"/>
</g>
<!-- n58&#45;&gt;n35 -->
<g id="edge59" class="edge">
<title>n58&#45;&gt;n35</title>
<path fill="none" stroke="black" d="M262.91,-1551.12C278.8,-1554.83 294.73,-1559.67 309.25,-1566 319.44,-1570.44 319.09,-1576.51 329.25,-1581 347.58,-1589.1 368.3,-1594.78 388.12,-1598.75"/>
<polygon fill="black" stroke="black" points="387.37,-1602.17 397.85,-1600.57 388.66,-1595.29 387.37,-1602.17"/>
</g>
<!-- n59 -->
<g id="node59" class="node">
<title>n59</title>
<path fill="white" stroke="black" d="M224,-1719C224,-1719 93.25,-1719 93.25,-1719 87.25,-1719 81.25,-1713 81.25,-1707 81.25,-1707 81.25,-1695 81.25,-1695 81.25,-1689 87.25,-1683 93.25,-1683 93.25,-1683 224,-1683 224,-1683 230,-1683 236,-1689 236,-1695 236,-1695 236,-1707 236,-1707 236,-1713 230,-1719 224,-1719"/>
<text xml:space="preserve" text-anchor="middle" x="158.62" y="-1695.95" font-family="Times New Roman,serif" font-size="14.00">.github/workflows/ci.yml</text>
</g>
<!-- n59&#45;&gt;n4 -->
<g id="edge61" class="edge">
<title>n59&#45;&gt;n4</title>
<path fill="none" stroke="black" d="M236.1,-1691.41C274.98,-1686.53 322.84,-1680.53 365.16,-1675.23"/>
<polygon fill="black" stroke="black" points="365.38,-1678.73 374.86,-1674.01 364.51,-1671.78 365.38,-1678.73"/>
</g>
<!-- n60 -->
<g id="node60" class="node">
<title>n60</title>
<path fill="white" stroke="black" d="M251,-1611C251,-1611 66.25,-1611 66.25,-1611 60.25,-1611 54.25,-1605 54.25,-1599 54.25,-1599 54.25,-1587 54.25,-1587 54.25,-1581 60.25,-1575 66.25,-1575 66.25,-1575 251,-1575 251,-1575 257,-1575 263,-1581 263,-1587 263,-1587 263,-1599 263,-1599 263,-1605 257,-1611 251,-1611"/>
<text xml:space="preserve" text-anchor="middle" x="158.62" y="-1587.95" font-family="Times New Roman,serif" font-size="14.00">.github/workflows/ci_payment.yml</text>
</g>
<!-- n60&#45;&gt;n4 -->
<g id="edge62" class="edge">
<title>n60&#45;&gt;n4</title>
<path fill="none" stroke="black" d="M263.31,-1605.21C279.06,-1608.91 294.85,-1613.72 309.25,-1620 319.44,-1624.44 319.09,-1630.51 329.25,-1635 340.65,-1640.04 352.98,-1644.14 365.44,-1647.47"/>
<polygon fill="black" stroke="black" points="364.38,-1650.82 374.93,-1649.85 366.08,-1644.03 364.38,-1650.82"/>
</g>
<!-- n61 -->
<g id="node61" class="node">
<title>n61</title>
<path fill="white" stroke="black" d="M246.88,-1665C246.88,-1665 70.38,-1665 70.38,-1665 64.38,-1665 58.38,-1659 58.38,-1653 58.38,-1653 58.38,-1641 58.38,-1641 58.38,-1635 64.38,-1629 70.38,-1629 70.38,-1629 246.88,-1629 246.88,-1629 252.88,-1629 258.88,-1635 258.88,-1641 258.88,-1641 258.88,-1653 258.88,-1653 258.88,-1659 252.88,-1665 246.88,-1665"/>
<text xml:space="preserve" text-anchor="middle" x="158.62" y="-1641.95" font-family="Times New Roman,serif" font-size="14.00">.github/workflows/ci_reseller.yml</text>
</g>
<!-- n61&#45;&gt;n4 -->
<g id="edge63" class="edge">
<title>n61&#45;&gt;n4</title>
<path fill="none" stroke="black" d="M259.31,-1651.81C292.99,-1653.43 330.7,-1655.25 364.84,-1656.9"/>
<polygon fill="black" stroke="black" points="364.6,-1660.39 374.75,-1657.38 364.93,-1653.4 364.6,-1660.39"/>
</g>
<!-- n62 -->
<g id="node62" class="node">
<title>n62</title>
<path fill="white" stroke="black" d="M225.5,-1773C225.5,-1773 91.75,-1773 91.75,-1773 85.75,-1773 79.75,-1767 79.75,-1761 79.75,-1761 79.75,-1749 79.75,-1749 79.75,-1743 85.75,-1737 91.75,-1737 91.75,-1737 225.5,-1737 225.5,-1737 231.5,-1737 237.5,-1743 237.5,-1749 237.5,-1749 237.5,-1761 237.5,-1761 237.5,-1767 231.5,-1773 225.5,-1773"/>
<text xml:space="preserve" text-anchor="middle" x="158.62" y="-1749.95" font-family="Times New Roman,serif" font-size="14.00">.github/workflows/cp.yml</text>
</g>
<!-- n62&#45;&gt;n9 -->
<g id="edge64" class="edge">
<title>n62&#45;&gt;n9</title>
<path fill="none" stroke="black" d="M237.7,-1745.21C281.33,-1739.74 335.87,-1732.9 381.2,-1727.21"/>
<polygon fill="black" stroke="black" points="381.53,-1730.7 391.01,-1725.98 380.66,-1723.75 381.53,-1730.7"/>
</g>
<!-- n63 -->
<g id="node63" class="node">
<title>n63</title>
<path fill="white" stroke="black" d="M259.25,-1827C259.25,-1827 58,-1827 58,-1827 52,-1827 46,-1821 46,-1815 46,-1815 46,-1803 46,-1803 46,-1797 52,-1791 58,-1791 58,-1791 259.25,-1791 259.25,-1791 265.25,-1791 271.25,-1797 271.25,-1803 271.25,-1803 271.25,-1815 271.25,-1815 271.25,-1821 265.25,-1827 259.25,-1827"/>
<text xml:space="preserve" text-anchor="middle" x="158.62" y="-1803.95" font-family="Times New Roman,serif" font-size="14.00">.github/workflows/cronecprelease.yml</text>
</g>
<!-- n63&#45;&gt;n9 -->
<g id="edge65" class="edge">
<title>n63&#45;&gt;n9</title>
<path fill="none" stroke="black" d="M271.46,-1800.71C285.01,-1796.37 298.01,-1790.33 309.25,-1782 324.9,-1770.4 313.66,-1754.68 329.25,-1743 344.31,-1731.72 362.74,-1724.74 381.26,-1720.51"/>
<polygon fill="black" stroke="black" points="381.85,-1723.96 390.97,-1718.56 380.48,-1717.09 381.85,-1723.96"/>
</g>
<!-- n64 -->
<g id="node64" class="node">
<title>n64</title>
<path fill="white" stroke="black" d="M224.38,-1881C224.38,-1881 92.88,-1881 92.88,-1881 86.88,-1881 80.88,-1875 80.88,-1869 80.88,-1869 80.88,-1857 80.88,-1857 80.88,-1851 86.88,-1845 92.88,-1845 92.88,-1845 224.38,-1845 224.38,-1845 230.38,-1845 236.38,-1851 236.38,-1857 236.38,-1857 236.38,-1869 236.38,-1869 236.38,-1875 230.38,-1881 224.38,-1881"/>
<text xml:space="preserve" text-anchor="middle" x="158.62" y="-1857.95" font-family="Times New Roman,serif" font-size="14.00">.github/workflows/rc.yml</text>
</g>
<!-- n64&#45;&gt;n11 -->
<g id="edge66" class="edge">
<title>n64&#45;&gt;n11</title>
<path fill="none" stroke="black" d="M236.51,-1862.44C261.67,-1858.97 288.47,-1851.4 309.25,-1836 324.9,-1824.4 313.66,-1808.68 329.25,-1797 344.63,-1785.48 363.53,-1778.44 382.45,-1774.24"/>
<polygon fill="black" stroke="black" points="382.92,-1777.71 392.07,-1772.37 381.59,-1770.84 382.92,-1777.71"/>
</g>
<!-- n65 -->
<g id="node65" class="node">
<title>n65</title>
<path fill="white" stroke="black" d="M225.5,-1310C225.5,-1310 91.75,-1310 91.75,-1310 85.75,-1310 79.75,-1304 79.75,-1298 79.75,-1298 79.75,-1286 79.75,-1286 79.75,-1280 85.75,-1274 91.75,-1274 91.75,-1274 225.5,-1274 225.5,-1274 231.5,-1274 237.5,-1280 237.5,-1286 237.5,-1286 237.5,-1298 237.5,-1298 237.5,-1304 231.5,-1310 225.5,-1310"/>
<text xml:space="preserve" text-anchor="middle" x="158.62" y="-1286.95" font-family="Times New Roman,serif" font-size="14.00">.github/workflows/cd.yml</text>
</g>
<!-- n65&#45;&gt;n20 -->
<g id="edge68" class="edge">
<title>n65&#45;&gt;n20</title>
<path fill="none" stroke="black" d="M237.7,-1305.71C263.56,-1313.81 290.49,-1326.65 309.25,-1347 331.76,-1371.42 304.82,-1396.5 329.25,-1419 340.49,-1429.35 354.43,-1436.3 369.13,-1440.88"/>
<polygon fill="black" stroke="black" points="367.92,-1444.18 378.49,-1443.41 369.75,-1437.42 367.92,-1444.18"/>
</g>
<!-- n65&#45;&gt;n35 -->
<g id="edge67" class="edge">
<title>n65&#45;&gt;n35</title>
<path fill="none" stroke="black" d="M237.93,-1303.29C264.62,-1311.14 292.04,-1324.45 309.25,-1347 340.91,-1388.49 294.3,-1542.24 329.25,-1581 344.21,-1597.59 365.96,-1605.89 387.93,-1609.66"/>
<polygon fill="black" stroke="black" points="387.18,-1613.09 397.56,-1610.99 388.14,-1606.15 387.18,-1613.09"/>
</g>
<!-- n66 -->
<g id="node66" class="node">
<title>n66</title>
<path fill="white" stroke="black" d="M242.75,-1225C242.75,-1225 74.5,-1225 74.5,-1225 68.5,-1225 62.5,-1219 62.5,-1213 62.5,-1213 62.5,-1201 62.5,-1201 62.5,-1195 68.5,-1189 74.5,-1189 74.5,-1189 242.75,-1189 242.75,-1189 248.75,-1189 254.75,-1195 254.75,-1201 254.75,-1201 254.75,-1213 254.75,-1213 254.75,-1219 248.75,-1225 242.75,-1225"/>
<text xml:space="preserve" text-anchor="middle" x="158.62" y="-1201.95" font-family="Times New Roman,serif" font-size="14.00">.github/workflows/short_go.yml</text>
</g>
<!-- n66&#45;&gt;n3 -->
<g id="edge2" class="edge">
<title>n66&#45;&gt;n3</title>
<path fill="none" stroke="black" d="M216.95,-1225.42C249.64,-1235.54 291.5,-1247.86 329.25,-1257 338.06,-1259.13 347.2,-1261.2 356.42,-1263.19"/>
<polygon fill="black" stroke="black" points="355.69,-1266.61 366.19,-1265.25 357.13,-1259.76 355.69,-1266.61"/>
</g>
<!-- n67 -->
<g id="node67" class="node">
<title>n67</title>
<path fill="white" stroke="black" d="M260,-1140C260,-1140 57.25,-1140 57.25,-1140 51.25,-1140 45.25,-1134 45.25,-1128 45.25,-1128 45.25,-1116 45.25,-1116 45.25,-1110 51.25,-1104 57.25,-1104 57.25,-1104 260,-1104 260,-1104 266,-1104 272,-1110 272,-1116 272,-1116 272,-1128 272,-1128 272,-1134 266,-1140 260,-1140"/>
<text xml:space="preserve" text-anchor="middle" x="158.62" y="-1116.95" font-family="Times New Roman,serif" font-size="14.00">.github/workflows/ci_rebuild_bp3.yml</text>
</g>
<!-- n67&#45;&gt;n30 -->
<g id="edge3" class="edge">
<title>n67&#45;&gt;n30</title>
<path fill="none" stroke="black" d="M234.51,-1140.38C259.79,-1148.88 287.17,-1160.78 309.25,-1177 321,-1185.63 316.84,-1195.36 329.25,-1203 345.01,-1212.7 363.48,-1219.05 381.77,-1223.17"/>
<polygon fill="black" stroke="black" points="380.83,-1226.55 391.32,-1225.11 382.22,-1219.69 380.83,-1226.55"/>
</g>
<!-- n68 -->
<g id="node68" class="node">
<title>n68</title>
<path fill="white" stroke="black" d="M241.62,-1086C241.62,-1086 75.62,-1086 75.62,-1086 69.62,-1086 63.62,-1080 63.62,-1074 63.62,-1074 63.62,-1062 63.62,-1062 63.62,-1056 69.62,-1050 75.62,-1050 75.62,-1050 241.62,-1050 241.62,-1050 247.62,-1050 253.62,-1056 253.62,-1062 253.62,-1062 253.62,-1074 253.62,-1074 253.62,-1080 247.62,-1086 241.62,-1086"/>
<text xml:space="preserve" text-anchor="middle" x="158.62" y="-1062.95" font-family="Times New Roman,serif" font-size="14.00">.github/workflows/ci_reuse.yml</text>
</g>
<!-- n68&#45;&gt;n12 -->
<g id="edge5" class="edge">
<title>n68&#45;&gt;n12</title>
<path fill="none" stroke="black" d="M254.04,-1066.05C275.01,-1070.31 295.16,-1078.92 309.25,-1095 340.91,-1131.15 297.78,-1490.69 329.25,-1527 351.92,-1553.15 391.43,-1558.91 422.94,-1558.68"/>
<polygon fill="black" stroke="black" points="422.73,-1562.19 432.62,-1558.4 422.52,-1555.2 422.73,-1562.19"/>
</g>
<!-- n68&#45;&gt;n15 -->
<g id="edge4" class="edge">
<title>n68&#45;&gt;n15</title>
<path fill="none" stroke="black" d="M253.78,-1068C301.04,-1068 357.31,-1068 400.69,-1068"/>
<polygon fill="black" stroke="black" points="400.48,-1071.5 410.48,-1068 400.48,-1064.5 400.48,-1071.5"/>
</g>
<!-- n69 -->
<g id="node69" class="node">
<title>n69</title>
<path fill="white" stroke="black" d="M251.75,-1032C251.75,-1032 65.5,-1032 65.5,-1032 59.5,-1032 53.5,-1026 53.5,-1020 53.5,-1020 53.5,-1008 53.5,-1008 53.5,-1002 59.5,-996 65.5,-996 65.5,-996 251.75,-996 251.75,-996 257.75,-996 263.75,-1002 263.75,-1008 263.75,-1008 263.75,-1020 263.75,-1020 263.75,-1026 257.75,-1032 251.75,-1032"/>
<text xml:space="preserve" text-anchor="middle" x="158.62" y="-1008.95" font-family="Times New Roman,serif" font-size="14.00">.github/workflows/ci_reuse_go.yml</text>
</g>
<!-- n69&#45;&gt;n12 -->
<g id="edge7" class="edge">
<title>n69&#45;&gt;n12</title>
<path fill="none" stroke="black" d="M264.11,-1014.4C281.38,-1019.22 297.46,-1027.47 309.25,-1041 344.75,-1081.75 293.96,-1486.07 329.25,-1527 351.85,-1553.21 391.37,-1558.96 422.89,-1558.72"/>
<polygon fill="black" stroke="black" points="422.69,-1562.23 432.59,-1558.43 422.49,-1555.23 422.69,-1562.23"/>
</g>
<!-- n69&#45;&gt;n15 -->
<g id="edge6" class="edge">
<title>n69&#45;&gt;n15</title>
<path fill="none" stroke="black" d="M264.05,-1032.13C308.95,-1039.93 360.25,-1048.84 400.5,-1055.82"/>
<polygon fill="black" stroke="black" points="399.86,-1059.27 410.32,-1057.53 401.06,-1052.37 399.86,-1059.27"/>
</g>
<!-- n69&#45;&gt;n16 -->
<g id="edge10" class="edge">
<title>n69&#45;&gt;n16</title>
<path fill="none" stroke="black" d="M264.02,-1009.53C280.47,-1004.96 296.3,-997.85 309.25,-987 328.87,-970.57 309.71,-949.53 329.25,-933 343.53,-920.91 361.56,-913.58 379.91,-909.27"/>
<polygon fill="black" stroke="black" points="380.45,-912.73 389.55,-907.31 379.06,-905.87 380.45,-912.73"/>
</g>
<!-- n69&#45;&gt;n23 -->
<g id="edge11" class="edge">
<title>n69&#45;&gt;n23</title>
<path fill="none" stroke="black" d="M264.05,-995.87C312.12,-987.52 367.51,-977.9 408.82,-970.73"/>
<polygon fill="black" stroke="black" points="409.34,-974.19 418.6,-969.03 408.14,-967.3 409.34,-974.19"/>
</g>
<!-- n69&#45;&gt;n31 -->
<g id="edge8" class="edge">
<title>n69&#45;&gt;n31</title>
<path fill="none" stroke="black" d="M264.02,-1018.47C280.47,-1023.04 296.3,-1030.15 309.25,-1041 328.87,-1057.43 309.71,-1078.47 329.25,-1095 344.55,-1107.95 364.14,-1115.43 383.83,-1119.61"/>
<polygon fill="black" stroke="black" points="383.12,-1123.04 393.58,-1121.38 384.37,-1116.15 383.12,-1123.04"/>
</g>
<!-- n69&#45;&gt;n32 -->
<g id="edge9" class="edge">
<title>n69&#45;&gt;n32</title>
<path fill="none" stroke="black" d="M264.14,-1016.23C280.98,-1020.96 296.9,-1028.71 309.25,-1041 343.85,-1075.44 294.83,-1114.39 329.25,-1149 340.77,-1160.59 355.64,-1168.02 371.38,-1172.66"/>
<polygon fill="black" stroke="black" points="370.37,-1176.01 380.93,-1175.07 372.09,-1169.23 370.37,-1176.01"/>
</g>
<!-- n70 -->
<g id="node70" class="node">
<title>n70</title>
<path fill="white" stroke="black" d="M263.75,-870C263.75,-870 53.5,-870 53.5,-870 47.5,-870 41.5,-864 41.5,-858 41.5,-858 41.5,-846 41.5,-846 41.5,-840 47.5,-834 53.5,-834 53.5,-834 263.75,-834 263.75,-834 269.75,-834 275.75,-840 275.75,-846 275.75,-846 275.75,-858 275.75,-858 275.75,-864 269.75,-870 263.75,-870"/>
<text xml:space="preserve" text-anchor="middle" x="158.62" y="-846.95" font-family="Times New Roman,serif" font-size="14.00">.github/workflows/ci_reuse_go_cas.yml</text>
</g>
<!-- n70&#45;&gt;n12 -->
<g id="edge13" class="edge">
<title>n70&#45;&gt;n12</title>
<path fill="none" stroke="black" d="M276.16,-856.31C288.79,-861.32 300.29,-868.6 309.25,-879 356.29,-933.55 282.49,-1472.21 329.25,-1527 351.71,-1553.32 391.25,-1559.07 422.81,-1558.79"/>
<polygon fill="black" stroke="black" points="422.63,-1562.3 432.52,-1558.5 422.41,-1555.31 422.63,-1562.3"/>
</g>
<!-- n70&#45;&gt;n15 -->
<g id="edge12" class="edge">
<title>n70&#45;&gt;n15</title>
<path fill="none" stroke="black" d="M276.01,-857.4C288.5,-862.26 300,-869.22 309.25,-879 359.1,-931.71 279.67,-988.04 329.25,-1041 347.4,-1060.39 374.84,-1068.33 400.74,-1070.99"/>
<polygon fill="black" stroke="black" points="400.35,-1074.47 410.59,-1071.73 400.88,-1067.49 400.35,-1074.47"/>
</g>
<!-- n70&#45;&gt;n16 -->
<g id="edge14" class="edge">
<title>n70&#45;&gt;n16</title>
<path fill="none" stroke="black" d="M265.78,-870.43C302.94,-876.88 344.29,-884.06 380.05,-890.27"/>
<polygon fill="black" stroke="black" points="379.02,-893.65 389.47,-891.91 380.22,-886.75 379.02,-893.65"/>
</g>
<!-- n70&#45;&gt;n23 -->
<g id="edge15" class="edge">
<title>n70&#45;&gt;n23</title>
<path fill="none" stroke="black" d="M276.21,-860.39C288.21,-864.83 299.54,-870.86 309.25,-879 328.87,-895.43 309.71,-916.47 329.25,-933 351.11,-951.5 381.74,-958.85 408.9,-961.32"/>
<polygon fill="black" stroke="black" points="408.57,-964.81 418.78,-962 409.05,-957.82 408.57,-964.81"/>
</g>
<!-- n71 -->
<g id="node71" class="node">
<title>n71</title>
<path fill="white" stroke="black" d="M281,-924C281,-924 36.25,-924 36.25,-924 30.25,-924 24.25,-918 24.25,-912 24.25,-912 24.25,-900 24.25,-900 24.25,-894 30.25,-888 36.25,-888 36.25,-888 281,-888 281,-888 287,-888 293,-894 293,-900 293,-900 293,-912 293,-912 293,-918 287,-924 281,-924"/>
<text xml:space="preserve" text-anchor="middle" x="158.62" y="-900.95" font-family="Times New Roman,serif" font-size="14.00">.github/workflows/ci_reuse_go_norebuild.yml</text>
</g>
<!-- n71&#45;&gt;n12 -->
<g id="edge17" class="edge">
<title>n71&#45;&gt;n12</title>
<path fill="none" stroke="black" d="M293.42,-919.22C299.25,-923.05 304.59,-927.61 309.25,-933 352.44,-982.95 286.31,-1476.83 329.25,-1527 351.75,-1553.29 391.28,-1559.04 422.83,-1558.77"/>
<polygon fill="black" stroke="black" points="422.65,-1562.28 432.54,-1558.48 422.43,-1555.29 422.65,-1562.28"/>
</g>
<!-- n71&#45;&gt;n15 -->
<g id="edge16" class="edge">
<title>n71&#45;&gt;n15</title>
<path fill="none" stroke="black" d="M293.49,-920.7C299.17,-924.18 304.48,-928.25 309.25,-933 343.85,-967.44 294.83,-1006.39 329.25,-1041 347.82,-1059.68 375.07,-1067.55 400.69,-1070.35"/>
<polygon fill="black" stroke="black" points="400.17,-1073.82 410.42,-1071.16 400.75,-1066.84 400.17,-1073.82"/>
</g>
<!-- n71&#45;&gt;n16 -->
<g id="edge18" class="edge">
<title>n71&#45;&gt;n16</title>
<path fill="none" stroke="black" d="M293.32,-906C322.42,-906 352.56,-906 379.55,-906"/>
<polygon fill="black" stroke="black" points="379.4,-909.5 389.4,-906 379.4,-902.5 379.4,-909.5"/>
</g>
<!-- n71&#45;&gt;n23 -->
<g id="edge19" class="edge">
<title>n71&#45;&gt;n23</title>
<path fill="none" stroke="black" d="M265.78,-924.43C313.55,-932.73 368.26,-942.23 409.11,-949.32"/>
<polygon fill="black" stroke="black" points="408.3,-952.73 418.75,-950.99 409.5,-945.83 408.3,-952.73"/>
</g>
<!-- n72 -->
<g id="node72" class="node">
<title>n72</title>
<path fill="white" stroke="black" d="M260.38,-978C260.38,-978 56.88,-978 56.88,-978 50.88,-978 44.88,-972 44.88,-966 44.88,-966 44.88,-954 44.88,-954 44.88,-948 50.88,-942 56.88,-942 56.88,-942 260.38,-942 260.38,-942 266.38,-942 272.38,-948 272.38,-954 272.38,-954 272.38,-966 272.38,-966 272.38,-972 266.38,-978 260.38,-978"/>
<text xml:space="preserve" text-anchor="middle" x="158.62" y="-954.95" font-family="Times New Roman,serif" font-size="14.00">.github/workflows/ci_reuse_go_pr.yml</text>
</g>
<!-- n72&#45;&gt;n12 -->
<g id="edge22" class="edge">
<title>n72&#45;&gt;n12</title>
<path fill="none" stroke="black" d="M272.8,-963.11C286.73,-968.13 299.48,-975.74 309.25,-987 348.6,-1032.35 290.13,-1481.45 329.25,-1527 351.8,-1553.25 391.32,-1559 422.86,-1558.75"/>
<polygon fill="black" stroke="black" points="422.67,-1562.26 432.56,-1558.46 422.46,-1555.26 422.67,-1562.26"/>
</g>
<!-- n72&#45;&gt;n14 -->
<g id="edge21" class="edge">
<title>n72&#45;&gt;n14</title>
<path fill="none" stroke="black" d="M265.78,-978.43C303.58,-985 345.71,-992.31 381.89,-998.59"/>
<polygon fill="black" stroke="black" points="380.97,-1001.99 391.42,-1000.25 382.17,-995.09 380.97,-1001.99"/>
</g>
<!-- n72&#45;&gt;n15 -->
<g id="edge20" class="edge">
<title>n72&#45;&gt;n15</title>
<path fill="none" stroke="black" d="M272.81,-967.19C286.07,-971.72 298.63,-978.1 309.25,-987 328.87,-1003.43 309.71,-1024.47 329.25,-1041 348.93,-1057.66 375.72,-1065.27 400.68,-1068.43"/>
<polygon fill="black" stroke="black" points="400.19,-1071.9 410.49,-1069.43 400.9,-1064.93 400.19,-1071.9"/>
</g>
<!-- n72&#45;&gt;n16 -->
<g id="edge24" class="edge">
<title>n72&#45;&gt;n16</title>
<path fill="none" stroke="black" d="M265.78,-941.57C302.94,-935.12 344.29,-927.94 380.05,-921.73"/>
<polygon fill="black" stroke="black" points="380.22,-925.25 389.47,-920.09 379.02,-918.35 380.22,-925.25"/>
</g>
<!-- n72&#45;&gt;n23 -->
<g id="edge25" class="edge">
<title>n72&#45;&gt;n23</title>
<path fill="none" stroke="black" d="M272.78,-960C318.78,-960 370.13,-960 408.99,-960"/>
<polygon fill="black" stroke="black" points="408.6,-963.5 418.6,-960 408.6,-956.5 408.6,-963.5"/>
</g>
<!-- n72&#45;&gt;n31 -->
<g id="edge23" class="edge">
<title>n72&#45;&gt;n31</title>
<path fill="none" stroke="black" d="M272.84,-964.99C286.42,-969.8 299.05,-976.85 309.25,-987 343.85,-1021.44 294.83,-1060.39 329.25,-1095 343.74,-1109.58 363.52,-1117.57 383.69,-1121.71"/>
<polygon fill="black" stroke="black" points="382.97,-1125.14 393.41,-1123.38 384.15,-1118.24 382.97,-1125.14"/>
</g>
<!-- n73 -->
<g id="node73" class="node">
<title>n73</title>
<path fill="white" stroke="black" d="M225.5,-762C225.5,-762 91.75,-762 91.75,-762 85.75,-762 79.75,-756 79.75,-750 79.75,-750 79.75,-738 79.75,-738 79.75,-732 85.75,-726 91.75,-726 91.75,-726 225.5,-726 225.5,-726 231.5,-726 237.5,-732 237.5,-738 237.5,-738 237.5,-750 237.5,-750 237.5,-756 231.5,-762 225.5,-762"/>
<text xml:space="preserve" text-anchor="middle" x="158.62" y="-738.95" font-family="Times New Roman,serif" font-size="14.00">.github/workflows/cp.yml</text>
</g>
<!-- n73&#45;&gt;n13 -->
<g id="edge26" class="edge">
<title>n73&#45;&gt;n13</title>
<path fill="none" stroke="black" d="M237.7,-738.06C279.5,-737.11 331.31,-737 375.45,-737.72"/>
<polygon fill="black" stroke="black" points="375.21,-741.22 385.27,-737.9 375.34,-734.22 375.21,-741.22"/>
</g>
<!-- n73&#45;&gt;n13 -->
<g id="edge29" class="edge">
<title>n73&#45;&gt;n13</title>
<path fill="none" stroke="black" d="M237.7,-749.94C279.5,-750.89 331.31,-751 375.45,-750.28"/>
<polygon fill="black" stroke="black" points="375.34,-753.78 385.27,-750.1 375.21,-746.78 375.34,-753.78"/>
</g>
<!-- n73&#45;&gt;n17 -->
<g id="edge28" class="edge">
<title>n73&#45;&gt;n17</title>
<path fill="none" stroke="black" d="M237.7,-757.56C285.84,-765.92 347.27,-776.58 394.96,-784.86"/>
<polygon fill="black" stroke="black" points="394.21,-788.28 404.66,-786.55 395.41,-781.39 394.21,-788.28"/>
</g>
<!-- n73&#45;&gt;n18 -->
<g id="edge27" class="edge">
<title>n73&#45;&gt;n18</title>
<path fill="none" stroke="black" d="M237.7,-730.44C294.29,-720.62 369.24,-707.6 418.65,-699.02"/>
<polygon fill="black" stroke="black" points="418.96,-702.52 428.22,-697.36 417.77,-695.63 418.96,-702.52"/>
</g>
<!-- n74 -->
<g id="node74" class="node">
<title>n74</title>
<path fill="white" stroke="black" d="M252.12,-708C252.12,-708 65.12,-708 65.12,-708 59.12,-708 53.12,-702 53.12,-696 53.12,-696 53.12,-684 53.12,-684 53.12,-678 59.12,-672 65.12,-672 65.12,-672 252.12,-672 252.12,-672 258.12,-672 264.12,-678 264.12,-684 264.12,-684 264.12,-696 264.12,-696 264.12,-702 258.12,-708 252.12,-708"/>
<text xml:space="preserve" text-anchor="middle" x="158.62" y="-684.95" font-family="Times New Roman,serif" font-size="14.00">.github/workflows/create_issue.yml</text>
</g>
<!-- n74&#45;&gt;n19 -->
<g id="edge30" class="edge">
<title>n74&#45;&gt;n19</title>
<path fill="none" stroke="black" d="M264.48,-671.79C307.33,-664.35 355.95,-655.91 395.2,-649.1"/>
<polygon fill="black" stroke="black" points="395.79,-652.55 405.04,-647.39 394.59,-645.65 395.79,-652.55"/>
</g>
<!-- n75 -->
<g id="node75" class="node">
<title>n75</title>
<path fill="white" stroke="black" d="M224.38,-816C224.38,-816 92.88,-816 92.88,-816 86.88,-816 80.88,-810 80.88,-804 80.88,-804 80.88,-792 80.88,-792 80.88,-786 86.88,-780 92.88,-780 92.88,-780 224.38,-780 224.38,-780 230.38,-780 236.38,-786 236.38,-792 236.38,-792 236.38,-804 236.38,-804 236.38,-810 230.38,-816 224.38,-816"/>
<text xml:space="preserve" text-anchor="middle" x="158.62" y="-792.95" font-family="Times New Roman,serif" font-size="14.00">.github/workflows/rc.yml</text>
</g>
<!-- n75&#45;&gt;n13 -->
<g id="edge31" class="edge">
<title>n75&#45;&gt;n13</title>
<path fill="none" stroke="black" d="M232.54,-779.52C275.25,-771.04 329.67,-761.44 375.69,-754.21"/>
<polygon fill="black" stroke="black" points="376.06,-757.7 385.4,-752.7 374.98,-750.78 376.06,-757.7"/>
</g>
<!-- n75&#45;&gt;n13 -->
<g id="edge34" class="edge">
<title>n75&#45;&gt;n13</title>
<path fill="none" stroke="black" d="M236.5,-790.57C282.13,-783.7 340.01,-773.7 386.81,-764.62"/>
<polygon fill="black" stroke="black" points="387.21,-768.11 396.35,-762.75 385.87,-761.24 387.21,-768.11"/>
</g>
<!-- n75&#45;&gt;n17 -->
<g id="edge33" class="edge">
<title>n75&#45;&gt;n17</title>
<path fill="none" stroke="black" d="M236.5,-798C284.79,-798 346.82,-798 394.89,-798"/>
<polygon fill="black" stroke="black" points="394.65,-801.5 404.65,-798 394.65,-794.5 394.65,-801.5"/>
</g>
<!-- n75&#45;&gt;n28 -->
<g id="edge32" class="edge">
<title>n75&#45;&gt;n28</title>
<path fill="none" stroke="black" d="M236.5,-811.35C293.57,-821.26 369.82,-834.5 419.56,-843.13"/>
<polygon fill="black" stroke="black" points="418.74,-846.54 429.19,-844.8 419.93,-839.65 418.74,-846.54"/>
</g>
<!-- n76 -->
<g id="node76" class="node">
<title>n76</title>
<path fill="white" stroke="black" d="M242.75,-623C242.75,-623 74.5,-623 74.5,-623 68.5,-623 62.5,-617 62.5,-611 62.5,-611 62.5,-599 62.5,-599 62.5,-593 68.5,-587 74.5,-587 74.5,-587 242.75,-587 242.75,-587 248.75,-587 254.75,-593 254.75,-599 254.75,-599 254.75,-611 254.75,-611 254.75,-617 248.75,-623 242.75,-623"/>
<text xml:space="preserve" text-anchor="middle" x="158.62" y="-599.95" font-family="Times New Roman,serif" font-size="14.00">.github/workflows/short_go.yml</text>
</g>
<!-- n76&#45;&gt;n7 -->
<g id="edge54" class="edge">
<title>n76&#45;&gt;n7</title>
<path fill="none" stroke="black" d="M255.05,-597.94C277.4,-596.29 301.71,-594.49 325.68,-592.72"/>
<polygon fill="black" stroke="black" points="325.81,-596.22 335.52,-591.99 325.29,-589.24 325.81,-596.22"/>
</g>
<!-- n77 -->
<g id="node77" class="node">
<title>n77</title>
<path fill="white" stroke="black" d="M235.62,-376C235.62,-376 81.62,-376 81.62,-376 75.62,-376 69.62,-370 69.62,-364 69.62,-364 69.62,-352 69.62,-352 69.62,-346 75.62,-340 81.62,-340 81.62,-340 235.62,-340 235.62,-340 241.62,-340 247.62,-346 247.62,-352 247.62,-352 247.62,-364 247.62,-364 247.62,-370 241.62,-376 235.62,-376"/>
<text xml:space="preserve" text-anchor="middle" x="158.62" y="-352.95" font-family="Times New Roman,serif" font-size="14.00">.github/workflows/ci&#45;full.yml</text>
</g>
<!-- n77&#45;&gt;n5 -->
<g id="edge69" class="edge">
<title>n77&#45;&gt;n5</title>
<path fill="none" stroke="black" d="M248.11,-358.27C270.19,-362.29 292.36,-370.23 309.25,-385 331.04,-404.06 307.55,-427.83 329.25,-447 337.02,-453.87 345.98,-459.21 355.55,-463.36"/>
<polygon fill="black" stroke="black" points="354.14,-466.57 364.73,-466.86 356.63,-460.03 354.14,-466.57"/>
</g>
<!-- n77&#45;&gt;n10 -->
<g id="edge70" class="edge">
<title>n77&#45;&gt;n10</title>
<path fill="none" stroke="black" d="M248.01,-356.45C270.61,-360.36 293.07,-368.7 309.25,-385 346.1,-422.14 292.59,-463.68 329.25,-501 336.79,-508.67 345.79,-514.53 355.54,-518.96"/>
<polygon fill="black" stroke="black" points="353.96,-522.1 364.55,-522.53 356.54,-515.59 353.96,-522.1"/>
</g>
<!-- n78 -->
<g id="node78" class="node">
<title>n78</title>
<path fill="white" stroke="black" d="M250.62,-322C250.62,-322 66.62,-322 66.62,-322 60.62,-322 54.62,-316 54.62,-310 54.62,-310 54.62,-298 54.62,-298 54.62,-292 60.62,-286 66.62,-286 66.62,-286 250.62,-286 250.62,-286 256.62,-286 262.62,-292 262.62,-298 262.62,-298 262.62,-310 262.62,-310 262.62,-316 256.62,-322 250.62,-322"/>
<text xml:space="preserve" text-anchor="middle" x="158.62" y="-298.95" font-family="Times New Roman,serif" font-size="14.00">.github/workflows/ci&#45;pkg&#45;cmd.yml</text>
</g>
<!-- n78&#45;&gt;n5 -->
<g id="edge71" class="edge">
<title>n78&#45;&gt;n5</title>
<path fill="none" stroke="black" d="M263.12,-305.79C280.37,-310.5 296.7,-318.35 309.25,-331 346.1,-368.14 292.59,-409.68 329.25,-447 336.85,-454.74 345.94,-460.63 355.8,-465.08"/>
<polygon fill="black" stroke="black" points="354.32,-468.26 364.9,-468.65 356.87,-461.74 354.32,-468.26"/>
</g>
<!-- n79 -->
<g id="node79" class="node">
<title>n79</title>
<path fill="white" stroke="black" d="M259.25,-106C259.25,-106 58,-106 58,-106 52,-106 46,-100 46,-94 46,-94 46,-82 46,-82 46,-76 52,-70 58,-70 58,-70 259.25,-70 259.25,-70 265.25,-70 271.25,-76 271.25,-82 271.25,-82 271.25,-94 271.25,-94 271.25,-100 265.25,-106 259.25,-106"/>
<text xml:space="preserve" text-anchor="middle" x="158.62" y="-82.95" font-family="Times New Roman,serif" font-size="14.00">.github/workflows/ci&#45;pkg&#45;cmd_pr.yml</text>
</g>
<!-- n79&#45;&gt;n8 -->
<g id="edge72" class="edge">
<title>n79&#45;&gt;n8</title>
<path fill="none" stroke="black" d="M271.46,-92.35C285.59,-97.18 298.75,-104.41 309.25,-115 346.1,-152.14 292.59,-193.68 329.25,-231 334.66,-236.51 340.83,-241.08 347.49,-244.86"/>
<polygon fill="black" stroke="black" points="345.69,-247.88 356.21,-249.18 348.8,-241.61 345.69,-247.88"/>
</g>
<!-- n80 -->
<g id="node80" class="node">
<title>n80</title>
<path fill="white" stroke="black" d="M254,-214C254,-214 63.25,-214 63.25,-214 57.25,-214 51.25,-208 51.25,-202 51.25,-202 51.25,-190 51.25,-190 51.25,-184 57.25,-178 63.25,-178 63.25,-178 254,-178 254,-178 260,-178 266,-184 266,-190 266,-190 266,-202 266,-202 266,-208 260,-214 254,-214"/>
<text xml:space="preserve" text-anchor="middle" x="158.62" y="-190.95" font-family="Times New Roman,serif" font-size="14.00">.github/workflows/ci&#45;vulncheck.yml</text>
</g>
<!-- n80&#45;&gt;n22 -->
<g id="edge73" class="edge">
<title>n80&#45;&gt;n22</title>
<path fill="none" stroke="black" d="M266.17,-198.66C282.29,-203.44 297.44,-211.1 309.25,-223 346.1,-260.14 292.59,-301.68 329.25,-339 345.95,-356.01 369.84,-364.09 393.23,-367.53"/>
<polygon fill="black" stroke="black" points="392.8,-371.01 403.14,-368.7 393.62,-364.05 392.8,-371.01"/>
</g>
<!-- n81 -->
<g id="node81" class="node">
<title>n81</title>
<path fill="white" stroke="black" d="M248.75,-430C248.75,-430 68.5,-430 68.5,-430 62.5,-430 56.5,-424 56.5,-418 56.5,-418 56.5,-406 56.5,-406 56.5,-400 62.5,-394 68.5,-394 68.5,-394 248.75,-394 248.75,-394 254.75,-394 260.75,-400 260.75,-406 260.75,-406 260.75,-418 260.75,-418 260.75,-424 254.75,-430 248.75,-430"/>
<text xml:space="preserve" text-anchor="middle" x="158.62" y="-406.95" font-family="Times New Roman,serif" font-size="14.00">.github/workflows/ci_amazon.yml</text>
</g>
<!-- n81&#45;&gt;n10 -->
<g id="edge74" class="edge">
<title>n81&#45;&gt;n10</title>
<path fill="none" stroke="black" d="M260.94,-415.08C278.6,-419.63 295.64,-427.1 309.25,-439 331.04,-458.06 307.55,-481.83 329.25,-501 336.95,-507.8 345.83,-513.12 355.3,-517.25"/>
<polygon fill="black" stroke="black" points="353.78,-520.42 364.37,-520.73 356.29,-513.88 353.78,-520.42"/>
</g>
<!-- n82 -->
<g id="node82" class="node">
<title>n82</title>
<path fill="white" stroke="black" d="M236,-484C236,-484 81.25,-484 81.25,-484 75.25,-484 69.25,-478 69.25,-472 69.25,-472 69.25,-460 69.25,-460 69.25,-454 75.25,-448 81.25,-448 81.25,-448 236,-448 236,-448 242,-448 248,-454 248,-460 248,-460 248,-472 248,-472 248,-478 242,-484 236,-484"/>
<text xml:space="preserve" text-anchor="middle" x="158.62" y="-460.95" font-family="Times New Roman,serif" font-size="14.00">.github/workflows/ci_cas.yml</text>
</g>
<!-- n82&#45;&gt;n10 -->
<g id="edge75" class="edge">
<title>n82&#45;&gt;n10</title>
<path fill="none" stroke="black" d="M248.13,-478.92C268.39,-482.72 289.71,-487.39 309.25,-493 318.45,-495.64 320.06,-498.31 329.25,-501 337.51,-503.42 346.11,-505.67 354.81,-507.77"/>
<polygon fill="black" stroke="black" points="353.85,-511.14 364.38,-509.99 355.43,-504.32 353.85,-511.14"/>
</g>
<!-- n83 -->
<g id="node83" class="node">
<title>n83</title>
<path fill="white" stroke="black" d="M225.5,-538C225.5,-538 91.75,-538 91.75,-538 85.75,-538 79.75,-532 79.75,-526 79.75,-526 79.75,-514 79.75,-514 79.75,-508 85.75,-502 91.75,-502 91.75,-502 225.5,-502 225.5,-502 231.5,-502 237.5,-508 237.5,-514 237.5,-514 237.5,-526 237.5,-526 237.5,-532 231.5,-538 225.5,-538"/>
<text xml:space="preserve" text-anchor="middle" x="158.62" y="-514.95" font-family="Times New Roman,serif" font-size="14.00">.github/workflows/cp.yml</text>
</g>
<!-- n83&#45;&gt;n9 -->
<g id="edge76" class="edge">
<title>n83&#45;&gt;n9</title>
<path fill="none" stroke="black" d="M237.98,-530.45C265.01,-538.2 292.65,-551.66 309.25,-575 345.13,-625.44 289.37,-1641.66 329.25,-1689 342.36,-1704.56 361.43,-1712.95 381.34,-1717.17"/>
<polygon fill="black" stroke="black" points="380.52,-1720.58 390.97,-1718.84 381.72,-1713.68 380.52,-1720.58"/>
</g>
<!-- n84 -->
<g id="node84" class="node">
<title>n84</title>
<path fill="white" stroke="black" d="M243.5,-268C243.5,-268 73.75,-268 73.75,-268 67.75,-268 61.75,-262 61.75,-256 61.75,-256 61.75,-244 61.75,-244 61.75,-238 67.75,-232 73.75,-232 73.75,-232 243.5,-232 243.5,-232 249.5,-232 255.5,-238 255.5,-244 255.5,-244 255.5,-256 255.5,-256 255.5,-262 249.5,-268 243.5,-268"/>
<text xml:space="preserve" text-anchor="middle" x="158.62" y="-244.95" font-family="Times New Roman,serif" font-size="14.00">.github/workflows/linkIssue.yml</text>
</g>
<!-- n84&#45;&gt;n26 -->
<g id="edge77" class="edge">
<title>n84&#45;&gt;n26</title>
<path fill="none" stroke="black" d="M255.79,-249.98C275.69,-254.38 294.93,-262.57 309.25,-277 346.1,-314.14 292.59,-355.68 329.25,-393 344.61,-408.64 366.04,-416.73 387.58,-420.61"/>
<polygon fill="black" stroke="black" points="386.92,-424.05 397.32,-422.05 387.94,-417.12 386.92,-424.05"/>
</g>
<!-- n85 -->
<g id="node85" class="node">
<title>n85</title>
<path fill="white" stroke="black" d="M236.38,-160C236.38,-160 80.88,-160 80.88,-160 74.88,-160 68.88,-154 68.88,-148 68.88,-148 68.88,-136 68.88,-136 68.88,-130 74.88,-124 80.88,-124 80.88,-124 236.38,-124 236.38,-124 242.38,-124 248.38,-130 248.38,-136 248.38,-136 248.38,-148 248.38,-148 248.38,-154 242.38,-160 236.38,-160"/>
<text xml:space="preserve" text-anchor="middle" x="158.62" y="-136.95" font-family="Times New Roman,serif" font-size="14.00">.github/workflows/merge.yml</text>
</g>
<!-- n85&#45;&gt;n21 -->
<g id="edge78" class="edge">
<title>n85&#45;&gt;n21</title>
<path fill="none" stroke="black" d="M248.79,-140.59C271.13,-144.55 293.26,-152.89 309.25,-169 346.1,-206.14 292.59,-247.68 329.25,-285 346.48,-302.54 371.36,-310.59 395.45,-313.85"/>
<polygon fill="black" stroke="black" points="394.99,-317.32 405.31,-314.89 395.73,-310.36 394.99,-317.32"/>
</g>
<!-- n86 -->
<g id="node86" class="node">
<title>n86</title>
<path fill="white" stroke="black" d="M250.25,-52C250.25,-52 67,-52 67,-52 61,-52 55,-46 55,-40 55,-40 55,-28 55,-28 55,-22 61,-16 67,-16 67,-16 250.25,-16 250.25,-16 256.25,-16 262.25,-22 262.25,-28 262.25,-28 262.25,-40 262.25,-40 262.25,-46 256.25,-52 250.25,-52"/>
<text xml:space="preserve" text-anchor="middle" x="158.62" y="-28.95" font-family="Times New Roman,serif" font-size="14.00">.github/workflows/unlinkIssue.yml</text>
</g>
<!-- n86&#45;&gt;n33 -->
<g id="edge79" class="edge">
<title>n86&#45;&gt;n33</title>
<path fill="none" stroke="black" d="M262.73,-35.68C280.12,-40.38 296.61,-48.26 309.25,-61 346.1,-98.14 292.59,-139.68 329.25,-177 343.07,-191.07 361.82,-199.03 381.13,-203.32"/>
<polygon fill="black" stroke="black" points="380.25,-206.71 390.72,-205.1 381.53,-199.83 380.25,-206.71"/>
</g>
</g>
</svg>
