<?xml version="1.0" encoding="UTF-8" standalone="no"?>
<!DOCTYPE svg PUBLIC "-//W3C//DTD SVG 1.1//EN"
 "http://www.w3.org/Graphics/SVG/1.1/DTD/svg11.dtd">
<!-- Generated by graphviz version 12.2.1 (20241206.2353)
 -->
<!-- Title: CIActionUsage Pages: 1 -->
<svg width="630pt" height="3134pt"
 viewBox="0.00 0.00 630.00 3134.00" xmlns="http://www.w3.org/2000/svg" xmlns:xlink="http://www.w3.org/1999/xlink">
<g id="graph0" class="graph" transform="scale(1 1) rotate(0) translate(4 3130)">
<title>CIActionUsage</title>
<polygon fill="white" stroke="none" points="-4,4 -4,-3130 626,-3130 626,4 -4,4"/>
<g id="clust1" class="cluster">
<title>cluster_ci_action</title>
<polygon fill="lightblue" stroke="lightblue" points="329.25,-1097 329.25,-3118 614,-3118 614,-1097 329.25,-1097"/>
<text text-anchor="middle" x="471.62" y="-3100.7" font-family="Times New Roman,serif" font-size="14.00">ci&#45;action repository</text>
</g>
<g id="clust2" class="cluster">
<title>cluster_repo_1</title>
<polygon fill="lightgreen" stroke="lightgreen" points="38,-2447 38,-3010 279.25,-3010 279.25,-2447 38,-2447"/>
<text text-anchor="middle" x="158.62" y="-2992.7" font-family="Times New Roman,serif" font-size="14.00">voedger</text>
</g>
<g id="clust3" class="cluster">
<title>cluster_repo_2</title>
<polygon fill="lightgreen" stroke="lightgreen" points="54.5,-2362 54.5,-2439 262.75,-2439 262.75,-2362 54.5,-2362"/>
<text text-anchor="middle" x="158.62" y="-2421.7" font-family="Times New Roman,serif" font-size="14.00">airs&#45;scheme</text>
</g>
<g id="clust4" class="cluster">
<title>cluster_repo_3</title>
<polygon fill="lightgreen" stroke="lightgreen" points="16.25,-1845 16.25,-2354 301,-2354 301,-1845 16.25,-1845"/>
<text text-anchor="middle" x="158.62" y="-2336.7" font-family="Times New Roman,serif" font-size="14.00">ci&#45;action</text>
</g>
<g id="clust5" class="cluster">
<title>cluster_repo_4</title>
<polygon fill="lightgreen" stroke="lightgreen" points="8,-1274 8,-1837 309.25,-1837 309.25,-1274 8,-1274"/>
<text text-anchor="middle" x="158.62" y="-1819.7" font-family="Times New Roman,serif" font-size="14.00">airs&#45;bp3</text>
</g>
<g id="clust6" class="cluster">
<title>cluster_repo_5</title>
<polygon fill="lightgreen" stroke="lightgreen" points="38,-919 38,-1266 279.25,-1266 279.25,-919 38,-919"/>
<text text-anchor="middle" x="158.62" y="-1248.7" font-family="Times New Roman,serif" font-size="14.00">airc&#45;backoffice2</text>
</g>
<g id="clust7" class="cluster">
<title>cluster_repo_6</title>
<polygon fill="lightgreen" stroke="lightgreen" points="38,-348 38,-911 279.25,-911 279.25,-348 38,-348"/>
<text text-anchor="middle" x="158.62" y="-893.7" font-family="Times New Roman,serif" font-size="14.00">web&#45;portals</text>
</g>
<g id="clust8" class="cluster">
<title>cluster_repo_7</title>
<polygon fill="lightgreen" stroke="lightgreen" points="70.12,-263 70.12,-340 248.12,-340 248.12,-263 70.12,-263"/>
<text text-anchor="middle" x="159.12" y="-322.7" font-family="Times New Roman,serif" font-size="14.00">airs&#45;template&#45;implementation</text>
</g>
<g id="clust9" class="cluster">
<title>cluster_repo_8</title>
<polygon fill="lightgreen" stroke="lightgreen" points="71.38,-178 71.38,-255 245.88,-255 245.88,-178 71.38,-178"/>
<text text-anchor="middle" x="158.62" y="-237.7" font-family="Times New Roman,serif" font-size="14.00">dynobuffers</text>
</g>
<g id="clust10" class="cluster">
<title>cluster_repo_9</title>
<polygon fill="lightgreen" stroke="lightgreen" points="54.5,-93 54.5,-170 262.75,-170 262.75,-93 54.5,-93"/>
<text text-anchor="middle" x="158.62" y="-152.7" font-family="Times New Roman,serif" font-size="14.00">airc&#45;ticket&#45;layouts</text>
</g>
<g id="clust11" class="cluster">
<title>cluster_repo_10</title>
<polygon fill="lightgreen" stroke="lightgreen" points="71.75,-8 71.75,-85 245.5,-85 245.5,-8 71.75,-8"/>
<text text-anchor="middle" x="158.62" y="-67.7" font-family="Times New Roman,serif" font-size="14.00">airc&#45;web&#45;pos</text>
</g>
<!-- n1 -->
<g id="node1" class="node">
<title>n1</title>
<path fill="lightcoral" stroke="red" d="M571.12,-1141C571.12,-1141 372.12,-1141 372.12,-1141 366.12,-1141 360.12,-1135 360.12,-1129 360.12,-1129 360.12,-1117 360.12,-1117 360.12,-1111 366.12,-1105 372.12,-1105 372.12,-1105 571.12,-1105 571.12,-1105 577.12,-1105 583.12,-1111 583.12,-1117 583.12,-1117 583.12,-1129 583.12,-1129 583.12,-1135 577.12,-1141 571.12,-1141"/>
<text text-anchor="middle" x="471.62" y="-1117.95" font-family="Times New Roman,serif" font-size="14.00">.github/workflows/ci&#45;extrachecks.yml</text>
</g>
<!-- n2 -->
<g id="node2" class="node">
<title>n2</title>
<path fill="lightcoral" stroke="red" d="M537,-1195C537,-1195 406.25,-1195 406.25,-1195 400.25,-1195 394.25,-1189 394.25,-1183 394.25,-1183 394.25,-1171 394.25,-1171 394.25,-1165 400.25,-1159 406.25,-1159 406.25,-1159 537,-1159 537,-1159 543,-1159 549,-1165 549,-1171 549,-1171 549,-1183 549,-1183 549,-1189 543,-1195 537,-1195"/>
<text text-anchor="middle" x="471.62" y="-1171.95" font-family="Times New Roman,serif" font-size="14.00">.github/workflows/ci.yml</text>
</g>
<!-- n3 -->
<g id="node3" class="node">
<title>n3</title>
<path fill="lightyellow" stroke="black" d="M573,-2599C573,-2599 370.25,-2599 370.25,-2599 364.25,-2599 358.25,-2593 358.25,-2587 358.25,-2587 358.25,-2575 358.25,-2575 358.25,-2569 364.25,-2563 370.25,-2563 370.25,-2563 573,-2563 573,-2563 579,-2563 585,-2569 585,-2575 585,-2575 585,-2587 585,-2587 585,-2593 579,-2599 573,-2599"/>
<text text-anchor="middle" x="471.62" y="-2575.95" font-family="Times New Roman,serif" font-size="14.00">.github/workflows/ci_rebuild_bp3.yml</text>
</g>
<!-- n4 -->
<g id="node4" class="node">
<title>n4</title>
<path fill="lightyellow" stroke="black" d="M554.62,-1303C554.62,-1303 388.62,-1303 388.62,-1303 382.62,-1303 376.62,-1297 376.62,-1291 376.62,-1291 376.62,-1279 376.62,-1279 376.62,-1273 382.62,-1267 388.62,-1267 388.62,-1267 554.62,-1267 554.62,-1267 560.62,-1267 566.62,-1273 566.62,-1279 566.62,-1279 566.62,-1291 566.62,-1291 566.62,-1297 560.62,-1303 554.62,-1303"/>
<text text-anchor="middle" x="471.62" y="-1279.95" font-family="Times New Roman,serif" font-size="14.00">.github/workflows/ci_reuse.yml</text>
</g>
<!-- n5 -->
<g id="node5" class="node">
<title>n5</title>
<path fill="lightyellow" stroke="black" d="M564.75,-2707C564.75,-2707 378.5,-2707 378.5,-2707 372.5,-2707 366.5,-2701 366.5,-2695 366.5,-2695 366.5,-2683 366.5,-2683 366.5,-2677 372.5,-2671 378.5,-2671 378.5,-2671 564.75,-2671 564.75,-2671 570.75,-2671 576.75,-2677 576.75,-2683 576.75,-2683 576.75,-2695 576.75,-2695 576.75,-2701 570.75,-2707 564.75,-2707"/>
<text text-anchor="middle" x="471.62" y="-2683.95" font-family="Times New Roman,serif" font-size="14.00">.github/workflows/ci_reuse_go.yml</text>
</g>
<!-- n6 -->
<g id="node6" class="node">
<title>n6</title>
<path fill="lightyellow" stroke="black" d="M576.75,-1627C576.75,-1627 366.5,-1627 366.5,-1627 360.5,-1627 354.5,-1621 354.5,-1615 354.5,-1615 354.5,-1603 354.5,-1603 354.5,-1597 360.5,-1591 366.5,-1591 366.5,-1591 576.75,-1591 576.75,-1591 582.75,-1591 588.75,-1597 588.75,-1603 588.75,-1603 588.75,-1615 588.75,-1615 588.75,-1621 582.75,-1627 576.75,-1627"/>
<text text-anchor="middle" x="471.62" y="-1603.95" font-family="Times New Roman,serif" font-size="14.00">.github/workflows/ci_reuse_go_cas.yml</text>
</g>
<!-- n7 -->
<g id="node7" class="node">
<title>n7</title>
<path fill="lightyellow" stroke="black" d="M594,-1249C594,-1249 349.25,-1249 349.25,-1249 343.25,-1249 337.25,-1243 337.25,-1237 337.25,-1237 337.25,-1225 337.25,-1225 337.25,-1219 343.25,-1213 349.25,-1213 349.25,-1213 594,-1213 594,-1213 600,-1213 606,-1219 606,-1225 606,-1225 606,-1237 606,-1237 606,-1243 600,-1249 594,-1249"/>
<text text-anchor="middle" x="471.62" y="-1225.95" font-family="Times New Roman,serif" font-size="14.00">.github/workflows/ci_reuse_go_norebuild.yml</text>
</g>
<!-- n8 -->
<g id="node8" class="node">
<title>n8</title>
<path fill="lightyellow" stroke="black" d="M573.38,-2923C573.38,-2923 369.88,-2923 369.88,-2923 363.88,-2923 357.88,-2917 357.88,-2911 357.88,-2911 357.88,-2899 357.88,-2899 357.88,-2893 363.88,-2887 369.88,-2887 369.88,-2887 573.38,-2887 573.38,-2887 579.38,-2887 585.38,-2893 585.38,-2899 585.38,-2899 585.38,-2911 585.38,-2911 585.38,-2917 579.38,-2923 573.38,-2923"/>
<text text-anchor="middle" x="471.62" y="-2899.95" font-family="Times New Roman,serif" font-size="14.00">.github/workflows/ci_reuse_go_pr.yml</text>
</g>
<!-- n9 -->
<g id="node9" class="node">
<title>n9</title>
<path fill="lightyellow" stroke="black" d="M538.5,-1519C538.5,-1519 404.75,-1519 404.75,-1519 398.75,-1519 392.75,-1513 392.75,-1507 392.75,-1507 392.75,-1495 392.75,-1495 392.75,-1489 398.75,-1483 404.75,-1483 404.75,-1483 538.5,-1483 538.5,-1483 544.5,-1483 550.5,-1489 550.5,-1495 550.5,-1495 550.5,-1507 550.5,-1507 550.5,-1513 544.5,-1519 538.5,-1519"/>
<text text-anchor="middle" x="471.62" y="-1495.95" font-family="Times New Roman,serif" font-size="14.00">.github/workflows/cp.yml</text>
</g>
<!-- n10 -->
<g id="node10" class="node">
<title>n10</title>
<path fill="lightyellow" stroke="black" d="M565.12,-2653C565.12,-2653 378.12,-2653 378.12,-2653 372.12,-2653 366.12,-2647 366.12,-2641 366.12,-2641 366.12,-2629 366.12,-2629 366.12,-2623 372.12,-2617 378.12,-2617 378.12,-2617 565.12,-2617 565.12,-2617 571.12,-2617 577.12,-2623 577.12,-2629 577.12,-2629 577.12,-2641 577.12,-2641 577.12,-2647 571.12,-2653 565.12,-2653"/>
<text text-anchor="middle" x="471.62" y="-2629.95" font-family="Times New Roman,serif" font-size="14.00">.github/workflows/create_issue.yml</text>
</g>
<!-- n11 -->
<g id="node11" class="node">
<title>n11</title>
<path fill="lightyellow" stroke="black" d="M537.38,-1465C537.38,-1465 405.88,-1465 405.88,-1465 399.88,-1465 393.88,-1459 393.88,-1453 393.88,-1453 393.88,-1441 393.88,-1441 393.88,-1435 399.88,-1429 405.88,-1429 405.88,-1429 537.38,-1429 537.38,-1429 543.38,-1429 549.38,-1435 549.38,-1441 549.38,-1441 549.38,-1453 549.38,-1453 549.38,-1459 543.38,-1465 537.38,-1465"/>
<text text-anchor="middle" x="471.62" y="-1441.95" font-family="Times New Roman,serif" font-size="14.00">.github/workflows/rc.yml</text>
</g>
<!-- n12 -->
<g id="node12" class="node">
<title>n12</title>
<path fill="lightyellow" stroke="black" d="M496.88,-1735C496.88,-1735 446.38,-1735 446.38,-1735 440.38,-1735 434.38,-1729 434.38,-1723 434.38,-1723 434.38,-1711 434.38,-1711 434.38,-1705 440.38,-1699 446.38,-1699 446.38,-1699 496.88,-1699 496.88,-1699 502.88,-1699 508.88,-1705 508.88,-1711 508.88,-1711 508.88,-1723 508.88,-1723 508.88,-1729 502.88,-1735 496.88,-1735"/>
<text text-anchor="middle" x="471.62" y="-1711.95" font-family="Times New Roman,serif" font-size="14.00">action.yml</text>
</g>
<!-- n13 -->
<g id="node13" class="node">
<title>n13</title>
<path fill="lightyellow" stroke="black" d="M544.12,-2167C544.12,-2167 399.12,-2167 399.12,-2167 393.12,-2167 387.12,-2161 387.12,-2155 387.12,-2155 387.12,-2143 387.12,-2143 387.12,-2137 393.12,-2131 399.12,-2131 399.12,-2131 544.12,-2131 544.12,-2131 550.12,-2131 556.12,-2137 556.12,-2143 556.12,-2143 556.12,-2155 556.12,-2155 556.12,-2161 550.12,-2167 544.12,-2167"/>
<text text-anchor="middle" x="471.62" y="-2143.95" font-family="Times New Roman,serif" font-size="14.00">scripts/add&#45;issue&#45;commit.sh</text>
</g>
<!-- n14 -->
<g id="node14" class="node">
<title>n14</title>
<path fill="lightyellow" stroke="black" d="M538.12,-2491C538.12,-2491 405.12,-2491 405.12,-2491 399.12,-2491 393.12,-2485 393.12,-2479 393.12,-2479 393.12,-2467 393.12,-2467 393.12,-2461 399.12,-2455 405.12,-2455 405.12,-2455 538.12,-2455 538.12,-2455 544.12,-2455 550.12,-2461 550.12,-2467 550.12,-2467 550.12,-2479 550.12,-2479 550.12,-2485 544.12,-2491 538.12,-2491"/>
<text text-anchor="middle" x="471.62" y="-2467.95" font-family="Times New Roman,serif" font-size="14.00">scripts/cancelworkflow.sh</text>
</g>
<!-- n15 -->
<g id="node15" class="node">
<title>n15</title>
<path fill="lightyellow" stroke="black" d="M519,-1789C519,-1789 424.25,-1789 424.25,-1789 418.25,-1789 412.25,-1783 412.25,-1777 412.25,-1777 412.25,-1765 412.25,-1765 412.25,-1759 418.25,-1753 424.25,-1753 424.25,-1753 519,-1753 519,-1753 525,-1753 531,-1759 531,-1765 531,-1765 531,-1777 531,-1777 531,-1783 525,-1789 519,-1789"/>
<text text-anchor="middle" x="471.62" y="-1765.95" font-family="Times New Roman,serif" font-size="14.00">scripts/checkPR.sh</text>
</g>
<!-- n16 -->
<g id="node16" class="node">
<title>n16</title>
<path fill="lightyellow" stroke="black" d="M540,-1897C540,-1897 403.25,-1897 403.25,-1897 397.25,-1897 391.25,-1891 391.25,-1885 391.25,-1885 391.25,-1873 391.25,-1873 391.25,-1867 397.25,-1861 403.25,-1861 403.25,-1861 540,-1861 540,-1861 546,-1861 552,-1867 552,-1873 552,-1873 552,-1885 552,-1885 552,-1891 546,-1897 540,-1897"/>
<text text-anchor="middle" x="471.62" y="-1873.95" font-family="Times New Roman,serif" font-size="14.00">scripts/check_copyright.sh</text>
</g>
<!-- n17 -->
<g id="node17" class="node">
<title>n17</title>
<path fill="lightyellow" stroke="black" d="M524.62,-2113C524.62,-2113 418.62,-2113 418.62,-2113 412.62,-2113 406.62,-2107 406.62,-2101 406.62,-2101 406.62,-2089 406.62,-2089 406.62,-2083 412.62,-2077 418.62,-2077 418.62,-2077 524.62,-2077 524.62,-2077 530.62,-2077 536.62,-2083 536.62,-2089 536.62,-2089 536.62,-2101 536.62,-2101 536.62,-2107 530.62,-2113 524.62,-2113"/>
<text text-anchor="middle" x="471.62" y="-2089.95" font-family="Times New Roman,serif" font-size="14.00">scripts/close&#45;issue.sh</text>
</g>
<!-- n18 -->
<g id="node18" class="node">
<title>n18</title>
<path fill="lightyellow" stroke="black" d="M501.38,-2221C501.38,-2221 441.88,-2221 441.88,-2221 435.88,-2221 429.88,-2215 429.88,-2209 429.88,-2209 429.88,-2197 429.88,-2197 429.88,-2191 435.88,-2185 441.88,-2185 441.88,-2185 501.38,-2185 501.38,-2185 507.38,-2185 513.38,-2191 513.38,-2197 513.38,-2197 513.38,-2209 513.38,-2209 513.38,-2215 507.38,-2221 501.38,-2221"/>
<text text-anchor="middle" x="471.62" y="-2197.95" font-family="Times New Roman,serif" font-size="14.00">scripts/cp.sh</text>
</g>
<!-- n19 -->
<g id="node19" class="node">
<title>n19</title>
<path fill="lightyellow" stroke="black" d="M524.62,-2329C524.62,-2329 418.62,-2329 418.62,-2329 412.62,-2329 406.62,-2323 406.62,-2317 406.62,-2317 406.62,-2305 406.62,-2305 406.62,-2299 412.62,-2293 418.62,-2293 418.62,-2293 524.62,-2293 524.62,-2293 530.62,-2293 536.62,-2299 536.62,-2305 536.62,-2305 536.62,-2317 536.62,-2317 536.62,-2323 530.62,-2329 524.62,-2329"/>
<text text-anchor="middle" x="471.62" y="-2305.95" font-family="Times New Roman,serif" font-size="14.00">scripts/createissue.sh</text>
</g>
<!-- n20 -->
<g id="node20" class="node">
<title>n20</title>
<path fill="lightyellow" stroke="black" d="M550.88,-1411C550.88,-1411 392.38,-1411 392.38,-1411 386.38,-1411 380.38,-1405 380.38,-1399 380.38,-1399 380.38,-1387 380.38,-1387 380.38,-1381 386.38,-1375 392.38,-1375 392.38,-1375 550.88,-1375 550.88,-1375 556.88,-1375 562.88,-1381 562.88,-1387 562.88,-1387 562.88,-1399 562.88,-1399 562.88,-1405 556.88,-1411 550.88,-1411"/>
<text text-anchor="middle" x="471.62" y="-1387.95" font-family="Times New Roman,serif" font-size="14.00">scripts/deleteDockerImages.sh</text>
</g>
<!-- n21 -->
<g id="node21" class="node">
<title>n21</title>
<path fill="lightyellow" stroke="black" d="M524.25,-2977C524.25,-2977 419,-2977 419,-2977 413,-2977 407,-2971 407,-2965 407,-2965 407,-2953 407,-2953 407,-2947 413,-2941 419,-2941 419,-2941 524.25,-2941 524.25,-2941 530.25,-2941 536.25,-2947 536.25,-2953 536.25,-2953 536.25,-2965 536.25,-2965 536.25,-2971 530.25,-2977 524.25,-2977"/>
<text text-anchor="middle" x="471.62" y="-2953.95" font-family="Times New Roman,serif" font-size="14.00">scripts/domergepr.sh</text>
</g>
<!-- n22 -->
<g id="node22" class="node">
<title>n22</title>
<path fill="lightyellow" stroke="black" d="M526.12,-2761C526.12,-2761 417.12,-2761 417.12,-2761 411.12,-2761 405.12,-2755 405.12,-2749 405.12,-2749 405.12,-2737 405.12,-2737 405.12,-2731 411.12,-2725 417.12,-2725 417.12,-2725 526.12,-2725 526.12,-2725 532.12,-2725 538.12,-2731 538.12,-2737 538.12,-2737 538.12,-2749 538.12,-2749 538.12,-2755 532.12,-2761 526.12,-2761"/>
<text text-anchor="middle" x="471.62" y="-2737.95" font-family="Times New Roman,serif" font-size="14.00">scripts/execgovuln.sh</text>
</g>
<!-- n23 -->
<g id="node23" class="node">
<title>n23</title>
<path fill="lightyellow" stroke="black" d="M510.75,-1843C510.75,-1843 432.5,-1843 432.5,-1843 426.5,-1843 420.5,-1837 420.5,-1831 420.5,-1831 420.5,-1819 420.5,-1819 420.5,-1813 426.5,-1807 432.5,-1807 432.5,-1807 510.75,-1807 510.75,-1807 516.75,-1807 522.75,-1813 522.75,-1819 522.75,-1819 522.75,-1831 522.75,-1831 522.75,-1837 516.75,-1843 510.75,-1843"/>
<text text-anchor="middle" x="471.62" y="-1819.95" font-family="Times New Roman,serif" font-size="14.00">scripts/gbash.sh</text>
</g>
<!-- n24 -->
<g id="node24" class="node">
<title>n24</title>
<path fill="lightcoral" stroke="red" d="M523.12,-2383C523.12,-2383 420.12,-2383 420.12,-2383 414.12,-2383 408.12,-2377 408.12,-2371 408.12,-2371 408.12,-2359 408.12,-2359 408.12,-2353 414.12,-2347 420.12,-2347 420.12,-2347 523.12,-2347 523.12,-2347 529.12,-2347 535.12,-2353 535.12,-2359 535.12,-2359 535.12,-2371 535.12,-2371 535.12,-2377 529.12,-2383 523.12,-2383"/>
<text text-anchor="middle" x="471.62" y="-2359.95" font-family="Times New Roman,serif" font-size="14.00">scripts/git&#45;release.sh</text>
</g>
<!-- n25 -->
<g id="node25" class="node">
<title>n25</title>
<path fill="lightcoral" stroke="red" d="M535.5,-2437C535.5,-2437 407.75,-2437 407.75,-2437 401.75,-2437 395.75,-2431 395.75,-2425 395.75,-2425 395.75,-2413 395.75,-2413 395.75,-2407 401.75,-2401 407.75,-2401 407.75,-2401 535.5,-2401 535.5,-2401 541.5,-2401 547.5,-2407 547.5,-2413 547.5,-2413 547.5,-2425 547.5,-2425 547.5,-2431 541.5,-2437 535.5,-2437"/>
<text text-anchor="middle" x="471.62" y="-2413.95" font-family="Times New Roman,serif" font-size="14.00">scripts/large&#45;file&#45;hook.sh</text>
</g>
<!-- n26 -->
<g id="node26" class="node">
<title>n26</title>
<path fill="lightyellow" stroke="black" d="M532.12,-2815C532.12,-2815 411.12,-2815 411.12,-2815 405.12,-2815 399.12,-2809 399.12,-2803 399.12,-2803 399.12,-2791 399.12,-2791 399.12,-2785 405.12,-2779 411.12,-2779 411.12,-2779 532.12,-2779 532.12,-2779 538.12,-2779 544.12,-2785 544.12,-2791 544.12,-2791 544.12,-2803 544.12,-2803 544.12,-2809 538.12,-2815 532.12,-2815"/>
<text text-anchor="middle" x="471.62" y="-2791.95" font-family="Times New Roman,serif" font-size="14.00">scripts/linkmilestone.sh</text>
</g>
<!-- n27 -->
<g id="node27" class="node">
<title>n27</title>
<path fill="lightcoral" stroke="red" d="M543,-2545C543,-2545 400.25,-2545 400.25,-2545 394.25,-2545 388.25,-2539 388.25,-2533 388.25,-2533 388.25,-2521 388.25,-2521 388.25,-2515 394.25,-2509 400.25,-2509 400.25,-2509 543,-2509 543,-2509 549,-2509 555,-2515 555,-2521 555,-2521 555,-2533 555,-2533 555,-2539 549,-2545 543,-2545"/>
<text text-anchor="middle" x="471.62" y="-2521.95" font-family="Times New Roman,serif" font-size="14.00">scripts/pre&#45;commit&#45;hook.sh</text>
</g>
<!-- n28 -->
<g id="node28" class="node">
<title>n28</title>
<path fill="lightyellow" stroke="black" d="M500.25,-2059C500.25,-2059 443,-2059 443,-2059 437,-2059 431,-2053 431,-2047 431,-2047 431,-2035 431,-2035 431,-2029 437,-2023 443,-2023 443,-2023 500.25,-2023 500.25,-2023 506.25,-2023 512.25,-2029 512.25,-2035 512.25,-2035 512.25,-2047 512.25,-2047 512.25,-2053 506.25,-2059 500.25,-2059"/>
<text text-anchor="middle" x="471.62" y="-2035.95" font-family="Times New Roman,serif" font-size="14.00">scripts/rc.sh</text>
</g>
<!-- n29 -->
<g id="node29" class="node">
<title>n29</title>
<path fill="lightyellow" stroke="black" d="M552,-1573C552,-1573 391.25,-1573 391.25,-1573 385.25,-1573 379.25,-1567 379.25,-1561 379.25,-1561 379.25,-1549 379.25,-1549 379.25,-1543 385.25,-1537 391.25,-1537 391.25,-1537 552,-1537 552,-1537 558,-1537 564,-1543 564,-1549 564,-1549 564,-1561 564,-1561 564,-1567 558,-1573 552,-1573"/>
<text text-anchor="middle" x="471.62" y="-1549.95" font-family="Times New Roman,serif" font-size="14.00">scripts/rebuild&#45;schemas&#45;bp3.sh</text>
</g>
<!-- n30 -->
<g id="node30" class="node">
<title>n30</title>
<path fill="lightyellow" stroke="black" d="M538.12,-2275C538.12,-2275 405.12,-2275 405.12,-2275 399.12,-2275 393.12,-2269 393.12,-2263 393.12,-2263 393.12,-2251 393.12,-2251 393.12,-2245 399.12,-2239 405.12,-2239 405.12,-2239 538.12,-2239 538.12,-2239 544.12,-2239 550.12,-2245 550.12,-2251 550.12,-2251 550.12,-2263 550.12,-2263 550.12,-2269 544.12,-2275 538.12,-2275"/>
<text text-anchor="middle" x="471.62" y="-2251.95" font-family="Times New Roman,serif" font-size="14.00">scripts/rebuild&#45;test&#45;bp3.sh</text>
</g>
<!-- n31 -->
<g id="node31" class="node">
<title>n31</title>
<path fill="lightyellow" stroke="black" d="M535.88,-2005C535.88,-2005 407.38,-2005 407.38,-2005 401.38,-2005 395.38,-1999 395.38,-1993 395.38,-1993 395.38,-1981 395.38,-1981 395.38,-1975 401.38,-1969 407.38,-1969 407.38,-1969 535.88,-1969 535.88,-1969 541.88,-1969 547.88,-1975 547.88,-1981 547.88,-1981 547.88,-1993 547.88,-1993 547.88,-1999 541.88,-2005 535.88,-2005"/>
<text text-anchor="middle" x="471.62" y="-1981.95" font-family="Times New Roman,serif" font-size="14.00">scripts/test_subfolders.sh</text>
</g>
<!-- n32 -->
<g id="node32" class="node">
<title>n32</title>
<path fill="lightyellow" stroke="black" d="M548.62,-1951C548.62,-1951 394.62,-1951 394.62,-1951 388.62,-1951 382.62,-1945 382.62,-1939 382.62,-1939 382.62,-1927 382.62,-1927 382.62,-1921 388.62,-1915 394.62,-1915 394.62,-1915 548.62,-1915 548.62,-1915 554.62,-1915 560.62,-1921 560.62,-1927 560.62,-1927 560.62,-1939 560.62,-1939 560.62,-1945 554.62,-1951 548.62,-1951"/>
<text text-anchor="middle" x="471.62" y="-1927.95" font-family="Times New Roman,serif" font-size="14.00">scripts/test_subfolders_full.sh</text>
</g>
<!-- n33 -->
<g id="node33" class="node">
<title>n33</title>
<path fill="lightyellow" stroke="black" d="M538.88,-2869C538.88,-2869 404.38,-2869 404.38,-2869 398.38,-2869 392.38,-2863 392.38,-2857 392.38,-2857 392.38,-2845 392.38,-2845 392.38,-2839 398.38,-2833 404.38,-2833 404.38,-2833 538.88,-2833 538.88,-2833 544.88,-2833 550.88,-2839 550.88,-2845 550.88,-2845 550.88,-2857 550.88,-2857 550.88,-2863 544.88,-2869 538.88,-2869"/>
<text text-anchor="middle" x="471.62" y="-2845.95" font-family="Times New Roman,serif" font-size="14.00">scripts/unlinkmilestone.sh</text>
</g>
<!-- n34 -->
<g id="node34" class="node">
<title>n34</title>
<path fill="lightyellow" stroke="black" d="M549,-1681C549,-1681 394.25,-1681 394.25,-1681 388.25,-1681 382.25,-1675 382.25,-1669 382.25,-1669 382.25,-1657 382.25,-1657 382.25,-1651 388.25,-1645 394.25,-1645 394.25,-1645 549,-1645 549,-1645 555,-1645 561,-1651 561,-1657 561,-1657 561,-1669 561,-1669 561,-1675 555,-1681 549,-1681"/>
<text text-anchor="middle" x="471.62" y="-1657.95" font-family="Times New Roman,serif" font-size="14.00">scripts/update&#45;bp3&#45;voedger.sh</text>
</g>
<!-- n35 -->
<g id="node35" class="node">
<title>n35</title>
<path fill="lightyellow" stroke="black" d="M531.75,-1357C531.75,-1357 411.5,-1357 411.5,-1357 405.5,-1357 399.5,-1351 399.5,-1345 399.5,-1345 399.5,-1333 399.5,-1333 399.5,-1327 405.5,-1321 411.5,-1321 411.5,-1321 531.75,-1321 531.75,-1321 537.75,-1321 543.75,-1327 543.75,-1333 543.75,-1333 543.75,-1345 543.75,-1345 543.75,-1351 537.75,-1357 531.75,-1357"/>
<text text-anchor="middle" x="471.62" y="-1333.95" font-family="Times New Roman,serif" font-size="14.00">scripts/updateConfig.sh</text>
</g>
<!-- n36 -->
<g id="node36" class="node">
<title>n36</title>
<path fill="lightcoral" stroke="red" d="M554.25,-3031C554.25,-3031 389,-3031 389,-3031 383,-3031 377,-3025 377,-3019 377,-3019 377,-3007 377,-3007 377,-3001 383,-2995 389,-2995 389,-2995 554.25,-2995 554.25,-2995 560.25,-2995 566.25,-3001 566.25,-3007 566.25,-3007 566.25,-3019 566.25,-3019 566.25,-3025 560.25,-3031 554.25,-3031"/>
<text text-anchor="middle" x="471.62" y="-3007.95" font-family="Times New Roman,serif" font-size="14.00">scripts/updateConfigDummy.sh</text>
</g>
<!-- n37 -->
<g id="node37" class="node">
<title>n37</title>
<path fill="lightcoral" stroke="red" d="M522.75,-3085C522.75,-3085 420.5,-3085 420.5,-3085 414.5,-3085 408.5,-3079 408.5,-3073 408.5,-3073 408.5,-3061 408.5,-3061 408.5,-3055 414.5,-3049 420.5,-3049 420.5,-3049 522.75,-3049 522.75,-3049 528.75,-3049 534.75,-3055 534.75,-3061 534.75,-3061 534.75,-3073 534.75,-3073 534.75,-3079 528.75,-3085 522.75,-3085"/>
<text text-anchor="middle" x="471.62" y="-3061.95" font-family="Times New Roman,serif" font-size="14.00">scripts/vulncheck.sh</text>
</g>
<!-- n38 -->
<g id="node38" class="node">
<title>n38</title>
<path fill="white" stroke="black" d="M235.62,-2653C235.62,-2653 81.62,-2653 81.62,-2653 75.62,-2653 69.62,-2647 69.62,-2641 69.62,-2641 69.62,-2629 69.62,-2629 69.62,-2623 75.62,-2617 81.62,-2617 81.62,-2617 235.62,-2617 235.62,-2617 241.62,-2617 247.62,-2623 247.62,-2629 247.62,-2629 247.62,-2641 247.62,-2641 247.62,-2647 241.62,-2653 235.62,-2653"/>
<text text-anchor="middle" x="158.62" y="-2629.95" font-family="Times New Roman,serif" font-size="14.00">.github/workflows/ci&#45;full.yml</text>
</g>
<!-- n38&#45;&gt;n5 -->
<g id="edge70" class="edge">
<title>n38&#45;&gt;n5</title>
<path fill="none" stroke="black" d="M247.91,-2650.33C281.28,-2656.12 319.75,-2662.8 355.23,-2668.96"/>
<polygon fill="black" stroke="black" points="354.2,-2672.34 364.65,-2670.6 355.4,-2665.44 354.2,-2672.34"/>
</g>
<!-- n38&#45;&gt;n10 -->
<g id="edge71" class="edge">
<title>n38&#45;&gt;n10</title>
<path fill="none" stroke="black" d="M247.91,-2635C281.05,-2635 319.23,-2635 354.52,-2635"/>
<polygon fill="black" stroke="black" points="354.35,-2638.5 364.35,-2635 354.35,-2631.5 354.35,-2638.5"/>
</g>
<!-- n39 -->
<g id="node39" class="node">
<title>n39</title>
<path fill="white" stroke="black" d="M250.62,-2707C250.62,-2707 66.62,-2707 66.62,-2707 60.62,-2707 54.62,-2701 54.62,-2695 54.62,-2695 54.62,-2683 54.62,-2683 54.62,-2677 60.62,-2671 66.62,-2671 66.62,-2671 250.62,-2671 250.62,-2671 256.62,-2671 262.62,-2677 262.62,-2683 262.62,-2683 262.62,-2695 262.62,-2695 262.62,-2701 256.62,-2707 250.62,-2707"/>
<text text-anchor="middle" x="158.62" y="-2683.95" font-family="Times New Roman,serif" font-size="14.00">.github/workflows/ci&#45;pkg&#45;cmd.yml</text>
</g>
<!-- n39&#45;&gt;n5 -->
<g id="edge72" class="edge">
<title>n39&#45;&gt;n5</title>
<path fill="none" stroke="black" d="M262.75,-2689C292.23,-2689 324.55,-2689 354.73,-2689"/>
<polygon fill="black" stroke="black" points="354.67,-2692.5 364.67,-2689 354.67,-2685.5 354.67,-2692.5"/>
</g>
<!-- n40 -->
<g id="node40" class="node">
<title>n40</title>
<path fill="white" stroke="black" d="M259.25,-2923C259.25,-2923 58,-2923 58,-2923 52,-2923 46,-2917 46,-2911 46,-2911 46,-2899 46,-2899 46,-2893 52,-2887 58,-2887 58,-2887 259.25,-2887 259.25,-2887 265.25,-2887 271.25,-2893 271.25,-2899 271.25,-2899 271.25,-2911 271.25,-2911 271.25,-2917 265.25,-2923 259.25,-2923"/>
<text text-anchor="middle" x="158.62" y="-2899.95" font-family="Times New Roman,serif" font-size="14.00">.github/workflows/ci&#45;pkg&#45;cmd_pr.yml</text>
</g>
<!-- n40&#45;&gt;n8 -->
<g id="edge73" class="edge">
<title>n40&#45;&gt;n8</title>
<path fill="none" stroke="black" d="M271.46,-2905C295.7,-2905 321.48,-2905 346.17,-2905"/>
<polygon fill="black" stroke="black" points="345.91,-2908.5 355.91,-2905 345.91,-2901.5 345.91,-2908.5"/>
</g>
<!-- n41 -->
<g id="node41" class="node">
<title>n41</title>
<path fill="white" stroke="black" d="M254,-2761C254,-2761 63.25,-2761 63.25,-2761 57.25,-2761 51.25,-2755 51.25,-2749 51.25,-2749 51.25,-2737 51.25,-2737 51.25,-2731 57.25,-2725 63.25,-2725 63.25,-2725 254,-2725 254,-2725 260,-2725 266,-2731 266,-2737 266,-2737 266,-2749 266,-2749 266,-2755 260,-2761 254,-2761"/>
<text text-anchor="middle" x="158.62" y="-2737.95" font-family="Times New Roman,serif" font-size="14.00">.github/workflows/ci&#45;vulncheck.yml</text>
</g>
<!-- n41&#45;&gt;n22 -->
<g id="edge74" class="edge">
<title>n41&#45;&gt;n22</title>
<path fill="none" stroke="black" d="M266.22,-2743C308.15,-2743 355.36,-2743 393.84,-2743"/>
<polygon fill="black" stroke="black" points="393.45,-2746.5 403.45,-2743 393.45,-2739.5 393.45,-2746.5"/>
</g>
<!-- n42 -->
<g id="node42" class="node">
<title>n42</title>
<path fill="white" stroke="black" d="M248.75,-2545C248.75,-2545 68.5,-2545 68.5,-2545 62.5,-2545 56.5,-2539 56.5,-2533 56.5,-2533 56.5,-2521 56.5,-2521 56.5,-2515 62.5,-2509 68.5,-2509 68.5,-2509 248.75,-2509 248.75,-2509 254.75,-2509 260.75,-2515 260.75,-2521 260.75,-2521 260.75,-2533 260.75,-2533 260.75,-2539 254.75,-2545 248.75,-2545"/>
<text text-anchor="middle" x="158.62" y="-2521.95" font-family="Times New Roman,serif" font-size="14.00">.github/workflows/ci_amazon.yml</text>
</g>
<!-- n42&#45;&gt;n10 -->
<g id="edge75" class="edge">
<title>n42&#45;&gt;n10</title>
<path fill="none" stroke="black" d="M260.93,-2530.65C278.48,-2535.17 295.49,-2542.47 309.25,-2554 328.87,-2570.43 309.71,-2591.47 329.25,-2608 336.94,-2614.51 345.72,-2619.64 355.04,-2623.66"/>
<polygon fill="black" stroke="black" points="353.78,-2626.92 364.37,-2627.21 356.27,-2620.38 353.78,-2626.92"/>
</g>
<!-- n43 -->
<g id="node43" class="node">
<title>n43</title>
<path fill="white" stroke="black" d="M236,-2599C236,-2599 81.25,-2599 81.25,-2599 75.25,-2599 69.25,-2593 69.25,-2587 69.25,-2587 69.25,-2575 69.25,-2575 69.25,-2569 75.25,-2563 81.25,-2563 81.25,-2563 236,-2563 236,-2563 242,-2563 248,-2569 248,-2575 248,-2575 248,-2587 248,-2587 248,-2593 242,-2599 236,-2599"/>
<text text-anchor="middle" x="158.62" y="-2575.95" font-family="Times New Roman,serif" font-size="14.00">.github/workflows/ci_cas.yml</text>
</g>
<!-- n43&#45;&gt;n10 -->
<g id="edge76" class="edge">
<title>n43&#45;&gt;n10</title>
<path fill="none" stroke="black" d="M248.33,-2596.4C281.38,-2602.14 319.4,-2608.74 354.54,-2614.84"/>
<polygon fill="black" stroke="black" points="353.9,-2618.28 364.35,-2616.55 355.09,-2611.39 353.9,-2618.28"/>
</g>
<!-- n44 -->
<g id="node44" class="node">
<title>n44</title>
<path fill="white" stroke="black" d="M225.5,-2491C225.5,-2491 91.75,-2491 91.75,-2491 85.75,-2491 79.75,-2485 79.75,-2479 79.75,-2479 79.75,-2467 79.75,-2467 79.75,-2461 85.75,-2455 91.75,-2455 91.75,-2455 225.5,-2455 225.5,-2455 231.5,-2455 237.5,-2461 237.5,-2467 237.5,-2467 237.5,-2479 237.5,-2479 237.5,-2485 231.5,-2491 225.5,-2491"/>
<text text-anchor="middle" x="158.62" y="-2467.95" font-family="Times New Roman,serif" font-size="14.00">.github/workflows/cp.yml</text>
</g>
<!-- n44&#45;&gt;n9 -->
<g id="edge77" class="edge">
<title>n44&#45;&gt;n9</title>
<path fill="none" stroke="black" d="M237.69,-2476.03C264.35,-2472.77 291.81,-2463.82 309.25,-2443 341.9,-2404.03 296.42,-1566.82 329.25,-1528 342.39,-1512.46 361.47,-1504.08 381.39,-1499.87"/>
<polygon fill="black" stroke="black" points="381.76,-1503.36 391.01,-1498.2 380.56,-1496.46 381.76,-1503.36"/>
</g>
<!-- n45 -->
<g id="node45" class="node">
<title>n45</title>
<path fill="white" stroke="black" d="M243.5,-2815C243.5,-2815 73.75,-2815 73.75,-2815 67.75,-2815 61.75,-2809 61.75,-2803 61.75,-2803 61.75,-2791 61.75,-2791 61.75,-2785 67.75,-2779 73.75,-2779 73.75,-2779 243.5,-2779 243.5,-2779 249.5,-2779 255.5,-2785 255.5,-2791 255.5,-2791 255.5,-2803 255.5,-2803 255.5,-2809 249.5,-2815 243.5,-2815"/>
<text text-anchor="middle" x="158.62" y="-2791.95" font-family="Times New Roman,serif" font-size="14.00">.github/workflows/linkIssue.yml</text>
</g>
<!-- n45&#45;&gt;n26 -->
<g id="edge78" class="edge">
<title>n45&#45;&gt;n26</title>
<path fill="none" stroke="black" d="M255.9,-2797C298.04,-2797 347.01,-2797 387.53,-2797"/>
<polygon fill="black" stroke="black" points="387.48,-2800.5 397.48,-2797 387.48,-2793.5 387.48,-2800.5"/>
</g>
<!-- n46 -->
<g id="node46" class="node">
<title>n46</title>
<path fill="white" stroke="black" d="M236.38,-2977C236.38,-2977 80.88,-2977 80.88,-2977 74.88,-2977 68.88,-2971 68.88,-2965 68.88,-2965 68.88,-2953 68.88,-2953 68.88,-2947 74.88,-2941 80.88,-2941 80.88,-2941 236.38,-2941 236.38,-2941 242.38,-2941 248.38,-2947 248.38,-2953 248.38,-2953 248.38,-2965 248.38,-2965 248.38,-2971 242.38,-2977 236.38,-2977"/>
<text text-anchor="middle" x="158.62" y="-2953.95" font-family="Times New Roman,serif" font-size="14.00">.github/workflows/merge.yml</text>
</g>
<!-- n46&#45;&gt;n21 -->
<g id="edge79" class="edge">
<title>n46&#45;&gt;n21</title>
<path fill="none" stroke="black" d="M248.75,-2959C295.14,-2959 351.25,-2959 395.43,-2959"/>
<polygon fill="black" stroke="black" points="395.17,-2962.5 405.17,-2959 395.17,-2955.5 395.17,-2962.5"/>
</g>
<!-- n47 -->
<g id="node47" class="node">
<title>n47</title>
<path fill="white" stroke="black" d="M250.25,-2869C250.25,-2869 67,-2869 67,-2869 61,-2869 55,-2863 55,-2857 55,-2857 55,-2845 55,-2845 55,-2839 61,-2833 67,-2833 67,-2833 250.25,-2833 250.25,-2833 256.25,-2833 262.25,-2839 262.25,-2845 262.25,-2845 262.25,-2857 262.25,-2857 262.25,-2863 256.25,-2869 250.25,-2869"/>
<text text-anchor="middle" x="158.62" y="-2845.95" font-family="Times New Roman,serif" font-size="14.00">.github/workflows/unlinkIssue.yml</text>
</g>
<!-- n47&#45;&gt;n33 -->
<g id="edge80" class="edge">
<title>n47&#45;&gt;n33</title>
<path fill="none" stroke="black" d="M262.32,-2851C300.64,-2851 343.82,-2851 380.88,-2851"/>
<polygon fill="black" stroke="black" points="380.67,-2854.5 390.67,-2851 380.67,-2847.5 380.67,-2854.5"/>
</g>
<!-- n48 -->
<g id="node48" class="node">
<title>n48</title>
<path fill="white" stroke="black" d="M242.75,-2406C242.75,-2406 74.5,-2406 74.5,-2406 68.5,-2406 62.5,-2400 62.5,-2394 62.5,-2394 62.5,-2382 62.5,-2382 62.5,-2376 68.5,-2370 74.5,-2370 74.5,-2370 242.75,-2370 242.75,-2370 248.75,-2370 254.75,-2376 254.75,-2382 254.75,-2382 254.75,-2394 254.75,-2394 254.75,-2400 248.75,-2406 242.75,-2406"/>
<text text-anchor="middle" x="158.62" y="-2382.95" font-family="Times New Roman,serif" font-size="14.00">.github/workflows/short_go.yml</text>
</g>
<!-- n48&#45;&gt;n3 -->
<g id="edge3" class="edge">
<title>n48&#45;&gt;n3</title>
<path fill="none" stroke="black" d="M254.75,-2406.35C275.31,-2414.46 295.1,-2426.15 309.25,-2443 341.48,-2481.39 293.99,-2518.37 329.25,-2554 334.74,-2559.55 341,-2564.15 347.75,-2567.94"/>
<polygon fill="black" stroke="black" points="346.09,-2571.02 356.61,-2572.28 349.17,-2564.74 346.09,-2571.02"/>
</g>
<!-- n49 -->
<g id="node49" class="node">
<title>n49</title>
<path fill="white" stroke="black" d="M260,-2267C260,-2267 57.25,-2267 57.25,-2267 51.25,-2267 45.25,-2261 45.25,-2255 45.25,-2255 45.25,-2243 45.25,-2243 45.25,-2237 51.25,-2231 57.25,-2231 57.25,-2231 260,-2231 260,-2231 266,-2231 272,-2237 272,-2243 272,-2243 272,-2255 272,-2255 272,-2261 266,-2267 260,-2267"/>
<text text-anchor="middle" x="158.62" y="-2243.95" font-family="Times New Roman,serif" font-size="14.00">.github/workflows/ci_rebuild_bp3.yml</text>
</g>
<!-- n49&#45;&gt;n30 -->
<g id="edge4" class="edge">
<title>n49&#45;&gt;n30</title>
<path fill="none" stroke="black" d="M272.34,-2251.9C308.26,-2252.82 347.49,-2253.83 381.5,-2254.71"/>
<polygon fill="black" stroke="black" points="381.22,-2258.2 391.31,-2254.96 381.4,-2251.2 381.22,-2258.2"/>
</g>
<!-- n50 -->
<g id="node50" class="node">
<title>n50</title>
<path fill="white" stroke="black" d="M241.62,-1889C241.62,-1889 75.62,-1889 75.62,-1889 69.62,-1889 63.62,-1883 63.62,-1877 63.62,-1877 63.62,-1865 63.62,-1865 63.62,-1859 69.62,-1853 75.62,-1853 75.62,-1853 241.62,-1853 241.62,-1853 247.62,-1853 253.62,-1859 253.62,-1865 253.62,-1865 253.62,-1877 253.62,-1877 253.62,-1883 247.62,-1889 241.62,-1889"/>
<text text-anchor="middle" x="158.62" y="-1865.95" font-family="Times New Roman,serif" font-size="14.00">.github/workflows/ci_reuse.yml</text>
</g>
<!-- n50&#45;&gt;n12 -->
<g id="edge6" class="edge">
<title>n50&#45;&gt;n12</title>
<path fill="none" stroke="black" d="M254.02,-1868.97C274.48,-1864.27 294.41,-1855.76 309.25,-1841 340.46,-1809.96 297.9,-1774.9 329.25,-1744 353.47,-1720.13 391.9,-1714.01 422.59,-1713.51"/>
<polygon fill="black" stroke="black" points="422.39,-1717.01 432.41,-1713.56 422.43,-1710.01 422.39,-1717.01"/>
</g>
<!-- n50&#45;&gt;n15 -->
<g id="edge5" class="edge">
<title>n50&#45;&gt;n15</title>
<path fill="none" stroke="black" d="M254.05,-1865.83C273.81,-1861.15 293.43,-1853.45 309.25,-1841 325.81,-1827.97 312.63,-1810.96 329.25,-1798 349.42,-1782.28 376.05,-1774.81 400.76,-1771.51"/>
<polygon fill="black" stroke="black" points="400.89,-1775.02 410.44,-1770.44 400.12,-1768.06 400.89,-1775.02"/>
</g>
<!-- n51 -->
<g id="node51" class="node">
<title>n51</title>
<path fill="white" stroke="black" d="M251.75,-2051C251.75,-2051 65.5,-2051 65.5,-2051 59.5,-2051 53.5,-2045 53.5,-2039 53.5,-2039 53.5,-2027 53.5,-2027 53.5,-2021 59.5,-2015 65.5,-2015 65.5,-2015 251.75,-2015 251.75,-2015 257.75,-2015 263.75,-2021 263.75,-2027 263.75,-2027 263.75,-2039 263.75,-2039 263.75,-2045 257.75,-2051 251.75,-2051"/>
<text text-anchor="middle" x="158.62" y="-2027.95" font-family="Times New Roman,serif" font-size="14.00">.github/workflows/ci_reuse_go.yml</text>
</g>
<!-- n51&#45;&gt;n12 -->
<g id="edge8" class="edge">
<title>n51&#45;&gt;n12</title>
<path fill="none" stroke="black" d="M264.11,-2032.16C281.27,-2027.36 297.31,-2019.23 309.25,-2006 348.37,-1962.65 290.35,-1787.55 329.25,-1744 352.23,-1718.28 391.54,-1712.44 422.88,-1712.53"/>
<polygon fill="black" stroke="black" points="422.43,-1716.02 432.51,-1712.77 422.6,-1709.02 422.43,-1716.02"/>
</g>
<!-- n51&#45;&gt;n15 -->
<g id="edge7" class="edge">
<title>n51&#45;&gt;n15</title>
<path fill="none" stroke="black" d="M263.9,-2031.96C281.08,-2027.18 297.18,-2019.11 309.25,-2006 340.7,-1971.84 297.97,-1832.32 329.25,-1798 347.14,-1778.37 374.54,-1770.39 400.47,-1767.76"/>
<polygon fill="black" stroke="black" points="400.62,-1771.26 410.34,-1767.04 400.11,-1764.28 400.62,-1771.26"/>
</g>
<!-- n51&#45;&gt;n16 -->
<g id="edge11" class="edge">
<title>n51&#45;&gt;n16</title>
<path fill="none" stroke="black" d="M263.99,-2030.62C280.85,-2025.91 296.82,-2018.2 309.25,-2006 341.6,-1974.25 297.06,-1937.91 329.25,-1906 342.9,-1892.47 361.1,-1884.63 379.9,-1880.29"/>
<polygon fill="black" stroke="black" points="380.37,-1883.76 389.52,-1878.41 379.03,-1876.89 380.37,-1883.76"/>
</g>
<!-- n51&#45;&gt;n23 -->
<g id="edge12" class="edge">
<title>n51&#45;&gt;n23</title>
<path fill="none" stroke="black" d="M263.93,-2031.53C281,-2026.76 297.06,-2018.81 309.25,-2006 356.83,-1956.01 281.92,-1902.24 329.25,-1852 349.36,-1830.66 380.73,-1823.21 408.82,-1821.4"/>
<polygon fill="black" stroke="black" points="408.84,-1824.9 418.69,-1821.01 408.56,-1817.91 408.84,-1824.9"/>
</g>
<!-- n51&#45;&gt;n31 -->
<g id="edge9" class="edge">
<title>n51&#45;&gt;n31</title>
<path fill="none" stroke="black" d="M264.05,-2017.55C302.91,-2011.81 346.56,-2005.35 383.68,-1999.86"/>
<polygon fill="black" stroke="black" points="384.11,-2003.33 393.49,-1998.41 383.08,-1996.41 384.11,-2003.33"/>
</g>
<!-- n51&#45;&gt;n32 -->
<g id="edge10" class="edge">
<title>n51&#45;&gt;n32</title>
<path fill="none" stroke="black" d="M263.91,-2027.81C280.28,-2023.31 296.11,-2016.4 309.25,-2006 326.73,-1992.16 311.84,-1973.93 329.25,-1960 341.42,-1950.27 356.05,-1943.67 371.22,-1939.27"/>
<polygon fill="black" stroke="black" points="372.04,-1942.67 380.87,-1936.81 370.31,-1935.89 372.04,-1942.67"/>
</g>
<!-- n52 -->
<g id="node52" class="node">
<title>n52</title>
<path fill="white" stroke="black" d="M263.75,-1997C263.75,-1997 53.5,-1997 53.5,-1997 47.5,-1997 41.5,-1991 41.5,-1985 41.5,-1985 41.5,-1973 41.5,-1973 41.5,-1967 47.5,-1961 53.5,-1961 53.5,-1961 263.75,-1961 263.75,-1961 269.75,-1961 275.75,-1967 275.75,-1973 275.75,-1973 275.75,-1985 275.75,-1985 275.75,-1991 269.75,-1997 263.75,-1997"/>
<text text-anchor="middle" x="158.62" y="-1973.95" font-family="Times New Roman,serif" font-size="14.00">.github/workflows/ci_reuse_go_cas.yml</text>
</g>
<!-- n52&#45;&gt;n12 -->
<g id="edge14" class="edge">
<title>n52&#45;&gt;n12</title>
<path fill="none" stroke="black" d="M275.89,-1973.98C288.49,-1969.07 300.04,-1962 309.25,-1952 340.7,-1917.84 297.97,-1778.32 329.25,-1744 352.48,-1718.5 391.77,-1712.65 423.04,-1712.67"/>
<polygon fill="black" stroke="black" points="422.56,-1716.17 432.64,-1712.89 422.72,-1709.17 422.56,-1716.17"/>
</g>
<!-- n52&#45;&gt;n15 -->
<g id="edge13" class="edge">
<title>n52&#45;&gt;n15</title>
<path fill="none" stroke="black" d="M275.95,-1973.55C288.45,-1968.69 299.97,-1961.75 309.25,-1952 356.83,-1902.01 281.92,-1848.24 329.25,-1798 347.39,-1778.75 374.69,-1770.8 400.48,-1768.1"/>
<polygon fill="black" stroke="black" points="400.59,-1771.6 410.29,-1767.34 400.05,-1764.63 400.59,-1771.6"/>
</g>
<!-- n52&#45;&gt;n16 -->
<g id="edge15" class="edge">
<title>n52&#45;&gt;n16</title>
<path fill="none" stroke="black" d="M276.14,-1969.93C288.09,-1965.61 299.42,-1959.78 309.25,-1952 326.73,-1938.16 311.84,-1919.93 329.25,-1906 343.63,-1894.5 361.45,-1887.38 379.54,-1883.07"/>
<polygon fill="black" stroke="black" points="380.24,-1886.5 389.32,-1881.05 378.82,-1879.65 380.24,-1886.5"/>
</g>
<!-- n52&#45;&gt;n23 -->
<g id="edge16" class="edge">
<title>n52&#45;&gt;n23</title>
<path fill="none" stroke="black" d="M276.06,-1972.64C288.38,-1967.91 299.83,-1961.24 309.25,-1952 341.6,-1920.25 297.06,-1883.91 329.25,-1852 349.92,-1831.51 381.04,-1824.08 408.82,-1822.06"/>
<polygon fill="black" stroke="black" points="408.75,-1825.57 418.57,-1821.59 408.41,-1818.58 408.75,-1825.57"/>
</g>
<!-- n53 -->
<g id="node53" class="node">
<title>n53</title>
<path fill="white" stroke="black" d="M281,-1943C281,-1943 36.25,-1943 36.25,-1943 30.25,-1943 24.25,-1937 24.25,-1931 24.25,-1931 24.25,-1919 24.25,-1919 24.25,-1913 30.25,-1907 36.25,-1907 36.25,-1907 281,-1907 281,-1907 287,-1907 293,-1913 293,-1919 293,-1919 293,-1931 293,-1931 293,-1937 287,-1943 281,-1943"/>
<text text-anchor="middle" x="158.62" y="-1919.95" font-family="Times New Roman,serif" font-size="14.00">.github/workflows/ci_reuse_go_norebuild.yml</text>
</g>
<!-- n53&#45;&gt;n12 -->
<g id="edge18" class="edge">
<title>n53&#45;&gt;n12</title>
<path fill="none" stroke="black" d="M293.48,-1910.82C299.2,-1907.21 304.52,-1902.97 309.25,-1898 356.83,-1848.01 281.92,-1794.24 329.25,-1744 352.72,-1719.08 391.56,-1713.1 422.6,-1712.93"/>
<polygon fill="black" stroke="black" points="422.49,-1716.43 432.55,-1713.09 422.61,-1709.43 422.49,-1716.43"/>
</g>
<!-- n53&#45;&gt;n15 -->
<g id="edge17" class="edge">
<title>n53&#45;&gt;n15</title>
<path fill="none" stroke="black" d="M293.41,-1910.22C299.11,-1906.76 304.45,-1902.71 309.25,-1898 341.6,-1866.25 297.06,-1829.91 329.25,-1798 347.95,-1779.46 375.22,-1771.61 400.83,-1768.79"/>
<polygon fill="black" stroke="black" points="400.88,-1772.3 410.55,-1767.97 400.29,-1765.32 400.88,-1772.3"/>
</g>
<!-- n53&#45;&gt;n16 -->
<g id="edge19" class="edge">
<title>n53&#45;&gt;n16</title>
<path fill="none" stroke="black" d="M284.33,-1906.56C316.25,-1901.83 349.97,-1896.85 379.82,-1892.43"/>
<polygon fill="black" stroke="black" points="380.18,-1895.92 389.56,-1890.99 379.15,-1888.99 380.18,-1895.92"/>
</g>
<!-- n53&#45;&gt;n23 -->
<g id="edge20" class="edge">
<title>n53&#45;&gt;n23</title>
<path fill="none" stroke="black" d="M293.31,-1908.36C298.93,-1905.36 304.28,-1901.93 309.25,-1898 326.73,-1884.16 311.84,-1865.93 329.25,-1852 351.45,-1834.25 381.83,-1826.94 408.74,-1824.3"/>
<polygon fill="black" stroke="black" points="408.82,-1827.8 418.52,-1823.55 408.28,-1820.82 408.82,-1827.8"/>
</g>
<!-- n54 -->
<g id="node54" class="node">
<title>n54</title>
<path fill="white" stroke="black" d="M260.38,-2105C260.38,-2105 56.88,-2105 56.88,-2105 50.88,-2105 44.88,-2099 44.88,-2093 44.88,-2093 44.88,-2081 44.88,-2081 44.88,-2075 50.88,-2069 56.88,-2069 56.88,-2069 260.38,-2069 260.38,-2069 266.38,-2069 272.38,-2075 272.38,-2081 272.38,-2081 272.38,-2093 272.38,-2093 272.38,-2099 266.38,-2105 260.38,-2105"/>
<text text-anchor="middle" x="158.62" y="-2081.95" font-family="Times New Roman,serif" font-size="14.00">.github/workflows/ci_reuse_go_pr.yml</text>
</g>
<!-- n54&#45;&gt;n12 -->
<g id="edge23" class="edge">
<title>n54&#45;&gt;n12</title>
<path fill="none" stroke="black" d="M272.53,-2083.65C286.5,-2078.67 299.33,-2071.14 309.25,-2060 356.05,-2007.46 282.71,-1796.78 329.25,-1744 352.06,-1718.13 391.38,-1712.31 422.77,-1712.44"/>
<polygon fill="black" stroke="black" points="422.33,-1715.93 432.42,-1712.69 422.51,-1708.93 422.33,-1715.93"/>
</g>
<!-- n54&#45;&gt;n14 -->
<g id="edge22" class="edge">
<title>n54&#45;&gt;n14</title>
<path fill="none" stroke="black" d="M272.56,-2090.32C286.53,-2095.31 299.35,-2102.85 309.25,-2114 358.33,-2169.26 280.45,-2390.49 329.25,-2446 342.68,-2461.28 361.87,-2469.57 381.8,-2473.78"/>
<polygon fill="black" stroke="black" points="380.97,-2477.18 391.42,-2475.45 382.17,-2470.29 380.97,-2477.18"/>
</g>
<!-- n54&#45;&gt;n15 -->
<g id="edge21" class="edge">
<title>n54&#45;&gt;n15</title>
<path fill="none" stroke="black" d="M272.77,-2083.4C286.62,-2078.44 299.35,-2070.97 309.25,-2060 348.37,-2016.65 290.35,-1841.55 329.25,-1798 347.01,-1778.12 374.53,-1770.12 400.59,-1767.55"/>
<polygon fill="black" stroke="black" points="400.78,-1771.04 410.51,-1766.85 400.29,-1764.06 400.78,-1771.04"/>
</g>
<!-- n54&#45;&gt;n16 -->
<g id="edge25" class="edge">
<title>n54&#45;&gt;n16</title>
<path fill="none" stroke="black" d="M272.62,-2082.78C286.4,-2077.89 299.15,-2070.61 309.25,-2060 356.83,-2010.01 281.92,-1956.24 329.25,-1906 342.57,-1891.86 360.84,-1883.82 379.82,-1879.48"/>
<polygon fill="black" stroke="black" points="380.4,-1882.93 389.56,-1877.61 379.08,-1876.05 380.4,-1882.93"/>
</g>
<!-- n54&#45;&gt;n23 -->
<g id="edge26" class="edge">
<title>n54&#45;&gt;n23</title>
<path fill="none" stroke="black" d="M272.57,-2083.22C286.45,-2078.28 299.24,-2070.88 309.25,-2060 340.7,-2025.84 297.97,-1886.32 329.25,-1852 349.07,-1830.25 380.58,-1822.79 408.82,-1821.09"/>
<polygon fill="black" stroke="black" points="408.89,-1824.59 418.76,-1820.74 408.64,-1817.59 408.89,-1824.59"/>
</g>
<!-- n54&#45;&gt;n31 -->
<g id="edge24" class="edge">
<title>n54&#45;&gt;n31</title>
<path fill="none" stroke="black" d="M272.74,-2079.12C285.92,-2074.69 298.49,-2068.52 309.25,-2060 326.73,-2046.16 311.84,-2027.93 329.25,-2014 344.82,-2001.55 364.41,-1994.23 384.02,-1990.07"/>
<polygon fill="black" stroke="black" points="384.51,-1993.53 393.71,-1988.28 383.25,-1986.65 384.51,-1993.53"/>
</g>
<!-- n55 -->
<g id="node55" class="node">
<title>n55</title>
<path fill="white" stroke="black" d="M225.5,-2213C225.5,-2213 91.75,-2213 91.75,-2213 85.75,-2213 79.75,-2207 79.75,-2201 79.75,-2201 79.75,-2189 79.75,-2189 79.75,-2183 85.75,-2177 91.75,-2177 91.75,-2177 225.5,-2177 225.5,-2177 231.5,-2177 237.5,-2183 237.5,-2189 237.5,-2189 237.5,-2201 237.5,-2201 237.5,-2207 231.5,-2213 225.5,-2213"/>
<text text-anchor="middle" x="158.62" y="-2189.95" font-family="Times New Roman,serif" font-size="14.00">.github/workflows/cp.yml</text>
</g>
<!-- n55&#45;&gt;n13 -->
<g id="edge27" class="edge">
<title>n55&#45;&gt;n13</title>
<path fill="none" stroke="black" d="M237.7,-2177.51C279.5,-2170.38 331.31,-2162.6 375.45,-2156.8"/>
<polygon fill="black" stroke="black" points="375.82,-2160.28 385.29,-2155.53 374.92,-2153.34 375.82,-2160.28"/>
</g>
<!-- n55&#45;&gt;n13 -->
<g id="edge30" class="edge">
<title>n55&#45;&gt;n13</title>
<path fill="none" stroke="black" d="M237.7,-2189.39C279.5,-2184.16 331.31,-2176.61 375.45,-2169.35"/>
<polygon fill="black" stroke="black" points="376,-2172.81 385.29,-2167.72 374.86,-2165.9 376,-2172.81"/>
</g>
<!-- n55&#45;&gt;n17 -->
<g id="edge29" class="edge">
<title>n55&#45;&gt;n17</title>
<path fill="none" stroke="black" d="M237.85,-2195.08C262.83,-2191.62 289.17,-2183.89 309.25,-2168 326.73,-2154.16 311.84,-2135.93 329.25,-2122 347.78,-2107.18 372.02,-2099.64 395.17,-2096.01"/>
<polygon fill="black" stroke="black" points="395.47,-2099.51 404.93,-2094.73 394.56,-2092.57 395.47,-2099.51"/>
</g>
<!-- n55&#45;&gt;n18 -->
<g id="edge28" class="edge">
<title>n55&#45;&gt;n18</title>
<path fill="none" stroke="black" d="M237.7,-2197.01C294.17,-2198.46 368.93,-2200.38 418.34,-2201.65"/>
<polygon fill="black" stroke="black" points="418.11,-2205.15 428.2,-2201.91 418.29,-2198.15 418.11,-2205.15"/>
</g>
<!-- n56 -->
<g id="node56" class="node">
<title>n56</title>
<path fill="white" stroke="black" d="M252.12,-2321C252.12,-2321 65.12,-2321 65.12,-2321 59.12,-2321 53.12,-2315 53.12,-2309 53.12,-2309 53.12,-2297 53.12,-2297 53.12,-2291 59.12,-2285 65.12,-2285 65.12,-2285 252.12,-2285 252.12,-2285 258.12,-2285 264.12,-2291 264.12,-2297 264.12,-2297 264.12,-2309 264.12,-2309 264.12,-2315 258.12,-2321 252.12,-2321"/>
<text text-anchor="middle" x="158.62" y="-2297.95" font-family="Times New Roman,serif" font-size="14.00">.github/workflows/create_issue.yml</text>
</g>
<!-- n56&#45;&gt;n19 -->
<g id="edge31" class="edge">
<title>n56&#45;&gt;n19</title>
<path fill="none" stroke="black" d="M264.48,-2305.7C307.33,-2306.8 355.95,-2308.05 395.2,-2309.06"/>
<polygon fill="black" stroke="black" points="394.94,-2312.55 405.02,-2309.31 395.12,-2305.56 394.94,-2312.55"/>
</g>
<!-- n57 -->
<g id="node57" class="node">
<title>n57</title>
<path fill="white" stroke="black" d="M224.38,-2159C224.38,-2159 92.88,-2159 92.88,-2159 86.88,-2159 80.88,-2153 80.88,-2147 80.88,-2147 80.88,-2135 80.88,-2135 80.88,-2129 86.88,-2123 92.88,-2123 92.88,-2123 224.38,-2123 224.38,-2123 230.38,-2123 236.38,-2129 236.38,-2135 236.38,-2135 236.38,-2147 236.38,-2147 236.38,-2153 230.38,-2159 224.38,-2159"/>
<text text-anchor="middle" x="158.62" y="-2135.95" font-family="Times New Roman,serif" font-size="14.00">.github/workflows/rc.yml</text>
</g>
<!-- n57&#45;&gt;n13 -->
<g id="edge32" class="edge">
<title>n57&#45;&gt;n13</title>
<path fill="none" stroke="black" d="M236.5,-2137.06C278.45,-2137.17 330.75,-2138.39 375.28,-2140.27"/>
<polygon fill="black" stroke="black" points="375.06,-2143.76 385.21,-2140.71 375.37,-2136.77 375.06,-2143.76"/>
</g>
<!-- n57&#45;&gt;n13 -->
<g id="edge35" class="edge">
<title>n57&#45;&gt;n13</title>
<path fill="none" stroke="black" d="M236.5,-2148.89C278.45,-2150.95 330.75,-2152.41 375.28,-2152.83"/>
<polygon fill="black" stroke="black" points="375.18,-2156.33 385.2,-2152.9 375.23,-2149.33 375.18,-2156.33"/>
</g>
<!-- n57&#45;&gt;n17 -->
<g id="edge34" class="edge">
<title>n57&#45;&gt;n17</title>
<path fill="none" stroke="black" d="M236.5,-2129.63C284.79,-2122.49 346.82,-2113.31 394.89,-2106.2"/>
<polygon fill="black" stroke="black" points="395.29,-2109.68 404.67,-2104.76 394.27,-2102.76 395.29,-2109.68"/>
</g>
<!-- n57&#45;&gt;n28 -->
<g id="edge33" class="edge">
<title>n57&#45;&gt;n28</title>
<path fill="none" stroke="black" d="M236.69,-2141.24C262.01,-2137.85 288.86,-2130.14 309.25,-2114 326.73,-2100.16 311.84,-2081.93 329.25,-2068 354.4,-2047.88 390.06,-2041.18 419.28,-2039.48"/>
<polygon fill="black" stroke="black" points="419.16,-2042.99 429.02,-2039.11 418.89,-2035.99 419.16,-2042.99"/>
</g>
<!-- n58 -->
<g id="node58" class="node">
<title>n58</title>
<path fill="white" stroke="black" d="M235.62,-1372C235.62,-1372 81.62,-1372 81.62,-1372 75.62,-1372 69.62,-1366 69.62,-1360 69.62,-1360 69.62,-1348 69.62,-1348 69.62,-1342 75.62,-1336 81.62,-1336 81.62,-1336 235.62,-1336 235.62,-1336 241.62,-1336 247.62,-1342 247.62,-1348 247.62,-1348 247.62,-1360 247.62,-1360 247.62,-1366 241.62,-1372 235.62,-1372"/>
<text text-anchor="middle" x="158.62" y="-1348.95" font-family="Times New Roman,serif" font-size="14.00">.github/workflows/cd_go.yml</text>
</g>
<!-- n58&#45;&gt;n20 -->
<g id="edge36" class="edge">
<title>n58&#45;&gt;n20</title>
<path fill="none" stroke="black" d="M247.91,-1365.07C285.51,-1369.79 329.59,-1375.31 368.57,-1380.2"/>
<polygon fill="black" stroke="black" points="368.09,-1383.67 378.45,-1381.44 368.96,-1376.72 368.09,-1383.67"/>
</g>
<!-- n59 -->
<g id="node59" class="node">
<title>n59</title>
<path fill="white" stroke="black" d="M239,-1426C239,-1426 78.25,-1426 78.25,-1426 72.25,-1426 66.25,-1420 66.25,-1414 66.25,-1414 66.25,-1402 66.25,-1402 66.25,-1396 72.25,-1390 78.25,-1390 78.25,-1390 239,-1390 239,-1390 245,-1390 251,-1396 251,-1402 251,-1402 251,-1414 251,-1414 251,-1420 245,-1426 239,-1426"/>
<text text-anchor="middle" x="158.62" y="-1402.95" font-family="Times New Roman,serif" font-size="14.00">.github/workflows/cdd_go.yml</text>
</g>
<!-- n59&#45;&gt;n20 -->
<g id="edge37" class="edge">
<title>n59&#45;&gt;n20</title>
<path fill="none" stroke="black" d="M251.25,-1403.58C288.19,-1401.8 330.95,-1399.74 368.85,-1397.91"/>
<polygon fill="black" stroke="black" points="368.59,-1401.43 378.41,-1397.45 368.25,-1394.43 368.59,-1401.43"/>
</g>
<!-- n60 -->
<g id="node60" class="node">
<title>n60</title>
<path fill="white" stroke="black" d="M224,-1642C224,-1642 93.25,-1642 93.25,-1642 87.25,-1642 81.25,-1636 81.25,-1630 81.25,-1630 81.25,-1618 81.25,-1618 81.25,-1612 87.25,-1606 93.25,-1606 93.25,-1606 224,-1606 224,-1606 230,-1606 236,-1612 236,-1618 236,-1618 236,-1630 236,-1630 236,-1636 230,-1642 224,-1642"/>
<text text-anchor="middle" x="158.62" y="-1618.95" font-family="Times New Roman,serif" font-size="14.00">.github/workflows/ci.yml</text>
</g>
<!-- n60&#45;&gt;n6 -->
<g id="edge38" class="edge">
<title>n60&#45;&gt;n6</title>
<path fill="none" stroke="black" d="M236.1,-1620.31C268.29,-1618.76 306.64,-1616.91 342.9,-1615.16"/>
<polygon fill="black" stroke="black" points="342.75,-1618.67 352.56,-1614.69 342.41,-1611.68 342.75,-1618.67"/>
</g>
<!-- n61 -->
<g id="node61" class="node">
<title>n61</title>
<path fill="white" stroke="black" d="M261.5,-1750C261.5,-1750 55.75,-1750 55.75,-1750 49.75,-1750 43.75,-1744 43.75,-1738 43.75,-1738 43.75,-1726 43.75,-1726 43.75,-1720 49.75,-1714 55.75,-1714 55.75,-1714 261.5,-1714 261.5,-1714 267.5,-1714 273.5,-1720 273.5,-1726 273.5,-1726 273.5,-1738 273.5,-1738 273.5,-1744 267.5,-1750 261.5,-1750"/>
<text text-anchor="middle" x="158.62" y="-1726.95" font-family="Times New Roman,serif" font-size="14.00">.github/workflows/close_cprelease.yml</text>
</g>
<!-- n61&#45;&gt;n17 -->
<g id="edge39" class="edge">
<title>n61&#45;&gt;n17</title>
<path fill="none" stroke="black" d="M273.99,-1735.9C287.39,-1740.88 299.67,-1748.27 309.25,-1759 355.06,-1810.35 283.7,-2016.42 329.25,-2068 345.67,-2086.6 370.62,-2094.83 395.02,-2097.94"/>
<polygon fill="black" stroke="black" points="394.35,-2101.39 404.65,-2098.88 395.03,-2094.43 394.35,-2101.39"/>
</g>
<!-- n62 -->
<g id="node62" class="node">
<title>n62</title>
<path fill="white" stroke="black" d="M225.5,-1534C225.5,-1534 91.75,-1534 91.75,-1534 85.75,-1534 79.75,-1528 79.75,-1522 79.75,-1522 79.75,-1510 79.75,-1510 79.75,-1504 85.75,-1498 91.75,-1498 91.75,-1498 225.5,-1498 225.5,-1498 231.5,-1498 237.5,-1504 237.5,-1510 237.5,-1510 237.5,-1522 237.5,-1522 237.5,-1528 231.5,-1534 225.5,-1534"/>
<text text-anchor="middle" x="158.62" y="-1510.95" font-family="Times New Roman,serif" font-size="14.00">.github/workflows/cp.yml</text>
</g>
<!-- n62&#45;&gt;n9 -->
<g id="edge40" class="edge">
<title>n62&#45;&gt;n9</title>
<path fill="none" stroke="black" d="M237.7,-1512.23C281.33,-1510.13 335.87,-1507.5 381.2,-1505.31"/>
<polygon fill="black" stroke="black" points="381.18,-1508.82 391,-1504.84 380.85,-1501.83 381.18,-1508.82"/>
</g>
<!-- n63 -->
<g id="node63" class="node">
<title>n63</title>
<path fill="white" stroke="black" d="M253.62,-1804C253.62,-1804 63.62,-1804 63.62,-1804 57.62,-1804 51.62,-1798 51.62,-1792 51.62,-1792 51.62,-1780 51.62,-1780 51.62,-1774 57.62,-1768 63.62,-1768 63.62,-1768 253.62,-1768 253.62,-1768 259.62,-1768 265.62,-1774 265.62,-1780 265.62,-1780 265.62,-1792 265.62,-1792 265.62,-1798 259.62,-1804 253.62,-1804"/>
<text text-anchor="middle" x="158.62" y="-1780.95" font-family="Times New Roman,serif" font-size="14.00">.github/workflows/nightly_tests.yml</text>
</g>
<!-- n63&#45;&gt;n10 -->
<g id="edge42" class="edge">
<title>n63&#45;&gt;n10</title>
<path fill="none" stroke="black" d="M260.49,-1804.47C279.54,-1812.59 297.23,-1824.25 309.25,-1841 358.94,-1910.27 274.06,-2543.02 329.25,-2608 336.45,-2616.48 345.43,-2622.83 355.34,-2627.53"/>
<polygon fill="black" stroke="black" points="353.99,-2630.76 364.57,-2631.28 356.63,-2624.27 353.99,-2630.76"/>
</g>
<!-- n63&#45;&gt;n12 -->
<g id="edge41" class="edge">
<title>n63&#45;&gt;n12</title>
<path fill="none" stroke="black" d="M266.09,-1773.12C280.92,-1769.52 295.7,-1764.91 309.25,-1759 319.44,-1754.56 319.09,-1748.49 329.25,-1744 358.88,-1730.91 394.75,-1724.15 422.95,-1720.67"/>
<polygon fill="black" stroke="black" points="423.08,-1724.18 432.63,-1719.58 422.3,-1717.22 423.08,-1724.18"/>
</g>
<!-- n64 -->
<g id="node64" class="node">
<title>n64</title>
<path fill="white" stroke="black" d="M224.38,-1480C224.38,-1480 92.88,-1480 92.88,-1480 86.88,-1480 80.88,-1474 80.88,-1468 80.88,-1468 80.88,-1456 80.88,-1456 80.88,-1450 86.88,-1444 92.88,-1444 92.88,-1444 224.38,-1444 224.38,-1444 230.38,-1444 236.38,-1450 236.38,-1456 236.38,-1456 236.38,-1468 236.38,-1468 236.38,-1474 230.38,-1480 224.38,-1480"/>
<text text-anchor="middle" x="158.62" y="-1456.95" font-family="Times New Roman,serif" font-size="14.00">.github/workflows/rc.yml</text>
</g>
<!-- n64&#45;&gt;n11 -->
<g id="edge43" class="edge">
<title>n64&#45;&gt;n11</title>
<path fill="none" stroke="black" d="M236.5,-1458.29C280.61,-1456.16 336.17,-1453.48 382.1,-1451.27"/>
<polygon fill="black" stroke="black" points="382.22,-1454.77 392.04,-1450.79 381.89,-1447.78 382.22,-1454.77"/>
</g>
<!-- n65 -->
<g id="node65" class="node">
<title>n65</title>
<path fill="white" stroke="black" d="M289.25,-1588C289.25,-1588 28,-1588 28,-1588 22,-1588 16,-1582 16,-1576 16,-1576 16,-1564 16,-1564 16,-1558 22,-1552 28,-1552 28,-1552 289.25,-1552 289.25,-1552 295.25,-1552 301.25,-1558 301.25,-1564 301.25,-1564 301.25,-1576 301.25,-1576 301.25,-1582 295.25,-1588 289.25,-1588"/>
<text text-anchor="middle" x="158.62" y="-1564.95" font-family="Times New Roman,serif" font-size="14.00">.github/workflows/update_baseline_schemas.yml</text>
</g>
<!-- n65&#45;&gt;n29 -->
<g id="edge44" class="edge">
<title>n65&#45;&gt;n29</title>
<path fill="none" stroke="black" d="M301.47,-1563.16C323.74,-1562.08 346.39,-1560.99 367.57,-1559.97"/>
<polygon fill="black" stroke="black" points="367.5,-1563.48 377.32,-1559.5 367.16,-1556.49 367.5,-1563.48"/>
</g>
<!-- n66 -->
<g id="node66" class="node">
<title>n66</title>
<path fill="white" stroke="black" d="M273.5,-1318C273.5,-1318 43.75,-1318 43.75,-1318 37.75,-1318 31.75,-1312 31.75,-1306 31.75,-1306 31.75,-1294 31.75,-1294 31.75,-1288 37.75,-1282 43.75,-1282 43.75,-1282 273.5,-1282 273.5,-1282 279.5,-1282 285.5,-1288 285.5,-1294 285.5,-1294 285.5,-1306 285.5,-1306 285.5,-1312 279.5,-1318 273.5,-1318"/>
<text text-anchor="middle" x="158.62" y="-1294.95" font-family="Times New Roman,serif" font-size="14.00">.github/workflows/update_config_sync.yml</text>
</g>
<!-- n66&#45;&gt;n35 -->
<g id="edge45" class="edge">
<title>n66&#45;&gt;n35</title>
<path fill="none" stroke="black" d="M285.67,-1315.81C320.16,-1320.13 356.66,-1324.71 388.04,-1328.64"/>
<polygon fill="black" stroke="black" points="387.49,-1332.1 397.85,-1329.87 388.36,-1325.16 387.49,-1332.1"/>
</g>
<!-- n67 -->
<g id="node67" class="node">
<title>n67</title>
<path fill="white" stroke="black" d="M261.88,-1696C261.88,-1696 55.38,-1696 55.38,-1696 49.38,-1696 43.38,-1690 43.38,-1684 43.38,-1684 43.38,-1672 43.38,-1672 43.38,-1666 49.38,-1660 55.38,-1660 55.38,-1660 261.88,-1660 261.88,-1660 267.88,-1660 273.88,-1666 273.88,-1672 273.88,-1672 273.88,-1684 273.88,-1684 273.88,-1690 267.88,-1696 261.88,-1696"/>
<text text-anchor="middle" x="158.62" y="-1672.95" font-family="Times New Roman,serif" font-size="14.00">.github/workflows/update_voedger.yml</text>
</g>
<!-- n67&#45;&gt;n12 -->
<g id="edge47" class="edge">
<title>n67&#45;&gt;n12</title>
<path fill="none" stroke="black" d="M274.1,-1692.36C325.38,-1698.79 383.07,-1706.02 422.61,-1710.98"/>
<polygon fill="black" stroke="black" points="422.16,-1714.45 432.52,-1712.22 423.03,-1707.5 422.16,-1714.45"/>
</g>
<!-- n67&#45;&gt;n34 -->
<g id="edge46" class="edge">
<title>n67&#45;&gt;n34</title>
<path fill="none" stroke="black" d="M274.1,-1672.48C305.88,-1670.95 340.12,-1669.29 370.97,-1667.81"/>
<polygon fill="black" stroke="black" points="370.84,-1671.32 380.66,-1667.34 370.51,-1664.32 370.84,-1671.32"/>
</g>
<!-- n68 -->
<g id="node68" class="node">
<title>n68</title>
<path fill="white" stroke="black" d="M225.5,-1071C225.5,-1071 91.75,-1071 91.75,-1071 85.75,-1071 79.75,-1065 79.75,-1059 79.75,-1059 79.75,-1047 79.75,-1047 79.75,-1041 85.75,-1035 91.75,-1035 91.75,-1035 225.5,-1035 225.5,-1035 231.5,-1035 237.5,-1041 237.5,-1047 237.5,-1047 237.5,-1059 237.5,-1059 237.5,-1065 231.5,-1071 225.5,-1071"/>
<text text-anchor="middle" x="158.62" y="-1047.95" font-family="Times New Roman,serif" font-size="14.00">.github/workflows/cd.yml</text>
</g>
<!-- n68&#45;&gt;n20 -->
<g id="edge48" class="edge">
<title>n68&#45;&gt;n20</title>
<path fill="none" stroke="black" d="M237.79,-1048.84C264.14,-1051.68 291.36,-1060.05 309.25,-1080 351.79,-1127.43 286.96,-1318.35 329.25,-1366 339.9,-1378 354.09,-1385.67 369.39,-1390.44"/>
<polygon fill="black" stroke="black" points="368.1,-1393.72 378.66,-1392.91 369.9,-1386.96 368.1,-1393.72"/>
</g>
<!-- n69 -->
<g id="node69" class="node">
<title>n69</title>
<path fill="white" stroke="black" d="M228.88,-1017C228.88,-1017 88.38,-1017 88.38,-1017 82.38,-1017 76.38,-1011 76.38,-1005 76.38,-1005 76.38,-993 76.38,-993 76.38,-987 82.38,-981 88.38,-981 88.38,-981 228.88,-981 228.88,-981 234.88,-981 240.88,-987 240.88,-993 240.88,-993 240.88,-1005 240.88,-1005 240.88,-1011 234.88,-1017 228.88,-1017"/>
<text text-anchor="middle" x="158.62" y="-993.95" font-family="Times New Roman,serif" font-size="14.00">.github/workflows/cdd.yml</text>
</g>
<!-- n69&#45;&gt;n20 -->
<g id="edge50" class="edge">
<title>n69&#45;&gt;n20</title>
<path fill="none" stroke="black" d="M241.03,-995.09C266.4,-998.24 292.17,-1006.75 309.25,-1026 359.47,-1082.63 279.32,-1309.12 329.25,-1366 339.83,-1378.05 353.99,-1385.76 369.28,-1390.54"/>
<polygon fill="black" stroke="black" points="367.98,-1393.82 378.54,-1393.01 369.78,-1387.05 367.98,-1393.82"/>
</g>
<!-- n69&#45;&gt;n35 -->
<g id="edge49" class="edge">
<title>n69&#45;&gt;n35</title>
<path fill="none" stroke="black" d="M241.3,-995.25C266.53,-998.45 292.16,-1006.94 309.25,-1026 351.79,-1073.43 286.96,-1264.35 329.25,-1312 344.15,-1328.79 366,-1337.12 388.09,-1340.86"/>
<polygon fill="black" stroke="black" points="387.39,-1344.3 397.77,-1342.18 388.33,-1337.36 387.39,-1344.3"/>
</g>
<!-- n70 -->
<g id="node70" class="node">
<title>n70</title>
<path fill="white" stroke="black" d="M224,-963C224,-963 93.25,-963 93.25,-963 87.25,-963 81.25,-957 81.25,-951 81.25,-951 81.25,-939 81.25,-939 81.25,-933 87.25,-927 93.25,-927 93.25,-927 224,-927 224,-927 230,-927 236,-933 236,-939 236,-939 236,-951 236,-951 236,-957 230,-963 224,-963"/>
<text text-anchor="middle" x="158.62" y="-939.95" font-family="Times New Roman,serif" font-size="14.00">.github/workflows/ci.yml</text>
</g>
<!-- n70&#45;&gt;n4 -->
<g id="edge51" class="edge">
<title>n70&#45;&gt;n4</title>
<path fill="none" stroke="black" d="M236.24,-940.68C263.06,-943.35 291.01,-951.66 309.25,-972 351.79,-1019.43 286.96,-1210.35 329.25,-1258 339.03,-1269.02 351.81,-1276.4 365.68,-1281.22"/>
<polygon fill="black" stroke="black" points="364.44,-1284.5 375.02,-1284 366.44,-1277.79 364.44,-1284.5"/>
</g>
<!-- n71 -->
<g id="node71" class="node">
<title>n71</title>
<path fill="white" stroke="black" d="M225.5,-1179C225.5,-1179 91.75,-1179 91.75,-1179 85.75,-1179 79.75,-1173 79.75,-1167 79.75,-1167 79.75,-1155 79.75,-1155 79.75,-1149 85.75,-1143 91.75,-1143 91.75,-1143 225.5,-1143 225.5,-1143 231.5,-1143 237.5,-1149 237.5,-1155 237.5,-1155 237.5,-1167 237.5,-1167 237.5,-1173 231.5,-1179 225.5,-1179"/>
<text text-anchor="middle" x="158.62" y="-1155.95" font-family="Times New Roman,serif" font-size="14.00">.github/workflows/cp.yml</text>
</g>
<!-- n71&#45;&gt;n9 -->
<g id="edge52" class="edge">
<title>n71&#45;&gt;n9</title>
<path fill="none" stroke="black" d="M237.79,-1156.84C264.14,-1159.68 291.36,-1168.05 309.25,-1188 351.79,-1235.43 286.96,-1426.35 329.25,-1474 342.55,-1488.99 361.4,-1497.24 381.01,-1501.49"/>
<polygon fill="black" stroke="black" points="380.32,-1504.93 390.78,-1503.25 381.56,-1498.04 380.32,-1504.93"/>
</g>
<!-- n72 -->
<g id="node72" class="node">
<title>n72</title>
<path fill="white" stroke="black" d="M259.25,-1233C259.25,-1233 58,-1233 58,-1233 52,-1233 46,-1227 46,-1221 46,-1221 46,-1209 46,-1209 46,-1203 52,-1197 58,-1197 58,-1197 259.25,-1197 259.25,-1197 265.25,-1197 271.25,-1203 271.25,-1209 271.25,-1209 271.25,-1221 271.25,-1221 271.25,-1227 265.25,-1233 259.25,-1233"/>
<text text-anchor="middle" x="158.62" y="-1209.95" font-family="Times New Roman,serif" font-size="14.00">.github/workflows/cronecprelease.yml</text>
</g>
<!-- n72&#45;&gt;n9 -->
<g id="edge53" class="edge">
<title>n72&#45;&gt;n9</title>
<path fill="none" stroke="black" d="M258.05,-1233.5C277.73,-1241.6 296.3,-1253.25 309.25,-1270 337.11,-1306.04 298.54,-1440.36 329.25,-1474 342.76,-1488.8 361.68,-1496.98 381.3,-1501.23"/>
<polygon fill="black" stroke="black" points="380.62,-1504.66 391.08,-1502.98 381.85,-1497.77 380.62,-1504.66"/>
</g>
<!-- n73 -->
<g id="node73" class="node">
<title>n73</title>
<path fill="white" stroke="black" d="M224.38,-1125C224.38,-1125 92.88,-1125 92.88,-1125 86.88,-1125 80.88,-1119 80.88,-1113 80.88,-1113 80.88,-1101 80.88,-1101 80.88,-1095 86.88,-1089 92.88,-1089 92.88,-1089 224.38,-1089 224.38,-1089 230.38,-1089 236.38,-1095 236.38,-1101 236.38,-1101 236.38,-1113 236.38,-1113 236.38,-1119 230.38,-1125 224.38,-1125"/>
<text text-anchor="middle" x="158.62" y="-1101.95" font-family="Times New Roman,serif" font-size="14.00">.github/workflows/rc.yml</text>
</g>
<!-- n73&#45;&gt;n11 -->
<g id="edge54" class="edge">
<title>n73&#45;&gt;n11</title>
<path fill="none" stroke="black" d="M236.63,-1102.72C263.33,-1105.44 291.1,-1113.76 309.25,-1134 351.79,-1181.43 286.96,-1372.35 329.25,-1420 342.83,-1435.29 362.17,-1443.57 382.21,-1447.75"/>
<polygon fill="black" stroke="black" points="381.44,-1451.17 391.89,-1449.41 382.63,-1444.27 381.44,-1451.17"/>
</g>
<!-- n74 -->
<g id="node74" class="node">
<title>n74</title>
<path fill="white" stroke="black" d="M251.38,-662C251.38,-662 65.88,-662 65.88,-662 59.88,-662 53.88,-656 53.88,-650 53.88,-650 53.88,-638 53.88,-638 53.88,-632 59.88,-626 65.88,-626 65.88,-626 251.38,-626 251.38,-626 257.38,-626 263.38,-632 263.38,-638 263.38,-638 263.38,-650 263.38,-650 263.38,-656 257.38,-662 251.38,-662"/>
<text text-anchor="middle" x="158.62" y="-638.95" font-family="Times New Roman,serif" font-size="14.00">.github/workflows/cd&#45;payment.yml</text>
</g>
<!-- n74&#45;&gt;n20 -->
<g id="edge56" class="edge">
<title>n74&#45;&gt;n20</title>
<path fill="none" stroke="black" d="M263.87,-644.18C281.26,-648.99 297.46,-657.29 309.25,-671 359.64,-729.56 279.16,-1307.18 329.25,-1366 339.71,-1378.29 353.9,-1386.09 369.26,-1390.9"/>
<polygon fill="black" stroke="black" points="368.03,-1394.19 378.59,-1393.37 369.82,-1387.43 368.03,-1394.19"/>
</g>
<!-- n75 -->
<g id="node75" class="node">
<title>n75</title>
<path fill="white" stroke="black" d="M247.25,-716C247.25,-716 70,-716 70,-716 64,-716 58,-710 58,-704 58,-704 58,-692 58,-692 58,-686 64,-680 70,-680 70,-680 247.25,-680 247.25,-680 253.25,-680 259.25,-686 259.25,-692 259.25,-692 259.25,-704 259.25,-704 259.25,-710 253.25,-716 247.25,-716"/>
<text text-anchor="middle" x="158.62" y="-692.95" font-family="Times New Roman,serif" font-size="14.00">.github/workflows/cd&#45;reseller.yml</text>
</g>
<!-- n75&#45;&gt;n20 -->
<g id="edge57" class="edge">
<title>n75&#45;&gt;n20</title>
<path fill="none" stroke="black" d="M259.63,-697.11C278.61,-701.71 296.49,-710.21 309.25,-725 355.79,-778.96 282.98,-1311.81 329.25,-1366 339.73,-1378.28 353.92,-1386.08 369.29,-1390.88"/>
<polygon fill="black" stroke="black" points="368.05,-1394.17 378.61,-1393.35 369.85,-1387.4 368.05,-1394.17"/>
</g>
<!-- n76 -->
<g id="node76" class="node">
<title>n76</title>
<path fill="white" stroke="black" d="M254.75,-554C254.75,-554 62.5,-554 62.5,-554 56.5,-554 50.5,-548 50.5,-542 50.5,-542 50.5,-530 50.5,-530 50.5,-524 56.5,-518 62.5,-518 62.5,-518 254.75,-518 254.75,-518 260.75,-518 266.75,-524 266.75,-530 266.75,-530 266.75,-542 266.75,-542 266.75,-548 260.75,-554 254.75,-554"/>
<text text-anchor="middle" x="158.62" y="-530.95" font-family="Times New Roman,serif" font-size="14.00">.github/workflows/cdd&#45;payment.yml</text>
</g>
<!-- n76&#45;&gt;n20 -->
<g id="edge59" class="edge">
<title>n76&#45;&gt;n20</title>
<path fill="none" stroke="black" d="M266.94,-537.02C283.18,-541.95 298.17,-550.07 309.25,-563 367.33,-630.77 271.52,-1297.94 329.25,-1366 339.69,-1378.31 353.86,-1386.12 369.22,-1390.93"/>
<polygon fill="black" stroke="black" points="367.98,-1394.22 378.55,-1393.41 369.78,-1387.46 367.98,-1394.22"/>
</g>
<!-- n76&#45;&gt;n35 -->
<g id="edge58" class="edge">
<title>n76&#45;&gt;n35</title>
<path fill="none" stroke="black" d="M266.92,-537.04C283.16,-541.96 298.16,-550.08 309.25,-563 363.48,-626.16 275.34,-1248.56 329.25,-1312 343.85,-1329.18 365.73,-1337.61 387.94,-1341.31"/>
<polygon fill="black" stroke="black" points="387.32,-1344.76 397.69,-1342.61 388.24,-1337.82 387.32,-1344.76"/>
</g>
<!-- n77 -->
<g id="node77" class="node">
<title>n77</title>
<path fill="white" stroke="black" d="M250.62,-608C250.62,-608 66.62,-608 66.62,-608 60.62,-608 54.62,-602 54.62,-596 54.62,-596 54.62,-584 54.62,-584 54.62,-578 60.62,-572 66.62,-572 66.62,-572 250.62,-572 250.62,-572 256.62,-572 262.62,-578 262.62,-584 262.62,-584 262.62,-596 262.62,-596 262.62,-602 256.62,-608 250.62,-608"/>
<text text-anchor="middle" x="158.62" y="-584.95" font-family="Times New Roman,serif" font-size="14.00">.github/workflows/cdd&#45;reseller.yml</text>
</g>
<!-- n77&#45;&gt;n20 -->
<g id="edge61" class="edge">
<title>n77&#45;&gt;n20</title>
<path fill="none" stroke="black" d="M262.74,-589.85C280.57,-594.61 297.21,-602.98 309.25,-617 363.48,-680.16 275.34,-1302.56 329.25,-1366 339.7,-1378.3 353.88,-1386.11 369.24,-1390.92"/>
<polygon fill="black" stroke="black" points="368,-1394.21 378.57,-1393.39 369.8,-1387.44 368,-1394.21"/>
</g>
<!-- n77&#45;&gt;n35 -->
<g id="edge60" class="edge">
<title>n77&#45;&gt;n35</title>
<path fill="none" stroke="black" d="M263.1,-589.97C280.79,-594.75 297.28,-603.09 309.25,-617 359.64,-675.56 279.16,-1253.18 329.25,-1312 343.87,-1329.17 365.76,-1337.59 387.96,-1341.29"/>
<polygon fill="black" stroke="black" points="387.34,-1344.74 397.71,-1342.59 388.26,-1337.8 387.34,-1344.74"/>
</g>
<!-- n78 -->
<g id="node78" class="node">
<title>n78</title>
<path fill="white" stroke="black" d="M224,-446C224,-446 93.25,-446 93.25,-446 87.25,-446 81.25,-440 81.25,-434 81.25,-434 81.25,-422 81.25,-422 81.25,-416 87.25,-410 93.25,-410 93.25,-410 224,-410 224,-410 230,-410 236,-416 236,-422 236,-422 236,-434 236,-434 236,-440 230,-446 224,-446"/>
<text text-anchor="middle" x="158.62" y="-422.95" font-family="Times New Roman,serif" font-size="14.00">.github/workflows/ci.yml</text>
</g>
<!-- n78&#45;&gt;n4 -->
<g id="edge62" class="edge">
<title>n78&#45;&gt;n4</title>
<path fill="none" stroke="black" d="M236.34,-423.21C263.34,-425.79 291.39,-434.16 309.25,-455 367.33,-522.77 271.52,-1189.94 329.25,-1258 338.85,-1269.31 351.59,-1276.83 365.52,-1281.71"/>
<polygon fill="black" stroke="black" points="364.33,-1285 374.91,-1284.5 366.33,-1278.29 364.33,-1285"/>
</g>
<!-- n79 -->
<g id="node79" class="node">
<title>n79</title>
<path fill="white" stroke="black" d="M251,-500C251,-500 66.25,-500 66.25,-500 60.25,-500 54.25,-494 54.25,-488 54.25,-488 54.25,-476 54.25,-476 54.25,-470 60.25,-464 66.25,-464 66.25,-464 251,-464 251,-464 257,-464 263,-470 263,-476 263,-476 263,-488 263,-488 263,-494 257,-500 251,-500"/>
<text text-anchor="middle" x="158.62" y="-476.95" font-family="Times New Roman,serif" font-size="14.00">.github/workflows/ci_payment.yml</text>
</g>
<!-- n79&#45;&gt;n4 -->
<g id="edge63" class="edge">
<title>n79&#45;&gt;n4</title>
<path fill="none" stroke="black" d="M263.13,-481.95C280.81,-486.73 297.3,-495.08 309.25,-509 363.48,-572.16 275.34,-1194.56 329.25,-1258 338.86,-1269.3 351.61,-1276.82 365.54,-1281.69"/>
<polygon fill="black" stroke="black" points="364.35,-1284.99 374.93,-1284.49 366.34,-1278.28 364.35,-1284.99"/>
</g>
<!-- n80 -->
<g id="node80" class="node">
<title>n80</title>
<path fill="white" stroke="black" d="M246.88,-392C246.88,-392 70.38,-392 70.38,-392 64.38,-392 58.38,-386 58.38,-380 58.38,-380 58.38,-368 58.38,-368 58.38,-362 64.38,-356 70.38,-356 70.38,-356 246.88,-356 246.88,-356 252.88,-356 258.88,-362 258.88,-368 258.88,-368 258.88,-380 258.88,-380 258.88,-386 252.88,-392 246.88,-392"/>
<text text-anchor="middle" x="158.62" y="-368.95" font-family="Times New Roman,serif" font-size="14.00">.github/workflows/ci_reseller.yml</text>
</g>
<!-- n80&#45;&gt;n4 -->
<g id="edge64" class="edge">
<title>n80&#45;&gt;n4</title>
<path fill="none" stroke="black" d="M259.33,-372.94C278.45,-377.53 296.46,-386.06 309.25,-401 340.21,-437.18 298.47,-1221.66 329.25,-1258 338.84,-1269.32 351.58,-1276.84 365.5,-1281.72"/>
<polygon fill="black" stroke="black" points="364.31,-1285.02 374.89,-1284.52 366.31,-1278.31 364.31,-1285.02"/>
</g>
<!-- n81 -->
<g id="node81" class="node">
<title>n81</title>
<path fill="white" stroke="black" d="M225.5,-824C225.5,-824 91.75,-824 91.75,-824 85.75,-824 79.75,-818 79.75,-812 79.75,-812 79.75,-800 79.75,-800 79.75,-794 85.75,-788 91.75,-788 91.75,-788 225.5,-788 225.5,-788 231.5,-788 237.5,-794 237.5,-800 237.5,-800 237.5,-812 237.5,-812 237.5,-818 231.5,-824 225.5,-824"/>
<text text-anchor="middle" x="158.62" y="-800.95" font-family="Times New Roman,serif" font-size="14.00">.github/workflows/cp.yml</text>
</g>
<!-- n81&#45;&gt;n9 -->
<g id="edge65" class="edge">
<title>n81&#45;&gt;n9</title>
<path fill="none" stroke="black" d="M237.83,-801.42C264.34,-804.18 291.66,-812.61 309.25,-833 355.79,-886.96 282.98,-1419.81 329.25,-1474 342.46,-1489.47 361.57,-1497.84 381.49,-1502.04"/>
<polygon fill="black" stroke="black" points="380.66,-1505.45 391.11,-1503.72 381.86,-1498.56 380.66,-1505.45"/>
</g>
<!-- n82 -->
<g id="node82" class="node">
<title>n82</title>
<path fill="white" stroke="black" d="M259.25,-878C259.25,-878 58,-878 58,-878 52,-878 46,-872 46,-866 46,-866 46,-854 46,-854 46,-848 52,-842 58,-842 58,-842 259.25,-842 259.25,-842 265.25,-842 271.25,-848 271.25,-854 271.25,-854 271.25,-866 271.25,-866 271.25,-872 265.25,-878 259.25,-878"/>
<text text-anchor="middle" x="158.62" y="-854.95" font-family="Times New Roman,serif" font-size="14.00">.github/workflows/cronecprelease.yml</text>
</g>
<!-- n82&#45;&gt;n9 -->
<g id="edge66" class="edge">
<title>n82&#45;&gt;n9</title>
<path fill="none" stroke="black" d="M259.98,-878.4C279.18,-886.51 297.07,-898.19 309.25,-915 345.72,-965.32 288.79,-1426.82 329.25,-1474 342.37,-1489.29 361.24,-1497.63 380.95,-1501.88"/>
<polygon fill="black" stroke="black" points="380.34,-1505.32 390.79,-1503.62 381.55,-1498.43 380.34,-1505.32"/>
</g>
<!-- n83 -->
<g id="node83" class="node">
<title>n83</title>
<path fill="white" stroke="black" d="M224.38,-770C224.38,-770 92.88,-770 92.88,-770 86.88,-770 80.88,-764 80.88,-758 80.88,-758 80.88,-746 80.88,-746 80.88,-740 86.88,-734 92.88,-734 92.88,-734 224.38,-734 224.38,-734 230.38,-734 236.38,-740 236.38,-746 236.38,-746 236.38,-758 236.38,-758 236.38,-764 230.38,-770 224.38,-770"/>
<text text-anchor="middle" x="158.62" y="-746.95" font-family="Times New Roman,serif" font-size="14.00">.github/workflows/rc.yml</text>
</g>
<!-- n83&#45;&gt;n11 -->
<g id="edge67" class="edge">
<title>n83&#45;&gt;n11</title>
<path fill="none" stroke="black" d="M236.66,-747.3C263.53,-749.94 291.41,-758.31 309.25,-779 355.79,-832.96 282.98,-1365.81 329.25,-1420 342.67,-1435.71 362.16,-1444.09 382.42,-1448.24"/>
<polygon fill="black" stroke="black" points="381.78,-1451.68 392.22,-1449.87 382.93,-1444.78 381.78,-1451.68"/>
</g>
<!-- n84 -->
<g id="node84" class="node">
<title>n84</title>
<path fill="white" stroke="black" d="M225.88,-307C225.88,-307 91.38,-307 91.38,-307 85.38,-307 79.38,-301 79.38,-295 79.38,-295 79.38,-283 79.38,-283 79.38,-277 85.38,-271 91.38,-271 91.38,-271 225.88,-271 225.88,-271 231.88,-271 237.88,-277 237.88,-283 237.88,-283 237.88,-295 237.88,-295 237.88,-301 231.88,-307 225.88,-307"/>
<text text-anchor="middle" x="158.62" y="-283.95" font-family="Times New Roman,serif" font-size="14.00">.github/workflows/go.yml</text>
</g>
<!-- n84&#45;&gt;n12 -->
<g id="edge1" class="edge">
<title>n84&#45;&gt;n12</title>
<path fill="none" stroke="black" d="M238.02,-299.42C265.06,-307.17 292.68,-320.63 309.25,-344 352.5,-405.01 281.16,-1632.73 329.25,-1690 351.5,-1716.5 391.05,-1722.23 422.68,-1721.91"/>
<polygon fill="black" stroke="black" points="422.53,-1725.41 432.41,-1721.59 422.3,-1718.42 422.53,-1725.41"/>
</g>
<!-- n85 -->
<g id="node85" class="node">
<title>n85</title>
<path fill="white" stroke="black" d="M225.88,-222C225.88,-222 91.38,-222 91.38,-222 85.38,-222 79.38,-216 79.38,-210 79.38,-210 79.38,-198 79.38,-198 79.38,-192 85.38,-186 91.38,-186 91.38,-186 225.88,-186 225.88,-186 231.88,-186 237.88,-192 237.88,-198 237.88,-198 237.88,-210 237.88,-210 237.88,-216 231.88,-222 225.88,-222"/>
<text text-anchor="middle" x="158.62" y="-198.95" font-family="Times New Roman,serif" font-size="14.00">.github/workflows/go.yml</text>
</g>
<!-- n85&#45;&gt;n12 -->
<g id="edge2" class="edge">
<title>n85&#45;&gt;n12</title>
<path fill="none" stroke="black" d="M238.03,-214.41C265.07,-222.16 292.69,-235.62 309.25,-259 355.2,-323.88 278.15,-1629.09 329.25,-1690 351.49,-1716.51 391.04,-1722.24 422.67,-1721.91"/>
<polygon fill="black" stroke="black" points="422.52,-1725.42 432.4,-1721.6 422.29,-1718.42 422.52,-1725.42"/>
</g>
<!-- n86 -->
<g id="node86" class="node">
<title>n86</title>
<path fill="white" stroke="black" d="M242.75,-137C242.75,-137 74.5,-137 74.5,-137 68.5,-137 62.5,-131 62.5,-125 62.5,-125 62.5,-113 62.5,-113 62.5,-107 68.5,-101 74.5,-101 74.5,-101 242.75,-101 242.75,-101 248.75,-101 254.75,-107 254.75,-113 254.75,-113 254.75,-125 254.75,-125 254.75,-131 248.75,-137 242.75,-137"/>
<text text-anchor="middle" x="158.62" y="-113.95" font-family="Times New Roman,serif" font-size="14.00">.github/workflows/short_go.yml</text>
</g>
<!-- n86&#45;&gt;n7 -->
<g id="edge55" class="edge">
<title>n86&#45;&gt;n7</title>
<path fill="none" stroke="black" d="M255.17,-135.22C276.24,-143.38 296.16,-155.63 309.25,-174 342.46,-220.61 292.35,-1160.25 329.25,-1204 329.42,-1204.2 329.58,-1204.39 329.75,-1204.59"/>
<polygon fill="black" stroke="black" points="327.25,-1207.03 336.84,-1211.54 332.15,-1202.04 327.25,-1207.03"/>
</g>
<!-- n87 -->
<g id="node87" class="node">
<title>n87</title>
<path fill="white" stroke="black" d="M225.5,-52C225.5,-52 91.75,-52 91.75,-52 85.75,-52 79.75,-46 79.75,-40 79.75,-40 79.75,-28 79.75,-28 79.75,-22 85.75,-16 91.75,-16 91.75,-16 225.5,-16 225.5,-16 231.5,-16 237.5,-22 237.5,-28 237.5,-28 237.5,-40 237.5,-40 237.5,-46 231.5,-52 225.5,-52"/>
<text text-anchor="middle" x="158.62" y="-28.95" font-family="Times New Roman,serif" font-size="14.00">.github/workflows/cd.yml</text>
</g>
<!-- n87&#45;&gt;n20 -->
<g id="edge69" class="edge">
<title>n87&#45;&gt;n20</title>
<path fill="none" stroke="black" d="M237.62,-44.32C264.78,-52.05 292.59,-65.53 309.25,-89 350.31,-146.87 283.6,-1311.68 329.25,-1366 339.63,-1378.36 353.78,-1386.2 369.12,-1391.01"/>
<polygon fill="black" stroke="black" points="367.88,-1394.3 378.45,-1393.49 369.68,-1387.54 367.88,-1394.3"/>
</g>
<!-- n87&#45;&gt;n35 -->
<g id="edge68" class="edge">
<title>n87&#45;&gt;n35</title>
<path fill="none" stroke="black" d="M238,-44.43C265.03,-52.18 292.67,-65.64 309.25,-89 348.59,-144.41 285.51,-1259.99 329.25,-1312 343.76,-1329.26 365.62,-1337.71 387.83,-1341.41"/>
<polygon fill="black" stroke="black" points="387.21,-1344.86 397.58,-1342.7 388.13,-1337.92 387.21,-1344.86"/>
</g>
</g>
</svg>
