<?xml version="1.0" encoding="UTF-8" standalone="no"?>
<!DOCTYPE svg PUBLIC "-//W3C//DTD SVG 1.1//EN"
 "http://www.w3.org/Graphics/SVG/1.1/DTD/svg11.dtd">
<!-- Generated by graphviz version 13.1.2 (20250808.2320)
 -->
<!-- Title: CIActionUsage Pages: 1 -->
<svg width="630pt" height="3026pt"
 viewBox="0.00 0.00 630.00 3026.00" xmlns="http://www.w3.org/2000/svg" xmlns:xlink="http://www.w3.org/1999/xlink">
<g id="graph0" class="graph" transform="scale(1 1) rotate(0) translate(4 3022)">
<title>CIActionUsage</title>
<polygon fill="white" stroke="none" points="-4,4 -4,-3022 626,-3022 626,4 -4,4"/>
<g id="clust1" class="cluster">
<title>cluster_ci_action</title>
<polygon fill="lightblue" stroke="lightblue" points="329.25,-413 329.25,-2434 614,-2434 614,-413 329.25,-413"/>
<text xml:space="preserve" text-anchor="middle" x="471.62" y="-2416.7" font-family="Times New Roman,serif" font-size="14.00">ci&#45;action repository</text>
</g>
<g id="clust2" class="cluster">
<title>cluster_repo_1</title>
<polygon fill="lightgreen" stroke="lightgreen" points="38,-2447 38,-3010 279.25,-3010 279.25,-2447 38,-2447"/>
<text xml:space="preserve" text-anchor="middle" x="158.62" y="-2992.7" font-family="Times New Roman,serif" font-size="14.00">web&#45;portals</text>
</g>
<g id="clust3" class="cluster">
<title>cluster_repo_2</title>
<polygon fill="lightgreen" stroke="lightgreen" points="38,-1876 38,-2439 279.25,-2439 279.25,-1876 38,-1876"/>
<text xml:space="preserve" text-anchor="middle" x="158.62" y="-2421.7" font-family="Times New Roman,serif" font-size="14.00">voedger</text>
</g>
<g id="clust4" class="cluster">
<title>cluster_repo_3</title>
<polygon fill="lightgreen" stroke="lightgreen" points="70.12,-1791 70.12,-1868 248.12,-1868 248.12,-1791 70.12,-1791"/>
<text xml:space="preserve" text-anchor="middle" x="159.12" y="-1850.7" font-family="Times New Roman,serif" font-size="14.00">airs&#45;template&#45;implementation</text>
</g>
<g id="clust5" class="cluster">
<title>cluster_repo_4</title>
<polygon fill="lightgreen" stroke="lightgreen" points="54.5,-1706 54.5,-1783 262.75,-1783 262.75,-1706 54.5,-1706"/>
<text xml:space="preserve" text-anchor="middle" x="158.62" y="-1765.7" font-family="Times New Roman,serif" font-size="14.00">airc&#45;ticket&#45;layouts</text>
</g>
<g id="clust6" class="cluster">
<title>cluster_repo_5</title>
<polygon fill="lightgreen" stroke="lightgreen" points="71.75,-1621 71.75,-1698 245.5,-1698 245.5,-1621 71.75,-1621"/>
<text xml:space="preserve" text-anchor="middle" x="158.62" y="-1680.7" font-family="Times New Roman,serif" font-size="14.00">airc&#45;web&#45;pos</text>
</g>
<g id="clust7" class="cluster">
<title>cluster_repo_6</title>
<polygon fill="lightgreen" stroke="lightgreen" points="71.38,-1536 71.38,-1613 245.88,-1613 245.88,-1536 71.38,-1536"/>
<text xml:space="preserve" text-anchor="middle" x="158.62" y="-1595.7" font-family="Times New Roman,serif" font-size="14.00">dynobuffers</text>
</g>
<g id="clust8" class="cluster">
<title>cluster_repo_7</title>
<polygon fill="lightgreen" stroke="lightgreen" points="54.5,-1451 54.5,-1528 262.75,-1528 262.75,-1451 54.5,-1451"/>
<text xml:space="preserve" text-anchor="middle" x="158.62" y="-1510.7" font-family="Times New Roman,serif" font-size="14.00">airs&#45;scheme</text>
</g>
<g id="clust9" class="cluster">
<title>cluster_repo_8</title>
<polygon fill="lightgreen" stroke="lightgreen" points="16.25,-934 16.25,-1443 301,-1443 301,-934 16.25,-934"/>
<text xml:space="preserve" text-anchor="middle" x="158.62" y="-1425.7" font-family="Times New Roman,serif" font-size="14.00">ci&#45;action</text>
</g>
<g id="clust10" class="cluster">
<title>cluster_repo_9</title>
<polygon fill="lightgreen" stroke="lightgreen" points="8,-363 8,-926 309.25,-926 309.25,-363 8,-363"/>
<text xml:space="preserve" text-anchor="middle" x="158.62" y="-908.7" font-family="Times New Roman,serif" font-size="14.00">airs&#45;bp3</text>
</g>
<g id="clust11" class="cluster">
<title>cluster_repo_10</title>
<polygon fill="lightgreen" stroke="lightgreen" points="38,-8 38,-355 279.25,-355 279.25,-8 38,-8"/>
<text xml:space="preserve" text-anchor="middle" x="158.62" y="-337.7" font-family="Times New Roman,serif" font-size="14.00">airc&#45;backoffice2</text>
</g>
<!-- n1 -->
<g id="node1" class="node">
<title>n1</title>
<path fill="lightcoral" stroke="red" d="M571.12,-457C571.12,-457 372.12,-457 372.12,-457 366.12,-457 360.12,-451 360.12,-445 360.12,-445 360.12,-433 360.12,-433 360.12,-427 366.12,-421 372.12,-421 372.12,-421 571.12,-421 571.12,-421 577.12,-421 583.12,-427 583.12,-433 583.12,-433 583.12,-445 583.12,-445 583.12,-451 577.12,-457 571.12,-457"/>
<text xml:space="preserve" text-anchor="middle" x="471.62" y="-433.95" font-family="Times New Roman,serif" font-size="14.00">.github/workflows/ci&#45;extrachecks.yml</text>
</g>
<!-- n2 -->
<g id="node2" class="node">
<title>n2</title>
<path fill="lightcoral" stroke="red" d="M537,-511C537,-511 406.25,-511 406.25,-511 400.25,-511 394.25,-505 394.25,-499 394.25,-499 394.25,-487 394.25,-487 394.25,-481 400.25,-475 406.25,-475 406.25,-475 537,-475 537,-475 543,-475 549,-481 549,-487 549,-487 549,-499 549,-499 549,-505 543,-511 537,-511"/>
<text xml:space="preserve" text-anchor="middle" x="471.62" y="-487.95" font-family="Times New Roman,serif" font-size="14.00">.github/workflows/ci.yml</text>
</g>
<!-- n3 -->
<g id="node3" class="node">
<title>n3</title>
<path fill="lightyellow" stroke="black" d="M573,-1537C573,-1537 370.25,-1537 370.25,-1537 364.25,-1537 358.25,-1531 358.25,-1525 358.25,-1525 358.25,-1513 358.25,-1513 358.25,-1507 364.25,-1501 370.25,-1501 370.25,-1501 573,-1501 573,-1501 579,-1501 585,-1507 585,-1513 585,-1513 585,-1525 585,-1525 585,-1531 579,-1537 573,-1537"/>
<text xml:space="preserve" text-anchor="middle" x="471.62" y="-1513.95" font-family="Times New Roman,serif" font-size="14.00">.github/workflows/ci_rebuild_bp3.yml</text>
</g>
<!-- n4 -->
<g id="node4" class="node">
<title>n4</title>
<path fill="lightyellow" stroke="black" d="M554.62,-2293C554.62,-2293 388.62,-2293 388.62,-2293 382.62,-2293 376.62,-2287 376.62,-2281 376.62,-2281 376.62,-2269 376.62,-2269 376.62,-2263 382.62,-2257 388.62,-2257 388.62,-2257 554.62,-2257 554.62,-2257 560.62,-2257 566.62,-2263 566.62,-2269 566.62,-2269 566.62,-2281 566.62,-2281 566.62,-2287 560.62,-2293 554.62,-2293"/>
<text xml:space="preserve" text-anchor="middle" x="471.62" y="-2269.95" font-family="Times New Roman,serif" font-size="14.00">.github/workflows/ci_reuse.yml</text>
</g>
<!-- n5 -->
<g id="node5" class="node">
<title>n5</title>
<path fill="lightyellow" stroke="black" d="M564.75,-1969C564.75,-1969 378.5,-1969 378.5,-1969 372.5,-1969 366.5,-1963 366.5,-1957 366.5,-1957 366.5,-1945 366.5,-1945 366.5,-1939 372.5,-1933 378.5,-1933 378.5,-1933 564.75,-1933 564.75,-1933 570.75,-1933 576.75,-1939 576.75,-1945 576.75,-1945 576.75,-1957 576.75,-1957 576.75,-1963 570.75,-1969 564.75,-1969"/>
<text xml:space="preserve" text-anchor="middle" x="471.62" y="-1945.95" font-family="Times New Roman,serif" font-size="14.00">.github/workflows/ci_reuse_go.yml</text>
</g>
<!-- n6 -->
<g id="node6" class="node">
<title>n6</title>
<path fill="lightyellow" stroke="black" d="M576.75,-565C576.75,-565 366.5,-565 366.5,-565 360.5,-565 354.5,-559 354.5,-553 354.5,-553 354.5,-541 354.5,-541 354.5,-535 360.5,-529 366.5,-529 366.5,-529 576.75,-529 576.75,-529 582.75,-529 588.75,-535 588.75,-541 588.75,-541 588.75,-553 588.75,-553 588.75,-559 582.75,-565 576.75,-565"/>
<text xml:space="preserve" text-anchor="middle" x="471.62" y="-541.95" font-family="Times New Roman,serif" font-size="14.00">.github/workflows/ci_reuse_go_cas.yml</text>
</g>
<!-- n7 -->
<g id="node7" class="node">
<title>n7</title>
<path fill="lightyellow" stroke="black" d="M594,-1915C594,-1915 349.25,-1915 349.25,-1915 343.25,-1915 337.25,-1909 337.25,-1903 337.25,-1903 337.25,-1891 337.25,-1891 337.25,-1885 343.25,-1879 349.25,-1879 349.25,-1879 594,-1879 594,-1879 600,-1879 606,-1885 606,-1891 606,-1891 606,-1903 606,-1903 606,-1909 600,-1915 594,-1915"/>
<text xml:space="preserve" text-anchor="middle" x="471.62" y="-1891.95" font-family="Times New Roman,serif" font-size="14.00">.github/workflows/ci_reuse_go_norebuild.yml</text>
</g>
<!-- n8 -->
<g id="node8" class="node">
<title>n8</title>
<path fill="lightyellow" stroke="black" d="M573.38,-2185C573.38,-2185 369.88,-2185 369.88,-2185 363.88,-2185 357.88,-2179 357.88,-2173 357.88,-2173 357.88,-2161 357.88,-2161 357.88,-2155 363.88,-2149 369.88,-2149 369.88,-2149 573.38,-2149 573.38,-2149 579.38,-2149 585.38,-2155 585.38,-2161 585.38,-2161 585.38,-2173 585.38,-2173 585.38,-2179 579.38,-2185 573.38,-2185"/>
<text xml:space="preserve" text-anchor="middle" x="471.62" y="-2161.95" font-family="Times New Roman,serif" font-size="14.00">.github/workflows/ci_reuse_go_pr.yml</text>
</g>
<!-- n9 -->
<g id="node9" class="node">
<title>n9</title>
<path fill="lightyellow" stroke="black" d="M538.5,-943C538.5,-943 404.75,-943 404.75,-943 398.75,-943 392.75,-937 392.75,-931 392.75,-931 392.75,-919 392.75,-919 392.75,-913 398.75,-907 404.75,-907 404.75,-907 538.5,-907 538.5,-907 544.5,-907 550.5,-913 550.5,-919 550.5,-919 550.5,-931 550.5,-931 550.5,-937 544.5,-943 538.5,-943"/>
<text xml:space="preserve" text-anchor="middle" x="471.62" y="-919.95" font-family="Times New Roman,serif" font-size="14.00">.github/workflows/cp.yml</text>
</g>
<!-- n10 -->
<g id="node10" class="node">
<title>n10</title>
<path fill="lightyellow" stroke="black" d="M565.12,-1807C565.12,-1807 378.12,-1807 378.12,-1807 372.12,-1807 366.12,-1801 366.12,-1795 366.12,-1795 366.12,-1783 366.12,-1783 366.12,-1777 372.12,-1771 378.12,-1771 378.12,-1771 565.12,-1771 565.12,-1771 571.12,-1771 577.12,-1777 577.12,-1783 577.12,-1783 577.12,-1795 577.12,-1795 577.12,-1801 571.12,-1807 565.12,-1807"/>
<text xml:space="preserve" text-anchor="middle" x="471.62" y="-1783.95" font-family="Times New Roman,serif" font-size="14.00">.github/workflows/create_issue.yml</text>
</g>
<!-- n11 -->
<g id="node11" class="node">
<title>n11</title>
<path fill="lightyellow" stroke="black" d="M537.38,-619C537.38,-619 405.88,-619 405.88,-619 399.88,-619 393.88,-613 393.88,-607 393.88,-607 393.88,-595 393.88,-595 393.88,-589 399.88,-583 405.88,-583 405.88,-583 537.38,-583 537.38,-583 543.38,-583 549.38,-589 549.38,-595 549.38,-595 549.38,-607 549.38,-607 549.38,-613 543.38,-619 537.38,-619"/>
<text xml:space="preserve" text-anchor="middle" x="471.62" y="-595.95" font-family="Times New Roman,serif" font-size="14.00">.github/workflows/rc.yml</text>
</g>
<!-- n12 -->
<g id="node12" class="node">
<title>n12</title>
<path fill="lightyellow" stroke="black" d="M496.88,-1429C496.88,-1429 446.38,-1429 446.38,-1429 440.38,-1429 434.38,-1423 434.38,-1417 434.38,-1417 434.38,-1405 434.38,-1405 434.38,-1399 440.38,-1393 446.38,-1393 446.38,-1393 496.88,-1393 496.88,-1393 502.88,-1393 508.88,-1399 508.88,-1405 508.88,-1405 508.88,-1417 508.88,-1417 508.88,-1423 502.88,-1429 496.88,-1429"/>
<text xml:space="preserve" text-anchor="middle" x="471.62" y="-1405.95" font-family="Times New Roman,serif" font-size="14.00">action.yml</text>
</g>
<!-- n13 -->
<g id="node13" class="node">
<title>n13</title>
<path fill="lightyellow" stroke="black" d="M544.12,-889C544.12,-889 399.12,-889 399.12,-889 393.12,-889 387.12,-883 387.12,-877 387.12,-877 387.12,-865 387.12,-865 387.12,-859 393.12,-853 399.12,-853 399.12,-853 544.12,-853 544.12,-853 550.12,-853 556.12,-859 556.12,-865 556.12,-865 556.12,-877 556.12,-877 556.12,-883 550.12,-889 544.12,-889"/>
<text xml:space="preserve" text-anchor="middle" x="471.62" y="-865.95" font-family="Times New Roman,serif" font-size="14.00">scripts/add&#45;issue&#45;commit.sh</text>
</g>
<!-- n14 -->
<g id="node14" class="node">
<title>n14</title>
<path fill="lightyellow" stroke="black" d="M538.12,-1267C538.12,-1267 405.12,-1267 405.12,-1267 399.12,-1267 393.12,-1261 393.12,-1255 393.12,-1255 393.12,-1243 393.12,-1243 393.12,-1237 399.12,-1231 405.12,-1231 405.12,-1231 538.12,-1231 538.12,-1231 544.12,-1231 550.12,-1237 550.12,-1243 550.12,-1243 550.12,-1255 550.12,-1255 550.12,-1261 544.12,-1267 538.12,-1267"/>
<text xml:space="preserve" text-anchor="middle" x="471.62" y="-1243.95" font-family="Times New Roman,serif" font-size="14.00">scripts/cancelworkflow.sh</text>
</g>
<!-- n15 -->
<g id="node15" class="node">
<title>n15</title>
<path fill="lightyellow" stroke="black" d="M519,-1483C519,-1483 424.25,-1483 424.25,-1483 418.25,-1483 412.25,-1477 412.25,-1471 412.25,-1471 412.25,-1459 412.25,-1459 412.25,-1453 418.25,-1447 424.25,-1447 424.25,-1447 519,-1447 519,-1447 525,-1447 531,-1453 531,-1459 531,-1459 531,-1471 531,-1471 531,-1477 525,-1483 519,-1483"/>
<text xml:space="preserve" text-anchor="middle" x="471.62" y="-1459.95" font-family="Times New Roman,serif" font-size="14.00">scripts/checkPR.sh</text>
</g>
<!-- n16 -->
<g id="node16" class="node">
<title>n16</title>
<path fill="lightyellow" stroke="black" d="M540,-1321C540,-1321 403.25,-1321 403.25,-1321 397.25,-1321 391.25,-1315 391.25,-1309 391.25,-1309 391.25,-1297 391.25,-1297 391.25,-1291 397.25,-1285 403.25,-1285 403.25,-1285 540,-1285 540,-1285 546,-1285 552,-1291 552,-1297 552,-1297 552,-1309 552,-1309 552,-1315 546,-1321 540,-1321"/>
<text xml:space="preserve" text-anchor="middle" x="471.62" y="-1297.95" font-family="Times New Roman,serif" font-size="14.00">scripts/check_copyright.sh</text>
</g>
<!-- n17 -->
<g id="node17" class="node">
<title>n17</title>
<path fill="lightyellow" stroke="black" d="M524.62,-835C524.62,-835 418.62,-835 418.62,-835 412.62,-835 406.62,-829 406.62,-823 406.62,-823 406.62,-811 406.62,-811 406.62,-805 412.62,-799 418.62,-799 418.62,-799 524.62,-799 524.62,-799 530.62,-799 536.62,-805 536.62,-811 536.62,-811 536.62,-823 536.62,-823 536.62,-829 530.62,-835 524.62,-835"/>
<text xml:space="preserve" text-anchor="middle" x="471.62" y="-811.95" font-family="Times New Roman,serif" font-size="14.00">scripts/close&#45;issue.sh</text>
</g>
<!-- n18 -->
<g id="node18" class="node">
<title>n18</title>
<path fill="lightyellow" stroke="black" d="M501.38,-781C501.38,-781 441.88,-781 441.88,-781 435.88,-781 429.88,-775 429.88,-769 429.88,-769 429.88,-757 429.88,-757 429.88,-751 435.88,-745 441.88,-745 441.88,-745 501.38,-745 501.38,-745 507.38,-745 513.38,-751 513.38,-757 513.38,-757 513.38,-769 513.38,-769 513.38,-775 507.38,-781 501.38,-781"/>
<text xml:space="preserve" text-anchor="middle" x="471.62" y="-757.95" font-family="Times New Roman,serif" font-size="14.00">scripts/cp.sh</text>
</g>
<!-- n19 -->
<g id="node19" class="node">
<title>n19</title>
<path fill="lightyellow" stroke="black" d="M524.62,-1051C524.62,-1051 418.62,-1051 418.62,-1051 412.62,-1051 406.62,-1045 406.62,-1039 406.62,-1039 406.62,-1027 406.62,-1027 406.62,-1021 412.62,-1015 418.62,-1015 418.62,-1015 524.62,-1015 524.62,-1015 530.62,-1015 536.62,-1021 536.62,-1027 536.62,-1027 536.62,-1039 536.62,-1039 536.62,-1045 530.62,-1051 524.62,-1051"/>
<text xml:space="preserve" text-anchor="middle" x="471.62" y="-1027.95" font-family="Times New Roman,serif" font-size="14.00">scripts/createissue.sh</text>
</g>
<!-- n20 -->
<g id="node20" class="node">
<title>n20</title>
<path fill="lightyellow" stroke="black" d="M550.88,-1591C550.88,-1591 392.38,-1591 392.38,-1591 386.38,-1591 380.38,-1585 380.38,-1579 380.38,-1579 380.38,-1567 380.38,-1567 380.38,-1561 386.38,-1555 392.38,-1555 392.38,-1555 550.88,-1555 550.88,-1555 556.88,-1555 562.88,-1561 562.88,-1567 562.88,-1567 562.88,-1579 562.88,-1579 562.88,-1585 556.88,-1591 550.88,-1591"/>
<text xml:space="preserve" text-anchor="middle" x="471.62" y="-1567.95" font-family="Times New Roman,serif" font-size="14.00">scripts/deleteDockerImages.sh</text>
</g>
<!-- n21 -->
<g id="node21" class="node">
<title>n21</title>
<path fill="lightyellow" stroke="black" d="M524.25,-2239C524.25,-2239 419,-2239 419,-2239 413,-2239 407,-2233 407,-2227 407,-2227 407,-2215 407,-2215 407,-2209 413,-2203 419,-2203 419,-2203 524.25,-2203 524.25,-2203 530.25,-2203 536.25,-2209 536.25,-2215 536.25,-2215 536.25,-2227 536.25,-2227 536.25,-2233 530.25,-2239 524.25,-2239"/>
<text xml:space="preserve" text-anchor="middle" x="471.62" y="-2215.95" font-family="Times New Roman,serif" font-size="14.00">scripts/domergepr.sh</text>
</g>
<!-- n22 -->
<g id="node22" class="node">
<title>n22</title>
<path fill="lightyellow" stroke="black" d="M526.12,-2023C526.12,-2023 417.12,-2023 417.12,-2023 411.12,-2023 405.12,-2017 405.12,-2011 405.12,-2011 405.12,-1999 405.12,-1999 405.12,-1993 411.12,-1987 417.12,-1987 417.12,-1987 526.12,-1987 526.12,-1987 532.12,-1987 538.12,-1993 538.12,-1999 538.12,-1999 538.12,-2011 538.12,-2011 538.12,-2017 532.12,-2023 526.12,-2023"/>
<text xml:space="preserve" text-anchor="middle" x="471.62" y="-1999.95" font-family="Times New Roman,serif" font-size="14.00">scripts/execgovuln.sh</text>
</g>
<!-- n23 -->
<g id="node23" class="node">
<title>n23</title>
<path fill="lightyellow" stroke="black" d="M510.75,-1375C510.75,-1375 432.5,-1375 432.5,-1375 426.5,-1375 420.5,-1369 420.5,-1363 420.5,-1363 420.5,-1351 420.5,-1351 420.5,-1345 426.5,-1339 432.5,-1339 432.5,-1339 510.75,-1339 510.75,-1339 516.75,-1339 522.75,-1345 522.75,-1351 522.75,-1351 522.75,-1363 522.75,-1363 522.75,-1369 516.75,-1375 510.75,-1375"/>
<text xml:space="preserve" text-anchor="middle" x="471.62" y="-1351.95" font-family="Times New Roman,serif" font-size="14.00">scripts/gbash.sh</text>
</g>
<!-- n24 -->
<g id="node24" class="node">
<title>n24</title>
<path fill="lightcoral" stroke="red" d="M523.12,-1699C523.12,-1699 420.12,-1699 420.12,-1699 414.12,-1699 408.12,-1693 408.12,-1687 408.12,-1687 408.12,-1675 408.12,-1675 408.12,-1669 414.12,-1663 420.12,-1663 420.12,-1663 523.12,-1663 523.12,-1663 529.12,-1663 535.12,-1669 535.12,-1675 535.12,-1675 535.12,-1687 535.12,-1687 535.12,-1693 529.12,-1699 523.12,-1699"/>
<text xml:space="preserve" text-anchor="middle" x="471.62" y="-1675.95" font-family="Times New Roman,serif" font-size="14.00">scripts/git&#45;release.sh</text>
</g>
<!-- n25 -->
<g id="node25" class="node">
<title>n25</title>
<path fill="lightcoral" stroke="red" d="M535.5,-1753C535.5,-1753 407.75,-1753 407.75,-1753 401.75,-1753 395.75,-1747 395.75,-1741 395.75,-1741 395.75,-1729 395.75,-1729 395.75,-1723 401.75,-1717 407.75,-1717 407.75,-1717 535.5,-1717 535.5,-1717 541.5,-1717 547.5,-1723 547.5,-1729 547.5,-1729 547.5,-1741 547.5,-1741 547.5,-1747 541.5,-1753 535.5,-1753"/>
<text xml:space="preserve" text-anchor="middle" x="471.62" y="-1729.95" font-family="Times New Roman,serif" font-size="14.00">scripts/large&#45;file&#45;hook.sh</text>
</g>
<!-- n26 -->
<g id="node26" class="node">
<title>n26</title>
<path fill="lightyellow" stroke="black" d="M532.12,-2077C532.12,-2077 411.12,-2077 411.12,-2077 405.12,-2077 399.12,-2071 399.12,-2065 399.12,-2065 399.12,-2053 399.12,-2053 399.12,-2047 405.12,-2041 411.12,-2041 411.12,-2041 532.12,-2041 532.12,-2041 538.12,-2041 544.12,-2047 544.12,-2053 544.12,-2053 544.12,-2065 544.12,-2065 544.12,-2071 538.12,-2077 532.12,-2077"/>
<text xml:space="preserve" text-anchor="middle" x="471.62" y="-2053.95" font-family="Times New Roman,serif" font-size="14.00">scripts/linkmilestone.sh</text>
</g>
<!-- n27 -->
<g id="node27" class="node">
<title>n27</title>
<path fill="lightcoral" stroke="red" d="M543,-1861C543,-1861 400.25,-1861 400.25,-1861 394.25,-1861 388.25,-1855 388.25,-1849 388.25,-1849 388.25,-1837 388.25,-1837 388.25,-1831 394.25,-1825 400.25,-1825 400.25,-1825 543,-1825 543,-1825 549,-1825 555,-1831 555,-1837 555,-1837 555,-1849 555,-1849 555,-1855 549,-1861 543,-1861"/>
<text xml:space="preserve" text-anchor="middle" x="471.62" y="-1837.95" font-family="Times New Roman,serif" font-size="14.00">scripts/pre&#45;commit&#45;hook.sh</text>
</g>
<!-- n28 -->
<g id="node28" class="node">
<title>n28</title>
<path fill="lightyellow" stroke="black" d="M500.25,-997C500.25,-997 443,-997 443,-997 437,-997 431,-991 431,-985 431,-985 431,-973 431,-973 431,-967 437,-961 443,-961 443,-961 500.25,-961 500.25,-961 506.25,-961 512.25,-967 512.25,-973 512.25,-973 512.25,-985 512.25,-985 512.25,-991 506.25,-997 500.25,-997"/>
<text xml:space="preserve" text-anchor="middle" x="471.62" y="-973.95" font-family="Times New Roman,serif" font-size="14.00">scripts/rc.sh</text>
</g>
<!-- n29 -->
<g id="node29" class="node">
<title>n29</title>
<path fill="lightyellow" stroke="black" d="M552,-673C552,-673 391.25,-673 391.25,-673 385.25,-673 379.25,-667 379.25,-661 379.25,-661 379.25,-649 379.25,-649 379.25,-643 385.25,-637 391.25,-637 391.25,-637 552,-637 552,-637 558,-637 564,-643 564,-649 564,-649 564,-661 564,-661 564,-667 558,-673 552,-673"/>
<text xml:space="preserve" text-anchor="middle" x="471.62" y="-649.95" font-family="Times New Roman,serif" font-size="14.00">scripts/rebuild&#45;schemas&#45;bp3.sh</text>
</g>
<!-- n30 -->
<g id="node30" class="node">
<title>n30</title>
<path fill="lightyellow" stroke="black" d="M538.12,-1105C538.12,-1105 405.12,-1105 405.12,-1105 399.12,-1105 393.12,-1099 393.12,-1093 393.12,-1093 393.12,-1081 393.12,-1081 393.12,-1075 399.12,-1069 405.12,-1069 405.12,-1069 538.12,-1069 538.12,-1069 544.12,-1069 550.12,-1075 550.12,-1081 550.12,-1081 550.12,-1093 550.12,-1093 550.12,-1099 544.12,-1105 538.12,-1105"/>
<text xml:space="preserve" text-anchor="middle" x="471.62" y="-1081.95" font-family="Times New Roman,serif" font-size="14.00">scripts/rebuild&#45;test&#45;bp3.sh</text>
</g>
<!-- n31 -->
<g id="node31" class="node">
<title>n31</title>
<path fill="lightyellow" stroke="black" d="M535.88,-1213C535.88,-1213 407.38,-1213 407.38,-1213 401.38,-1213 395.38,-1207 395.38,-1201 395.38,-1201 395.38,-1189 395.38,-1189 395.38,-1183 401.38,-1177 407.38,-1177 407.38,-1177 535.88,-1177 535.88,-1177 541.88,-1177 547.88,-1183 547.88,-1189 547.88,-1189 547.88,-1201 547.88,-1201 547.88,-1207 541.88,-1213 535.88,-1213"/>
<text xml:space="preserve" text-anchor="middle" x="471.62" y="-1189.95" font-family="Times New Roman,serif" font-size="14.00">scripts/test_subfolders.sh</text>
</g>
<!-- n32 -->
<g id="node32" class="node">
<title>n32</title>
<path fill="lightyellow" stroke="black" d="M548.62,-1159C548.62,-1159 394.62,-1159 394.62,-1159 388.62,-1159 382.62,-1153 382.62,-1147 382.62,-1147 382.62,-1135 382.62,-1135 382.62,-1129 388.62,-1123 394.62,-1123 394.62,-1123 548.62,-1123 548.62,-1123 554.62,-1123 560.62,-1129 560.62,-1135 560.62,-1135 560.62,-1147 560.62,-1147 560.62,-1153 554.62,-1159 548.62,-1159"/>
<text xml:space="preserve" text-anchor="middle" x="471.62" y="-1135.95" font-family="Times New Roman,serif" font-size="14.00">scripts/test_subfolders_full.sh</text>
</g>
<!-- n33 -->
<g id="node33" class="node">
<title>n33</title>
<path fill="lightyellow" stroke="black" d="M538.88,-2131C538.88,-2131 404.38,-2131 404.38,-2131 398.38,-2131 392.38,-2125 392.38,-2119 392.38,-2119 392.38,-2107 392.38,-2107 392.38,-2101 398.38,-2095 404.38,-2095 404.38,-2095 538.88,-2095 538.88,-2095 544.88,-2095 550.88,-2101 550.88,-2107 550.88,-2107 550.88,-2119 550.88,-2119 550.88,-2125 544.88,-2131 538.88,-2131"/>
<text xml:space="preserve" text-anchor="middle" x="471.62" y="-2107.95" font-family="Times New Roman,serif" font-size="14.00">scripts/unlinkmilestone.sh</text>
</g>
<!-- n34 -->
<g id="node34" class="node">
<title>n34</title>
<path fill="lightyellow" stroke="black" d="M549,-727C549,-727 394.25,-727 394.25,-727 388.25,-727 382.25,-721 382.25,-715 382.25,-715 382.25,-703 382.25,-703 382.25,-697 388.25,-691 394.25,-691 394.25,-691 549,-691 549,-691 555,-691 561,-697 561,-703 561,-703 561,-715 561,-715 561,-721 555,-727 549,-727"/>
<text xml:space="preserve" text-anchor="middle" x="471.62" y="-703.95" font-family="Times New Roman,serif" font-size="14.00">scripts/update&#45;bp3&#45;voedger.sh</text>
</g>
<!-- n35 -->
<g id="node35" class="node">
<title>n35</title>
<path fill="lightyellow" stroke="black" d="M531.75,-1645C531.75,-1645 411.5,-1645 411.5,-1645 405.5,-1645 399.5,-1639 399.5,-1633 399.5,-1633 399.5,-1621 399.5,-1621 399.5,-1615 405.5,-1609 411.5,-1609 411.5,-1609 531.75,-1609 531.75,-1609 537.75,-1609 543.75,-1615 543.75,-1621 543.75,-1621 543.75,-1633 543.75,-1633 543.75,-1639 537.75,-1645 531.75,-1645"/>
<text xml:space="preserve" text-anchor="middle" x="471.62" y="-1621.95" font-family="Times New Roman,serif" font-size="14.00">scripts/updateConfig.sh</text>
</g>
<!-- n36 -->
<g id="node36" class="node">
<title>n36</title>
<path fill="lightcoral" stroke="red" d="M554.25,-2347C554.25,-2347 389,-2347 389,-2347 383,-2347 377,-2341 377,-2335 377,-2335 377,-2323 377,-2323 377,-2317 383,-2311 389,-2311 389,-2311 554.25,-2311 554.25,-2311 560.25,-2311 566.25,-2317 566.25,-2323 566.25,-2323 566.25,-2335 566.25,-2335 566.25,-2341 560.25,-2347 554.25,-2347"/>
<text xml:space="preserve" text-anchor="middle" x="471.62" y="-2323.95" font-family="Times New Roman,serif" font-size="14.00">scripts/updateConfigDummy.sh</text>
</g>
<!-- n37 -->
<g id="node37" class="node">
<title>n37</title>
<path fill="lightcoral" stroke="red" d="M522.75,-2401C522.75,-2401 420.5,-2401 420.5,-2401 414.5,-2401 408.5,-2395 408.5,-2389 408.5,-2389 408.5,-2377 408.5,-2377 408.5,-2371 414.5,-2365 420.5,-2365 420.5,-2365 522.75,-2365 522.75,-2365 528.75,-2365 534.75,-2371 534.75,-2377 534.75,-2377 534.75,-2389 534.75,-2389 534.75,-2395 528.75,-2401 522.75,-2401"/>
<text xml:space="preserve" text-anchor="middle" x="471.62" y="-2377.95" font-family="Times New Roman,serif" font-size="14.00">scripts/vulncheck.sh</text>
</g>
<!-- n38 -->
<g id="node38" class="node">
<title>n38</title>
<path fill="white" stroke="black" d="M251.38,-2653C251.38,-2653 65.88,-2653 65.88,-2653 59.88,-2653 53.88,-2647 53.88,-2641 53.88,-2641 53.88,-2629 53.88,-2629 53.88,-2623 59.88,-2617 65.88,-2617 65.88,-2617 251.38,-2617 251.38,-2617 257.38,-2617 263.38,-2623 263.38,-2629 263.38,-2629 263.38,-2641 263.38,-2641 263.38,-2647 257.38,-2653 251.38,-2653"/>
<text xml:space="preserve" text-anchor="middle" x="158.62" y="-2629.95" font-family="Times New Roman,serif" font-size="14.00">.github/workflows/cd&#45;payment.yml</text>
</g>
<!-- n38&#45;&gt;n20 -->
<g id="edge56" class="edge">
<title>n38&#45;&gt;n20</title>
<path fill="none" stroke="black" d="M263.58,-2635.01C281.12,-2630.21 297.43,-2621.86 309.25,-2608 345.59,-2565.38 293.13,-1642.8 329.25,-1600 339.66,-1587.67 353.82,-1579.84 369.17,-1575.02"/>
<polygon fill="black" stroke="black" points="369.73,-1578.5 378.49,-1572.55 367.93,-1571.73 369.73,-1578.5"/>
</g>
<!-- n39 -->
<g id="node39" class="node">
<title>n39</title>
<path fill="white" stroke="black" d="M247.25,-2707C247.25,-2707 70,-2707 70,-2707 64,-2707 58,-2701 58,-2695 58,-2695 58,-2683 58,-2683 58,-2677 64,-2671 70,-2671 70,-2671 247.25,-2671 247.25,-2671 253.25,-2671 259.25,-2677 259.25,-2683 259.25,-2683 259.25,-2695 259.25,-2695 259.25,-2701 253.25,-2707 247.25,-2707"/>
<text xml:space="preserve" text-anchor="middle" x="158.62" y="-2683.95" font-family="Times New Roman,serif" font-size="14.00">.github/workflows/cd&#45;reseller.yml</text>
</g>
<!-- n39&#45;&gt;n20 -->
<g id="edge57" class="edge">
<title>n39&#45;&gt;n20</title>
<path fill="none" stroke="black" d="M259.38,-2690.1C278.5,-2685.51 296.5,-2676.97 309.25,-2662 347.52,-2617.08 291.21,-1645.12 329.25,-1600 339.65,-1587.66 353.81,-1579.83 369.16,-1575.02"/>
<polygon fill="black" stroke="black" points="369.72,-1578.49 378.48,-1572.54 367.92,-1571.72 369.72,-1578.49"/>
</g>
<!-- n40 -->
<g id="node40" class="node">
<title>n40</title>
<path fill="white" stroke="black" d="M254.75,-2761C254.75,-2761 62.5,-2761 62.5,-2761 56.5,-2761 50.5,-2755 50.5,-2749 50.5,-2749 50.5,-2737 50.5,-2737 50.5,-2731 56.5,-2725 62.5,-2725 62.5,-2725 254.75,-2725 254.75,-2725 260.75,-2725 266.75,-2731 266.75,-2737 266.75,-2737 266.75,-2749 266.75,-2749 266.75,-2755 260.75,-2761 254.75,-2761"/>
<text xml:space="preserve" text-anchor="middle" x="158.62" y="-2737.95" font-family="Times New Roman,serif" font-size="14.00">.github/workflows/cdd&#45;payment.yml</text>
</g>
<!-- n40&#45;&gt;n20 -->
<g id="edge59" class="edge">
<title>n40&#45;&gt;n20</title>
<path fill="none" stroke="black" d="M267.02,-2742.04C283.24,-2737.11 298.22,-2728.97 309.25,-2716 349.44,-2668.78 289.3,-1647.43 329.25,-1600 339.65,-1587.66 353.8,-1579.82 369.15,-1575.01"/>
<polygon fill="black" stroke="black" points="369.71,-1578.48 378.47,-1572.53 367.91,-1571.72 369.71,-1578.48"/>
</g>
<!-- n40&#45;&gt;n35 -->
<g id="edge58" class="edge">
<title>n40&#45;&gt;n35</title>
<path fill="none" stroke="black" d="M267.01,-2742.04C283.23,-2737.1 298.21,-2728.96 309.25,-2716 347.52,-2671.08 291.21,-1699.12 329.25,-1654 343.79,-1636.76 365.64,-1628.32 387.86,-1624.62"/>
<polygon fill="black" stroke="black" points="388.16,-1628.11 397.61,-1623.32 387.24,-1621.17 388.16,-1628.11"/>
</g>
<!-- n41 -->
<g id="node41" class="node">
<title>n41</title>
<path fill="white" stroke="black" d="M250.62,-2815C250.62,-2815 66.62,-2815 66.62,-2815 60.62,-2815 54.62,-2809 54.62,-2803 54.62,-2803 54.62,-2791 54.62,-2791 54.62,-2785 60.62,-2779 66.62,-2779 66.62,-2779 250.62,-2779 250.62,-2779 256.62,-2779 262.62,-2785 262.62,-2791 262.62,-2791 262.62,-2803 262.62,-2803 262.62,-2809 256.62,-2815 250.62,-2815"/>
<text xml:space="preserve" text-anchor="middle" x="158.62" y="-2791.95" font-family="Times New Roman,serif" font-size="14.00">.github/workflows/cdd&#45;reseller.yml</text>
</g>
<!-- n41&#45;&gt;n20 -->
<g id="edge61" class="edge">
<title>n41&#45;&gt;n20</title>
<path fill="none" stroke="black" d="M262.85,-2797.24C280.67,-2792.47 297.28,-2784.08 309.25,-2770 351.36,-2720.47 287.39,-1649.74 329.25,-1600 339.64,-1587.65 353.79,-1579.81 369.14,-1575"/>
<polygon fill="black" stroke="black" points="369.7,-1578.47 378.46,-1572.52 367.9,-1571.71 369.7,-1578.47"/>
</g>
<!-- n41&#45;&gt;n35 -->
<g id="edge60" class="edge">
<title>n41&#45;&gt;n35</title>
<path fill="none" stroke="black" d="M262.84,-2797.24C280.66,-2792.47 297.27,-2784.07 309.25,-2770 349.44,-2722.78 289.3,-1701.43 329.25,-1654 343.78,-1636.75 365.63,-1628.31 387.85,-1624.61"/>
<polygon fill="black" stroke="black" points="388.15,-1628.1 397.6,-1623.32 387.23,-1621.16 388.15,-1628.1"/>
</g>
<!-- n42 -->
<g id="node42" class="node">
<title>n42</title>
<path fill="white" stroke="black" d="M224,-2869C224,-2869 93.25,-2869 93.25,-2869 87.25,-2869 81.25,-2863 81.25,-2857 81.25,-2857 81.25,-2845 81.25,-2845 81.25,-2839 87.25,-2833 93.25,-2833 93.25,-2833 224,-2833 224,-2833 230,-2833 236,-2839 236,-2845 236,-2845 236,-2857 236,-2857 236,-2863 230,-2869 224,-2869"/>
<text xml:space="preserve" text-anchor="middle" x="158.62" y="-2845.95" font-family="Times New Roman,serif" font-size="14.00">.github/workflows/ci.yml</text>
</g>
<!-- n42&#45;&gt;n4 -->
<g id="edge62" class="edge">
<title>n42&#45;&gt;n4</title>
<path fill="none" stroke="black" d="M236.19,-2855.67C263.18,-2853.07 291.25,-2844.72 309.25,-2824 347.32,-2780.18 291.41,-2346.01 329.25,-2302 338.86,-2290.83 351.54,-2283.37 365.37,-2278.51"/>
<polygon fill="black" stroke="black" points="366.12,-2281.94 374.69,-2275.71 364.11,-2275.23 366.12,-2281.94"/>
</g>
<!-- n43 -->
<g id="node43" class="node">
<title>n43</title>
<path fill="white" stroke="black" d="M251,-2923C251,-2923 66.25,-2923 66.25,-2923 60.25,-2923 54.25,-2917 54.25,-2911 54.25,-2911 54.25,-2899 54.25,-2899 54.25,-2893 60.25,-2887 66.25,-2887 66.25,-2887 251,-2887 251,-2887 257,-2887 263,-2893 263,-2899 263,-2899 263,-2911 263,-2911 263,-2917 257,-2923 251,-2923"/>
<text xml:space="preserve" text-anchor="middle" x="158.62" y="-2899.95" font-family="Times New Roman,serif" font-size="14.00">.github/workflows/ci_payment.yml</text>
</g>
<!-- n43&#45;&gt;n4 -->
<g id="edge63" class="edge">
<title>n43&#45;&gt;n4</title>
<path fill="none" stroke="black" d="M263.42,-2904.87C280.97,-2900.08 297.33,-2891.77 309.25,-2878 351.16,-2829.58 287.59,-2350.63 329.25,-2302 338.9,-2290.73 351.68,-2283.24 365.62,-2278.38"/>
<polygon fill="black" stroke="black" points="366.43,-2281.79 375.01,-2275.58 364.43,-2275.08 366.43,-2281.79"/>
</g>
<!-- n44 -->
<g id="node44" class="node">
<title>n44</title>
<path fill="white" stroke="black" d="M246.88,-2977C246.88,-2977 70.38,-2977 70.38,-2977 64.38,-2977 58.38,-2971 58.38,-2965 58.38,-2965 58.38,-2953 58.38,-2953 58.38,-2947 64.38,-2941 70.38,-2941 70.38,-2941 246.88,-2941 246.88,-2941 252.88,-2941 258.88,-2947 258.88,-2953 258.88,-2953 258.88,-2965 258.88,-2965 258.88,-2971 252.88,-2977 246.88,-2977"/>
<text xml:space="preserve" text-anchor="middle" x="158.62" y="-2953.95" font-family="Times New Roman,serif" font-size="14.00">.github/workflows/ci_reseller.yml</text>
</g>
<!-- n44&#45;&gt;n4 -->
<g id="edge64" class="edge">
<title>n44&#45;&gt;n4</title>
<path fill="none" stroke="black" d="M259.24,-2959.98C278.36,-2955.4 296.4,-2946.89 309.25,-2932 355.01,-2878.98 283.76,-2355.25 329.25,-2302 338.88,-2290.72 351.65,-2283.22 365.59,-2278.35"/>
<polygon fill="black" stroke="black" points="366.4,-2281.76 374.98,-2275.56 364.4,-2275.05 366.4,-2281.76"/>
</g>
<!-- n45 -->
<g id="node45" class="node">
<title>n45</title>
<path fill="white" stroke="black" d="M225.5,-2599C225.5,-2599 91.75,-2599 91.75,-2599 85.75,-2599 79.75,-2593 79.75,-2587 79.75,-2587 79.75,-2575 79.75,-2575 79.75,-2569 85.75,-2563 91.75,-2563 91.75,-2563 225.5,-2563 225.5,-2563 231.5,-2563 237.5,-2569 237.5,-2575 237.5,-2575 237.5,-2587 237.5,-2587 237.5,-2593 231.5,-2599 225.5,-2599"/>
<text xml:space="preserve" text-anchor="middle" x="158.62" y="-2575.95" font-family="Times New Roman,serif" font-size="14.00">.github/workflows/cp.yml</text>
</g>
<!-- n45&#45;&gt;n9 -->
<g id="edge65" class="edge">
<title>n45&#45;&gt;n9</title>
<path fill="none" stroke="black" d="M237.65,-2585.79C264.3,-2583.09 291.77,-2574.65 309.25,-2554 366.75,-2486.06 272.1,-1020.23 329.25,-952 342.31,-936.4 361.37,-928 381.28,-923.78"/>
<polygon fill="black" stroke="black" points="381.66,-927.27 390.91,-922.11 380.46,-920.37 381.66,-927.27"/>
</g>
<!-- n46 -->
<g id="node46" class="node">
<title>n46</title>
<path fill="white" stroke="black" d="M259.25,-2545C259.25,-2545 58,-2545 58,-2545 52,-2545 46,-2539 46,-2533 46,-2533 46,-2521 46,-2521 46,-2515 52,-2509 58,-2509 58,-2509 259.25,-2509 259.25,-2509 265.25,-2509 271.25,-2515 271.25,-2521 271.25,-2521 271.25,-2533 271.25,-2533 271.25,-2539 265.25,-2545 259.25,-2545"/>
<text xml:space="preserve" text-anchor="middle" x="158.62" y="-2521.95" font-family="Times New Roman,serif" font-size="14.00">.github/workflows/cronecprelease.yml</text>
</g>
<!-- n46&#45;&gt;n9 -->
<g id="edge66" class="edge">
<title>n46&#45;&gt;n9</title>
<path fill="none" stroke="black" d="M271.56,-2524.63C286.04,-2519.59 299.27,-2511.78 309.25,-2500 364.83,-2434.36 274.01,-1017.92 329.25,-952 342.32,-936.41 361.37,-928 381.29,-923.79"/>
<polygon fill="black" stroke="black" points="381.66,-927.28 390.92,-922.12 380.47,-920.38 381.66,-927.28"/>
</g>
<!-- n47 -->
<g id="node47" class="node">
<title>n47</title>
<path fill="white" stroke="black" d="M224.38,-2491C224.38,-2491 92.88,-2491 92.88,-2491 86.88,-2491 80.88,-2485 80.88,-2479 80.88,-2479 80.88,-2467 80.88,-2467 80.88,-2461 86.88,-2455 92.88,-2455 92.88,-2455 224.38,-2455 224.38,-2455 230.38,-2455 236.38,-2461 236.38,-2467 236.38,-2467 236.38,-2479 236.38,-2479 236.38,-2485 230.38,-2491 224.38,-2491"/>
<text xml:space="preserve" text-anchor="middle" x="158.62" y="-2467.95" font-family="Times New Roman,serif" font-size="14.00">.github/workflows/rc.yml</text>
</g>
<!-- n47&#45;&gt;n11 -->
<g id="edge67" class="edge">
<title>n47&#45;&gt;n11</title>
<path fill="none" stroke="black" d="M236.64,-2476.27C263.68,-2473.14 291.67,-2464.22 309.25,-2443 341.42,-2404.18 296.9,-666.67 329.25,-628 342.51,-612.15 361.95,-603.72 382.2,-599.58"/>
<polygon fill="black" stroke="black" points="382.71,-603.04 392,-597.94 381.56,-596.13 382.71,-603.04"/>
</g>
<!-- n48 -->
<g id="node48" class="node">
<title>n48</title>
<path fill="white" stroke="black" d="M235.62,-2082C235.62,-2082 81.62,-2082 81.62,-2082 75.62,-2082 69.62,-2076 69.62,-2070 69.62,-2070 69.62,-2058 69.62,-2058 69.62,-2052 75.62,-2046 81.62,-2046 81.62,-2046 235.62,-2046 235.62,-2046 241.62,-2046 247.62,-2052 247.62,-2058 247.62,-2058 247.62,-2070 247.62,-2070 247.62,-2076 241.62,-2082 235.62,-2082"/>
<text xml:space="preserve" text-anchor="middle" x="158.62" y="-2058.95" font-family="Times New Roman,serif" font-size="14.00">.github/workflows/ci&#45;full.yml</text>
</g>
<!-- n48&#45;&gt;n5 -->
<g id="edge70" class="edge">
<title>n48&#45;&gt;n5</title>
<path fill="none" stroke="black" d="M247.97,-2063.56C270.05,-2059.54 292.25,-2051.65 309.25,-2037 330.22,-2018.93 308.37,-1996.18 329.25,-1978 337.07,-1971.19 346.07,-1965.88 355.66,-1961.76"/>
<polygon fill="black" stroke="black" points="356.74,-1965.1 364.85,-1958.28 354.26,-1958.55 356.74,-1965.1"/>
</g>
<!-- n48&#45;&gt;n10 -->
<g id="edge71" class="edge">
<title>n48&#45;&gt;n10</title>
<path fill="none" stroke="black" d="M248.1,-2066.51C270.98,-2062.68 293.57,-2054.13 309.25,-2037 342.55,-2000.63 296.14,-1852.54 329.25,-1816 336.6,-1807.89 345.57,-1801.77 355.39,-1797.18"/>
<polygon fill="black" stroke="black" points="356.53,-1800.5 364.5,-1793.52 353.92,-1794.01 356.53,-1800.5"/>
</g>
<!-- n49 -->
<g id="node49" class="node">
<title>n49</title>
<path fill="white" stroke="black" d="M250.62,-2136C250.62,-2136 66.62,-2136 66.62,-2136 60.62,-2136 54.62,-2130 54.62,-2124 54.62,-2124 54.62,-2112 54.62,-2112 54.62,-2106 60.62,-2100 66.62,-2100 66.62,-2100 250.62,-2100 250.62,-2100 256.62,-2100 262.62,-2106 262.62,-2112 262.62,-2112 262.62,-2124 262.62,-2124 262.62,-2130 256.62,-2136 250.62,-2136"/>
<text xml:space="preserve" text-anchor="middle" x="158.62" y="-2112.95" font-family="Times New Roman,serif" font-size="14.00">.github/workflows/ci&#45;pkg&#45;cmd.yml</text>
</g>
<!-- n49&#45;&gt;n5 -->
<g id="edge72" class="edge">
<title>n49&#45;&gt;n5</title>
<path fill="none" stroke="black" d="M263.07,-2116.17C280.33,-2111.46 296.67,-2103.62 309.25,-2091 345.25,-2054.88 293.43,-2014.31 329.25,-1978 336.87,-1970.28 345.97,-1964.4 355.83,-1959.96"/>
<polygon fill="black" stroke="black" points="356.91,-1963.29 364.95,-1956.39 354.36,-1956.78 356.91,-1963.29"/>
</g>
<!-- n50 -->
<g id="node50" class="node">
<title>n50</title>
<path fill="white" stroke="black" d="M259.25,-2352C259.25,-2352 58,-2352 58,-2352 52,-2352 46,-2346 46,-2340 46,-2340 46,-2328 46,-2328 46,-2322 52,-2316 58,-2316 58,-2316 259.25,-2316 259.25,-2316 265.25,-2316 271.25,-2322 271.25,-2328 271.25,-2328 271.25,-2340 271.25,-2340 271.25,-2346 265.25,-2352 259.25,-2352"/>
<text xml:space="preserve" text-anchor="middle" x="158.62" y="-2328.95" font-family="Times New Roman,serif" font-size="14.00">.github/workflows/ci&#45;pkg&#45;cmd_pr.yml</text>
</g>
<!-- n50&#45;&gt;n8 -->
<g id="edge73" class="edge">
<title>n50&#45;&gt;n8</title>
<path fill="none" stroke="black" d="M271.42,-2329.61C285.55,-2324.78 298.72,-2317.56 309.25,-2307 345.25,-2270.88 293.43,-2230.31 329.25,-2194 334.67,-2188.5 340.85,-2183.94 347.51,-2180.16"/>
<polygon fill="black" stroke="black" points="348.83,-2183.42 356.24,-2175.85 345.73,-2177.14 348.83,-2183.42"/>
</g>
<!-- n51 -->
<g id="node51" class="node">
<title>n51</title>
<path fill="white" stroke="black" d="M254,-2190C254,-2190 63.25,-2190 63.25,-2190 57.25,-2190 51.25,-2184 51.25,-2178 51.25,-2178 51.25,-2166 51.25,-2166 51.25,-2160 57.25,-2154 63.25,-2154 63.25,-2154 254,-2154 254,-2154 260,-2154 266,-2160 266,-2166 266,-2166 266,-2178 266,-2178 266,-2184 260,-2190 254,-2190"/>
<text xml:space="preserve" text-anchor="middle" x="158.62" y="-2166.95" font-family="Times New Roman,serif" font-size="14.00">.github/workflows/ci&#45;vulncheck.yml</text>
</g>
<!-- n51&#45;&gt;n22 -->
<g id="edge74" class="edge">
<title>n51&#45;&gt;n22</title>
<path fill="none" stroke="black" d="M266.13,-2169.3C282.25,-2164.52 297.42,-2156.87 309.25,-2145 345.25,-2108.88 293.43,-2068.31 329.25,-2032 345.99,-2015.03 369.88,-2006.96 393.28,-2003.51"/>
<polygon fill="black" stroke="black" points="393.66,-2006.99 403.18,-2002.35 392.84,-2000.04 393.66,-2006.99"/>
</g>
<!-- n52 -->
<g id="node52" class="node">
<title>n52</title>
<path fill="white" stroke="black" d="M248.75,-1974C248.75,-1974 68.5,-1974 68.5,-1974 62.5,-1974 56.5,-1968 56.5,-1962 56.5,-1962 56.5,-1950 56.5,-1950 56.5,-1944 62.5,-1938 68.5,-1938 68.5,-1938 248.75,-1938 248.75,-1938 254.75,-1938 260.75,-1944 260.75,-1950 260.75,-1950 260.75,-1962 260.75,-1962 260.75,-1968 254.75,-1974 248.75,-1974"/>
<text xml:space="preserve" text-anchor="middle" x="158.62" y="-1950.95" font-family="Times New Roman,serif" font-size="14.00">.github/workflows/ci_amazon.yml</text>
</g>
<!-- n52&#45;&gt;n10 -->
<g id="edge75" class="edge">
<title>n52&#45;&gt;n10</title>
<path fill="none" stroke="black" d="M261.15,-1954.68C279.11,-1950.04 296.21,-1942.09 309.25,-1929 345.25,-1892.88 293.43,-1852.31 329.25,-1816 336.66,-1808.49 345.47,-1802.72 355.02,-1798.33"/>
<polygon fill="black" stroke="black" points="356.25,-1801.6 364.24,-1794.64 353.65,-1795.1 356.25,-1801.6"/>
</g>
<!-- n53 -->
<g id="node53" class="node">
<title>n53</title>
<path fill="white" stroke="black" d="M236,-2028C236,-2028 81.25,-2028 81.25,-2028 75.25,-2028 69.25,-2022 69.25,-2016 69.25,-2016 69.25,-2004 69.25,-2004 69.25,-1998 75.25,-1992 81.25,-1992 81.25,-1992 236,-1992 236,-1992 242,-1992 248,-1998 248,-2004 248,-2004 248,-2016 248,-2016 248,-2022 242,-2028 236,-2028"/>
<text xml:space="preserve" text-anchor="middle" x="158.62" y="-2004.95" font-family="Times New Roman,serif" font-size="14.00">.github/workflows/ci_cas.yml</text>
</g>
<!-- n53&#45;&gt;n10 -->
<g id="edge76" class="edge">
<title>n53&#45;&gt;n10</title>
<path fill="none" stroke="black" d="M248.17,-2012.15C270.92,-2008.28 293.41,-1999.81 309.25,-1983 360.52,-1928.6 278.26,-1870.66 329.25,-1816 336.65,-1808.07 345.61,-1802.05 355.38,-1797.52"/>
<polygon fill="black" stroke="black" points="356.45,-1800.86 364.42,-1793.89 353.84,-1794.37 356.45,-1800.86"/>
</g>
<!-- n54 -->
<g id="node54" class="node">
<title>n54</title>
<path fill="white" stroke="black" d="M225.5,-1920C225.5,-1920 91.75,-1920 91.75,-1920 85.75,-1920 79.75,-1914 79.75,-1908 79.75,-1908 79.75,-1896 79.75,-1896 79.75,-1890 85.75,-1884 91.75,-1884 91.75,-1884 225.5,-1884 225.5,-1884 231.5,-1884 237.5,-1890 237.5,-1896 237.5,-1896 237.5,-1908 237.5,-1908 237.5,-1914 231.5,-1920 225.5,-1920"/>
<text xml:space="preserve" text-anchor="middle" x="158.62" y="-1896.95" font-family="Times New Roman,serif" font-size="14.00">.github/workflows/cp.yml</text>
</g>
<!-- n54&#45;&gt;n9 -->
<g id="edge77" class="edge">
<title>n54&#45;&gt;n9</title>
<path fill="none" stroke="black" d="M237.69,-1905.03C264.35,-1901.77 291.81,-1892.82 309.25,-1872 342.08,-1832.81 296.24,-991.04 329.25,-952 342.39,-936.46 361.47,-928.08 381.38,-923.87"/>
<polygon fill="black" stroke="black" points="381.76,-927.36 391.01,-922.2 380.56,-920.46 381.76,-927.36"/>
</g>
<!-- n55 -->
<g id="node55" class="node">
<title>n55</title>
<path fill="white" stroke="black" d="M243.5,-2244C243.5,-2244 73.75,-2244 73.75,-2244 67.75,-2244 61.75,-2238 61.75,-2232 61.75,-2232 61.75,-2220 61.75,-2220 61.75,-2214 67.75,-2208 73.75,-2208 73.75,-2208 243.5,-2208 243.5,-2208 249.5,-2208 255.5,-2214 255.5,-2220 255.5,-2220 255.5,-2232 255.5,-2232 255.5,-2238 249.5,-2244 243.5,-2244"/>
<text xml:space="preserve" text-anchor="middle" x="158.62" y="-2220.95" font-family="Times New Roman,serif" font-size="14.00">.github/workflows/linkIssue.yml</text>
</g>
<!-- n55&#45;&gt;n26 -->
<g id="edge78" class="edge">
<title>n55&#45;&gt;n26</title>
<path fill="none" stroke="black" d="M255.74,-2225.97C275.65,-2221.57 294.9,-2213.4 309.25,-2199 345.25,-2162.88 293.43,-2122.31 329.25,-2086 344.64,-2070.4 366.08,-2062.32 387.62,-2058.44"/>
<polygon fill="black" stroke="black" points="387.98,-2061.92 397.36,-2056.99 386.96,-2055 387.98,-2061.92"/>
</g>
<!-- n56 -->
<g id="node56" class="node">
<title>n56</title>
<path fill="white" stroke="black" d="M236.38,-2406C236.38,-2406 80.88,-2406 80.88,-2406 74.88,-2406 68.88,-2400 68.88,-2394 68.88,-2394 68.88,-2382 68.88,-2382 68.88,-2376 74.88,-2370 80.88,-2370 80.88,-2370 236.38,-2370 236.38,-2370 242.38,-2370 248.38,-2376 248.38,-2382 248.38,-2382 248.38,-2394 248.38,-2394 248.38,-2400 242.38,-2406 236.38,-2406"/>
<text xml:space="preserve" text-anchor="middle" x="158.62" y="-2382.95" font-family="Times New Roman,serif" font-size="14.00">.github/workflows/merge.yml</text>
</g>
<!-- n56&#45;&gt;n21 -->
<g id="edge79" class="edge">
<title>n56&#45;&gt;n21</title>
<path fill="none" stroke="black" d="M248.74,-2389.37C271.08,-2385.4 293.23,-2377.08 309.25,-2361 345.25,-2324.88 293.43,-2284.31 329.25,-2248 346.52,-2230.49 371.41,-2222.46 395.5,-2219.2"/>
<polygon fill="black" stroke="black" points="395.77,-2222.69 405.35,-2218.15 395.03,-2215.73 395.77,-2222.69"/>
</g>
<!-- n57 -->
<g id="node57" class="node">
<title>n57</title>
<path fill="white" stroke="black" d="M250.25,-2298C250.25,-2298 67,-2298 67,-2298 61,-2298 55,-2292 55,-2286 55,-2286 55,-2274 55,-2274 55,-2268 61,-2262 67,-2262 67,-2262 250.25,-2262 250.25,-2262 256.25,-2262 262.25,-2268 262.25,-2274 262.25,-2274 262.25,-2286 262.25,-2286 262.25,-2292 256.25,-2298 250.25,-2298"/>
<text xml:space="preserve" text-anchor="middle" x="158.62" y="-2274.95" font-family="Times New Roman,serif" font-size="14.00">.github/workflows/unlinkIssue.yml</text>
</g>
<!-- n57&#45;&gt;n33 -->
<g id="edge80" class="edge">
<title>n57&#45;&gt;n33</title>
<path fill="none" stroke="black" d="M262.69,-2278.27C280.08,-2273.58 296.58,-2265.71 309.25,-2253 345.25,-2216.88 293.43,-2176.31 329.25,-2140 342.97,-2126.1 361.49,-2118.17 380.6,-2113.86"/>
<polygon fill="black" stroke="black" points="381.22,-2117.3 390.4,-2112 379.92,-2110.42 381.22,-2117.3"/>
</g>
<!-- n58 -->
<g id="node58" class="node">
<title>n58</title>
<path fill="white" stroke="black" d="M225.88,-1835C225.88,-1835 91.38,-1835 91.38,-1835 85.38,-1835 79.38,-1829 79.38,-1823 79.38,-1823 79.38,-1811 79.38,-1811 79.38,-1805 85.38,-1799 91.38,-1799 91.38,-1799 225.88,-1799 225.88,-1799 231.88,-1799 237.88,-1805 237.88,-1811 237.88,-1811 237.88,-1823 237.88,-1823 237.88,-1829 231.88,-1835 225.88,-1835"/>
<text xml:space="preserve" text-anchor="middle" x="158.62" y="-1811.95" font-family="Times New Roman,serif" font-size="14.00">.github/workflows/go.yml</text>
</g>
<!-- n58&#45;&gt;n12 -->
<g id="edge1" class="edge">
<title>n58&#45;&gt;n12</title>
<path fill="none" stroke="black" d="M238.07,-1819.59C264.45,-1816.22 291.62,-1807.3 309.25,-1787 360.18,-1728.35 278.05,-1496.42 329.25,-1438 351.99,-1412.06 391.31,-1406.24 422.72,-1406.39"/>
<polygon fill="black" stroke="black" points="422.29,-1409.88 432.38,-1406.65 422.48,-1402.88 422.29,-1409.88"/>
</g>
<!-- n59 -->
<g id="node59" class="node">
<title>n59</title>
<path fill="white" stroke="black" d="M242.75,-1750C242.75,-1750 74.5,-1750 74.5,-1750 68.5,-1750 62.5,-1744 62.5,-1738 62.5,-1738 62.5,-1726 62.5,-1726 62.5,-1720 68.5,-1714 74.5,-1714 74.5,-1714 242.75,-1714 242.75,-1714 248.75,-1714 254.75,-1720 254.75,-1726 254.75,-1726 254.75,-1738 254.75,-1738 254.75,-1744 248.75,-1750 242.75,-1750"/>
<text xml:space="preserve" text-anchor="middle" x="158.62" y="-1726.95" font-family="Times New Roman,serif" font-size="14.00">.github/workflows/short_go.yml</text>
</g>
<!-- n59&#45;&gt;n7 -->
<g id="edge55" class="edge">
<title>n59&#45;&gt;n7</title>
<path fill="none" stroke="black" d="M252.89,-1750.49C273.89,-1758.6 294.34,-1770.26 309.25,-1787 334.48,-1815.34 301.79,-1843.82 329.25,-1870 329.88,-1870.6 330.51,-1871.18 331.16,-1871.76"/>
<polygon fill="black" stroke="black" points="328.76,-1874.33 338.8,-1877.71 333.06,-1868.81 328.76,-1874.33"/>
</g>
<!-- n60 -->
<g id="node60" class="node">
<title>n60</title>
<path fill="white" stroke="black" d="M225.5,-1665C225.5,-1665 91.75,-1665 91.75,-1665 85.75,-1665 79.75,-1659 79.75,-1653 79.75,-1653 79.75,-1641 79.75,-1641 79.75,-1635 85.75,-1629 91.75,-1629 91.75,-1629 225.5,-1629 225.5,-1629 231.5,-1629 237.5,-1635 237.5,-1641 237.5,-1641 237.5,-1653 237.5,-1653 237.5,-1659 231.5,-1665 225.5,-1665"/>
<text xml:space="preserve" text-anchor="middle" x="158.62" y="-1641.95" font-family="Times New Roman,serif" font-size="14.00">.github/workflows/cd.yml</text>
</g>
<!-- n60&#45;&gt;n20 -->
<g id="edge69" class="edge">
<title>n60&#45;&gt;n20</title>
<path fill="none" stroke="black" d="M237.77,-1639C261.54,-1634.57 287.2,-1627.69 309.25,-1617 319.75,-1611.91 318.73,-1605.04 329.25,-1600 341.7,-1594.04 355.36,-1589.39 369.12,-1585.77"/>
<polygon fill="black" stroke="black" points="369.81,-1589.21 378.69,-1583.44 368.15,-1582.41 369.81,-1589.21"/>
</g>
<!-- n60&#45;&gt;n35 -->
<g id="edge68" class="edge">
<title>n60&#45;&gt;n35</title>
<path fill="none" stroke="black" d="M237.7,-1641.98C283.5,-1639.03 341.32,-1635.32 387.9,-1632.32"/>
<polygon fill="black" stroke="black" points="387.91,-1635.83 397.66,-1631.69 387.46,-1628.84 387.91,-1635.83"/>
</g>
<!-- n61 -->
<g id="node61" class="node">
<title>n61</title>
<path fill="white" stroke="black" d="M225.88,-1580C225.88,-1580 91.38,-1580 91.38,-1580 85.38,-1580 79.38,-1574 79.38,-1568 79.38,-1568 79.38,-1556 79.38,-1556 79.38,-1550 85.38,-1544 91.38,-1544 91.38,-1544 225.88,-1544 225.88,-1544 231.88,-1544 237.88,-1550 237.88,-1556 237.88,-1556 237.88,-1568 237.88,-1568 237.88,-1574 231.88,-1580 225.88,-1580"/>
<text xml:space="preserve" text-anchor="middle" x="158.62" y="-1556.95" font-family="Times New Roman,serif" font-size="14.00">.github/workflows/go.yml</text>
</g>
<!-- n61&#45;&gt;n12 -->
<g id="edge2" class="edge">
<title>n61&#45;&gt;n12</title>
<path fill="none" stroke="black" d="M237.99,-1562.85C263.72,-1559.19 290.5,-1550.53 309.25,-1532 339.63,-1501.98 298.73,-1467.88 329.25,-1438 353.55,-1414.2 391.98,-1408.08 422.64,-1407.56"/>
<polygon fill="black" stroke="black" points="422.43,-1411.06 432.45,-1407.61 422.46,-1404.06 422.43,-1411.06"/>
</g>
<!-- n62 -->
<g id="node62" class="node">
<title>n62</title>
<path fill="white" stroke="black" d="M242.75,-1495C242.75,-1495 74.5,-1495 74.5,-1495 68.5,-1495 62.5,-1489 62.5,-1483 62.5,-1483 62.5,-1471 62.5,-1471 62.5,-1465 68.5,-1459 74.5,-1459 74.5,-1459 242.75,-1459 242.75,-1459 248.75,-1459 254.75,-1465 254.75,-1471 254.75,-1471 254.75,-1483 254.75,-1483 254.75,-1489 248.75,-1495 242.75,-1495"/>
<text xml:space="preserve" text-anchor="middle" x="158.62" y="-1471.95" font-family="Times New Roman,serif" font-size="14.00">.github/workflows/short_go.yml</text>
</g>
<!-- n62&#45;&gt;n3 -->
<g id="edge3" class="edge">
<title>n62&#45;&gt;n3</title>
<path fill="none" stroke="black" d="M255.05,-1489.89C283.99,-1493.8 316.22,-1498.15 346.74,-1502.27"/>
<polygon fill="black" stroke="black" points="346.02,-1505.7 356.4,-1503.57 346.96,-1498.77 346.02,-1505.7"/>
</g>
<!-- n63 -->
<g id="node63" class="node">
<title>n63</title>
<path fill="white" stroke="black" d="M260,-1140C260,-1140 57.25,-1140 57.25,-1140 51.25,-1140 45.25,-1134 45.25,-1128 45.25,-1128 45.25,-1116 45.25,-1116 45.25,-1110 51.25,-1104 57.25,-1104 57.25,-1104 260,-1104 260,-1104 266,-1104 272,-1110 272,-1116 272,-1116 272,-1128 272,-1128 272,-1134 266,-1140 260,-1140"/>
<text xml:space="preserve" text-anchor="middle" x="158.62" y="-1116.95" font-family="Times New Roman,serif" font-size="14.00">.github/workflows/ci_rebuild_bp3.yml</text>
</g>
<!-- n63&#45;&gt;n30 -->
<g id="edge4" class="edge">
<title>n63&#45;&gt;n30</title>
<path fill="none" stroke="black" d="M272.34,-1109.31C308.26,-1105.27 347.49,-1100.86 381.5,-1097.03"/>
<polygon fill="black" stroke="black" points="381.77,-1100.52 391.31,-1095.93 380.99,-1093.57 381.77,-1100.52"/>
</g>
<!-- n64 -->
<g id="node64" class="node">
<title>n64</title>
<path fill="white" stroke="black" d="M241.62,-1410C241.62,-1410 75.62,-1410 75.62,-1410 69.62,-1410 63.62,-1404 63.62,-1398 63.62,-1398 63.62,-1386 63.62,-1386 63.62,-1380 69.62,-1374 75.62,-1374 75.62,-1374 241.62,-1374 241.62,-1374 247.62,-1374 253.62,-1380 253.62,-1386 253.62,-1386 253.62,-1398 253.62,-1398 253.62,-1404 247.62,-1410 241.62,-1410"/>
<text xml:space="preserve" text-anchor="middle" x="158.62" y="-1386.95" font-family="Times New Roman,serif" font-size="14.00">.github/workflows/ci_reuse.yml</text>
</g>
<!-- n64&#45;&gt;n12 -->
<g id="edge6" class="edge">
<title>n64&#45;&gt;n12</title>
<path fill="none" stroke="black" d="M253.78,-1397.75C309.58,-1401.16 377.93,-1405.34 422.79,-1408.08"/>
<polygon fill="black" stroke="black" points="422.53,-1411.57 432.72,-1408.68 422.95,-1404.58 422.53,-1411.57"/>
</g>
<!-- n64&#45;&gt;n15 -->
<g id="edge5" class="edge">
<title>n64&#45;&gt;n15</title>
<path fill="none" stroke="black" d="M222.97,-1410.41C254.73,-1419.32 293.87,-1429.84 329.25,-1438 352.48,-1443.36 378.02,-1448.47 400.93,-1452.78"/>
<polygon fill="black" stroke="black" points="399.99,-1456.16 410.46,-1454.55 401.27,-1449.28 399.99,-1456.16"/>
</g>
<!-- n65 -->
<g id="node65" class="node">
<title>n65</title>
<path fill="white" stroke="black" d="M251.75,-1194C251.75,-1194 65.5,-1194 65.5,-1194 59.5,-1194 53.5,-1188 53.5,-1182 53.5,-1182 53.5,-1170 53.5,-1170 53.5,-1164 59.5,-1158 65.5,-1158 65.5,-1158 251.75,-1158 251.75,-1158 257.75,-1158 263.75,-1164 263.75,-1170 263.75,-1170 263.75,-1182 263.75,-1182 263.75,-1188 257.75,-1194 251.75,-1194"/>
<text xml:space="preserve" text-anchor="middle" x="158.62" y="-1170.95" font-family="Times New Roman,serif" font-size="14.00">.github/workflows/ci_reuse_go.yml</text>
</g>
<!-- n65&#45;&gt;n12 -->
<g id="edge8" class="edge">
<title>n65&#45;&gt;n12</title>
<path fill="none" stroke="black" d="M264.13,-1177.28C281.18,-1182.06 297.18,-1190.07 309.25,-1203 364.49,-1262.15 274.32,-1324.57 329.25,-1384 352.49,-1409.14 391.34,-1415.1 422.44,-1415.22"/>
<polygon fill="black" stroke="black" points="422.49,-1418.72 432.42,-1415.03 422.36,-1411.72 422.49,-1418.72"/>
</g>
<!-- n65&#45;&gt;n15 -->
<g id="edge7" class="edge">
<title>n65&#45;&gt;n15</title>
<path fill="none" stroke="black" d="M264.02,-1176.93C281.18,-1181.72 297.25,-1189.83 309.25,-1203 344.54,-1241.75 294.16,-1399.07 329.25,-1438 347.1,-1457.81 374.63,-1465.79 400.68,-1468.37"/>
<polygon fill="black" stroke="black" points="400.37,-1471.86 410.59,-1469.07 400.87,-1464.88 400.37,-1471.86"/>
</g>
<!-- n65&#45;&gt;n16 -->
<g id="edge11" class="edge">
<title>n65&#45;&gt;n16</title>
<path fill="none" stroke="black" d="M264.07,-1179.32C280.71,-1183.98 296.59,-1191.42 309.25,-1203 334.07,-1225.71 304.55,-1253.17 329.25,-1276 343.14,-1288.84 361.19,-1296.45 379.71,-1300.79"/>
<polygon fill="black" stroke="black" points="378.98,-1304.22 389.47,-1302.75 380.35,-1297.35 378.98,-1304.22"/>
</g>
<!-- n65&#45;&gt;n23 -->
<g id="edge12" class="edge">
<title>n65&#45;&gt;n23</title>
<path fill="none" stroke="black" d="M264.03,-1177.85C280.98,-1182.6 296.98,-1190.45 309.25,-1203 349.2,-1243.85 289.51,-1288.94 329.25,-1330 349.57,-1350.99 380.81,-1358.44 408.76,-1360.34"/>
<polygon fill="black" stroke="black" points="408.43,-1363.83 418.57,-1360.76 408.73,-1356.83 408.43,-1363.83"/>
</g>
<!-- n65&#45;&gt;n31 -->
<g id="edge9" class="edge">
<title>n65&#45;&gt;n31</title>
<path fill="none" stroke="black" d="M264.05,-1182.38C302.91,-1184.75 346.56,-1187.42 383.68,-1189.69"/>
<polygon fill="black" stroke="black" points="383.28,-1193.17 393.47,-1190.29 383.71,-1186.18 383.28,-1193.17"/>
</g>
<!-- n65&#45;&gt;n32 -->
<g id="edge10" class="edge">
<title>n65&#45;&gt;n32</title>
<path fill="none" stroke="black" d="M264.05,-1164.25C298.53,-1160.37 336.78,-1156.06 370.9,-1152.22"/>
<polygon fill="black" stroke="black" points="371.26,-1155.71 380.8,-1151.11 370.47,-1148.75 371.26,-1155.71"/>
</g>
<!-- n66 -->
<g id="node66" class="node">
<title>n66</title>
<path fill="white" stroke="black" d="M263.75,-1302C263.75,-1302 53.5,-1302 53.5,-1302 47.5,-1302 41.5,-1296 41.5,-1290 41.5,-1290 41.5,-1278 41.5,-1278 41.5,-1272 47.5,-1266 53.5,-1266 53.5,-1266 263.75,-1266 263.75,-1266 269.75,-1266 275.75,-1272 275.75,-1278 275.75,-1278 275.75,-1290 275.75,-1290 275.75,-1296 269.75,-1302 263.75,-1302"/>
<text xml:space="preserve" text-anchor="middle" x="158.62" y="-1278.95" font-family="Times New Roman,serif" font-size="14.00">.github/workflows/ci_reuse_go_cas.yml</text>
</g>
<!-- n66&#45;&gt;n12 -->
<g id="edge14" class="edge">
<title>n66&#45;&gt;n12</title>
<path fill="none" stroke="black" d="M276.18,-1291.29C288.34,-1295.89 299.71,-1302.27 309.25,-1311 334.07,-1333.71 304.55,-1361.17 329.25,-1384 354.15,-1407.01 392.36,-1413.21 422.78,-1413.96"/>
<polygon fill="black" stroke="black" points="422.49,-1417.46 432.5,-1414 422.52,-1410.46 422.49,-1417.46"/>
</g>
<!-- n66&#45;&gt;n15 -->
<g id="edge13" class="edge">
<title>n66&#45;&gt;n15</title>
<path fill="none" stroke="black" d="M276.06,-1289.84C288.46,-1294.65 299.93,-1301.47 309.25,-1311 349.2,-1351.85 289.51,-1396.94 329.25,-1438 347.64,-1457 374.99,-1464.91 400.75,-1467.64"/>
<polygon fill="black" stroke="black" points="400.29,-1471.12 410.54,-1468.42 400.84,-1464.14 400.29,-1471.12"/>
</g>
<!-- n66&#45;&gt;n16 -->
<g id="edge15" class="edge">
<title>n66&#45;&gt;n16</title>
<path fill="none" stroke="black" d="M275.87,-1291.1C310.13,-1293.2 347.12,-1295.45 379.55,-1297.44"/>
<polygon fill="black" stroke="black" points="379.12,-1300.92 389.32,-1298.03 379.55,-1293.93 379.12,-1300.92"/>
</g>
<!-- n66&#45;&gt;n23 -->
<g id="edge16" class="edge">
<title>n66&#45;&gt;n23</title>
<path fill="none" stroke="black" d="M276.2,-1298.08C287.67,-1301.51 298.89,-1305.75 309.25,-1311 320.19,-1316.54 318.34,-1324.4 329.25,-1330 353.75,-1342.57 383.35,-1349.33 409.12,-1352.94"/>
<polygon fill="black" stroke="black" points="408.42,-1356.38 418.78,-1354.15 409.3,-1349.43 408.42,-1356.38"/>
</g>
<!-- n67 -->
<g id="node67" class="node">
<title>n67</title>
<path fill="white" stroke="black" d="M281,-1356C281,-1356 36.25,-1356 36.25,-1356 30.25,-1356 24.25,-1350 24.25,-1344 24.25,-1344 24.25,-1332 24.25,-1332 24.25,-1326 30.25,-1320 36.25,-1320 36.25,-1320 281,-1320 281,-1320 287,-1320 293,-1326 293,-1332 293,-1332 293,-1344 293,-1344 293,-1350 287,-1356 281,-1356"/>
<text xml:space="preserve" text-anchor="middle" x="158.62" y="-1332.95" font-family="Times New Roman,serif" font-size="14.00">.github/workflows/ci_reuse_go_norebuild.yml</text>
</g>
<!-- n67&#45;&gt;n12 -->
<g id="edge18" class="edge">
<title>n67&#45;&gt;n12</title>
<path fill="none" stroke="black" d="M289.35,-1356.43C296.21,-1358.93 302.89,-1361.78 309.25,-1365 320.19,-1370.54 318.34,-1378.4 329.25,-1384 358.17,-1398.84 394.2,-1405.57 422.65,-1408.6"/>
<polygon fill="black" stroke="black" points="422.15,-1412.07 432.43,-1409.51 422.8,-1405.1 422.15,-1412.07"/>
</g>
<!-- n67&#45;&gt;n15 -->
<g id="edge17" class="edge">
<title>n67&#45;&gt;n15</title>
<path fill="none" stroke="black" d="M293.35,-1353.4C299.04,-1356.7 304.38,-1360.55 309.25,-1365 334.07,-1387.71 304.55,-1415.17 329.25,-1438 348.35,-1455.65 375.28,-1463.41 400.52,-1466.41"/>
<polygon fill="black" stroke="black" points="400.18,-1469.89 410.46,-1467.33 400.82,-1462.92 400.18,-1469.89"/>
</g>
<!-- n67&#45;&gt;n16 -->
<g id="edge19" class="edge">
<title>n67&#45;&gt;n16</title>
<path fill="none" stroke="black" d="M293.32,-1322.95C322.42,-1319.68 352.56,-1316.29 379.55,-1313.25"/>
<polygon fill="black" stroke="black" points="379.86,-1316.74 389.41,-1312.14 379.08,-1309.78 379.86,-1316.74"/>
</g>
<!-- n67&#45;&gt;n23 -->
<g id="edge20" class="edge">
<title>n67&#45;&gt;n23</title>
<path fill="none" stroke="black" d="M293.32,-1346.17C333.53,-1348.62 375.71,-1351.2 408.85,-1353.23"/>
<polygon fill="black" stroke="black" points="408.47,-1356.71 418.66,-1353.83 408.89,-1349.72 408.47,-1356.71"/>
</g>
<!-- n68 -->
<g id="node68" class="node">
<title>n68</title>
<path fill="white" stroke="black" d="M260.38,-1248C260.38,-1248 56.88,-1248 56.88,-1248 50.88,-1248 44.88,-1242 44.88,-1236 44.88,-1236 44.88,-1224 44.88,-1224 44.88,-1218 50.88,-1212 56.88,-1212 56.88,-1212 260.38,-1212 260.38,-1212 266.38,-1212 272.38,-1218 272.38,-1224 272.38,-1224 272.38,-1236 272.38,-1236 272.38,-1242 266.38,-1248 260.38,-1248"/>
<text xml:space="preserve" text-anchor="middle" x="158.62" y="-1224.95" font-family="Times New Roman,serif" font-size="14.00">.github/workflows/ci_reuse_go_pr.yml</text>
</g>
<!-- n68&#45;&gt;n12 -->
<g id="edge23" class="edge">
<title>n68&#45;&gt;n12</title>
<path fill="none" stroke="black" d="M272.73,-1234.6C286.4,-1239.45 299.1,-1246.62 309.25,-1257 349.2,-1297.85 289.51,-1342.94 329.25,-1384 352.98,-1408.52 391.62,-1414.56 422.51,-1414.86"/>
<polygon fill="black" stroke="black" points="422.46,-1418.36 432.41,-1414.74 422.37,-1411.36 422.46,-1418.36"/>
</g>
<!-- n68&#45;&gt;n14 -->
<g id="edge22" class="edge">
<title>n68&#45;&gt;n14</title>
<path fill="none" stroke="black" d="M272.78,-1236.91C308.67,-1239.11 347.82,-1241.5 381.75,-1243.57"/>
<polygon fill="black" stroke="black" points="381.33,-1247.05 391.53,-1244.17 381.76,-1240.06 381.33,-1247.05"/>
</g>
<!-- n68&#45;&gt;n15 -->
<g id="edge21" class="edge">
<title>n68&#45;&gt;n15</title>
<path fill="none" stroke="black" d="M272.8,-1234.04C286.56,-1238.96 299.25,-1246.29 309.25,-1257 364.49,-1316.15 274.32,-1378.57 329.25,-1438 347.27,-1457.5 374.7,-1465.46 400.61,-1468.11"/>
<polygon fill="black" stroke="black" points="400.24,-1471.59 410.47,-1468.84 400.76,-1464.61 400.24,-1471.59"/>
</g>
<!-- n68&#45;&gt;n16 -->
<g id="edge25" class="edge">
<title>n68&#45;&gt;n16</title>
<path fill="none" stroke="black" d="M272.67,-1243.05C285.37,-1246.65 297.83,-1251.21 309.25,-1257 320.19,-1262.54 318.34,-1270.4 329.25,-1276 344.9,-1284.03 362.63,-1289.69 380.12,-1293.67"/>
<polygon fill="black" stroke="black" points="378.96,-1297 389.47,-1295.63 380.4,-1290.15 378.96,-1297"/>
</g>
<!-- n68&#45;&gt;n23 -->
<g id="edge26" class="edge">
<title>n68&#45;&gt;n23</title>
<path fill="none" stroke="black" d="M272.82,-1236.06C286.23,-1240.74 298.83,-1247.47 309.25,-1257 334.07,-1279.71 304.55,-1307.17 329.25,-1330 350.54,-1349.68 381.57,-1357.06 409.14,-1359.26"/>
<polygon fill="black" stroke="black" points="408.61,-1362.74 418.79,-1359.8 409,-1355.75 408.61,-1362.74"/>
</g>
<!-- n68&#45;&gt;n31 -->
<g id="edge24" class="edge">
<title>n68&#45;&gt;n31</title>
<path fill="none" stroke="black" d="M272.78,-1217.27C309.3,-1213.16 349.18,-1208.67 383.51,-1204.8"/>
<polygon fill="black" stroke="black" points="383.88,-1208.28 393.42,-1203.69 383.1,-1201.33 383.88,-1208.28"/>
</g>
<!-- n69 -->
<g id="node69" class="node">
<title>n69</title>
<path fill="white" stroke="black" d="M225.5,-978C225.5,-978 91.75,-978 91.75,-978 85.75,-978 79.75,-972 79.75,-966 79.75,-966 79.75,-954 79.75,-954 79.75,-948 85.75,-942 91.75,-942 91.75,-942 225.5,-942 225.5,-942 231.5,-942 237.5,-948 237.5,-954 237.5,-954 237.5,-966 237.5,-966 237.5,-972 231.5,-978 225.5,-978"/>
<text xml:space="preserve" text-anchor="middle" x="158.62" y="-954.95" font-family="Times New Roman,serif" font-size="14.00">.github/workflows/cp.yml</text>
</g>
<!-- n69&#45;&gt;n13 -->
<g id="edge27" class="edge">
<title>n69&#45;&gt;n13</title>
<path fill="none" stroke="black" d="M237.78,-947.85C262.33,-943.22 288.44,-935.39 309.25,-921 323.04,-911.46 315.41,-898.48 329.25,-889 343.12,-879.5 359.46,-873.13 376.02,-869.07"/>
<polygon fill="black" stroke="black" points="376.39,-872.57 385.42,-867.03 374.91,-865.72 376.39,-872.57"/>
</g>
<!-- n69&#45;&gt;n13 -->
<g id="edge30" class="edge">
<title>n69&#45;&gt;n13</title>
<path fill="none" stroke="black" d="M237.78,-964.91C262.33,-961.22 288.44,-953.39 309.25,-939 323.04,-929.46 315.41,-916.48 329.25,-907 343.12,-897.5 359.46,-891.13 376.02,-886.74"/>
<polygon fill="black" stroke="black" points="376.53,-890.22 385.43,-884.48 374.89,-883.41 376.53,-890.22"/>
</g>
<!-- n69&#45;&gt;n17 -->
<g id="edge29" class="edge">
<title>n69&#45;&gt;n17</title>
<path fill="none" stroke="black" d="M237.79,-960.65C263.51,-956.97 290.33,-948.35 309.25,-930 337.42,-902.68 300.96,-871.19 329.25,-844 346.75,-827.18 371.32,-819.24 395.07,-815.86"/>
<polygon fill="black" stroke="black" points="395.23,-819.37 404.76,-814.75 394.43,-812.41 395.23,-819.37"/>
</g>
<!-- n69&#45;&gt;n18 -->
<g id="edge28" class="edge">
<title>n69&#45;&gt;n18</title>
<path fill="none" stroke="black" d="M237.93,-961.66C263.97,-958.13 290.96,-949.35 309.25,-930 352.43,-884.33 285.86,-835.47 329.25,-790 351.81,-766.36 388.22,-759.82 418.44,-759.09"/>
<polygon fill="black" stroke="black" points="418.17,-762.59 428.16,-759.07 418.16,-755.59 418.17,-762.59"/>
</g>
<!-- n70 -->
<g id="node70" class="node">
<title>n70</title>
<path fill="white" stroke="black" d="M252.12,-1086C252.12,-1086 65.12,-1086 65.12,-1086 59.12,-1086 53.12,-1080 53.12,-1074 53.12,-1074 53.12,-1062 53.12,-1062 53.12,-1056 59.12,-1050 65.12,-1050 65.12,-1050 252.12,-1050 252.12,-1050 258.12,-1050 264.12,-1056 264.12,-1062 264.12,-1062 264.12,-1074 264.12,-1074 264.12,-1080 258.12,-1086 252.12,-1086"/>
<text xml:space="preserve" text-anchor="middle" x="158.62" y="-1062.95" font-family="Times New Roman,serif" font-size="14.00">.github/workflows/create_issue.yml</text>
</g>
<!-- n70&#45;&gt;n19 -->
<g id="edge31" class="edge">
<title>n70&#45;&gt;n19</title>
<path fill="none" stroke="black" d="M264.48,-1056.2C307.33,-1051.38 355.95,-1045.91 395.2,-1041.49"/>
<polygon fill="black" stroke="black" points="395.49,-1044.98 405.03,-1040.38 394.7,-1038.02 395.49,-1044.98"/>
</g>
<!-- n71 -->
<g id="node71" class="node">
<title>n71</title>
<path fill="white" stroke="black" d="M224.38,-1032C224.38,-1032 92.88,-1032 92.88,-1032 86.88,-1032 80.88,-1026 80.88,-1020 80.88,-1020 80.88,-1008 80.88,-1008 80.88,-1002 86.88,-996 92.88,-996 92.88,-996 224.38,-996 224.38,-996 230.38,-996 236.38,-1002 236.38,-1008 236.38,-1008 236.38,-1020 236.38,-1020 236.38,-1026 230.38,-1032 224.38,-1032"/>
<text xml:space="preserve" text-anchor="middle" x="158.62" y="-1008.95" font-family="Times New Roman,serif" font-size="14.00">.github/workflows/rc.yml</text>
</g>
<!-- n71&#45;&gt;n13 -->
<g id="edge32" class="edge">
<title>n71&#45;&gt;n13</title>
<path fill="none" stroke="black" d="M236.59,-1008.13C262.65,-1004.54 290,-996.45 309.25,-978 338.52,-949.95 300.12,-917.2 329.25,-889 342.04,-876.62 358.65,-869.04 375.97,-864.74"/>
<polygon fill="black" stroke="black" points="376.27,-868.25 385.34,-862.78 374.83,-861.4 376.27,-868.25"/>
</g>
<!-- n71&#45;&gt;n13 -->
<g id="edge35" class="edge">
<title>n71&#45;&gt;n13</title>
<path fill="none" stroke="black" d="M236.59,-1025.03C262.65,-1022.54 290,-1014.45 309.25,-996 338.52,-967.95 300.12,-935.2 329.25,-907 342.04,-894.62 358.65,-887.04 375.97,-882.35"/>
<polygon fill="black" stroke="black" points="376.42,-885.84 385.35,-880.14 374.81,-879.03 376.42,-885.84"/>
</g>
<!-- n71&#45;&gt;n17 -->
<g id="edge34" class="edge">
<title>n71&#45;&gt;n17</title>
<path fill="none" stroke="black" d="M236.66,-1017.52C263.05,-1014.64 290.59,-1006.41 309.25,-987 353.72,-940.73 285.01,-890.49 329.25,-844 346.13,-826.26 370.79,-818.15 394.82,-814.89"/>
<polygon fill="black" stroke="black" points="395.07,-818.38 404.64,-813.84 394.33,-811.42 395.07,-818.38"/>
</g>
<!-- n71&#45;&gt;n28 -->
<g id="edge33" class="edge">
<title>n71&#45;&gt;n28</title>
<path fill="none" stroke="black" d="M236.5,-1005.35C293.45,-998.94 369.5,-990.38 419.24,-984.78"/>
<polygon fill="black" stroke="black" points="419.63,-988.26 429.17,-983.66 418.85,-981.31 419.63,-988.26"/>
</g>
<!-- n72 -->
<g id="node72" class="node">
<title>n72</title>
<path fill="white" stroke="black" d="M235.62,-785C235.62,-785 81.62,-785 81.62,-785 75.62,-785 69.62,-779 69.62,-773 69.62,-773 69.62,-761 69.62,-761 69.62,-755 75.62,-749 81.62,-749 81.62,-749 235.62,-749 235.62,-749 241.62,-749 247.62,-755 247.62,-761 247.62,-761 247.62,-773 247.62,-773 247.62,-779 241.62,-785 235.62,-785"/>
<text xml:space="preserve" text-anchor="middle" x="158.62" y="-761.95" font-family="Times New Roman,serif" font-size="14.00">.github/workflows/cd_go.yml</text>
</g>
<!-- n72&#45;&gt;n20 -->
<g id="edge36" class="edge">
<title>n72&#45;&gt;n20</title>
<path fill="none" stroke="black" d="M248.03,-763.72C271.2,-767.48 293.95,-776.18 309.25,-794 363.7,-857.42 275.13,-1482.3 329.25,-1546 339.7,-1558.3 353.88,-1566.11 369.24,-1570.92"/>
<polygon fill="black" stroke="black" points="368,-1574.21 378.57,-1573.39 369.8,-1567.44 368,-1574.21"/>
</g>
<!-- n73 -->
<g id="node73" class="node">
<title>n73</title>
<path fill="white" stroke="black" d="M239,-839C239,-839 78.25,-839 78.25,-839 72.25,-839 66.25,-833 66.25,-827 66.25,-827 66.25,-815 66.25,-815 66.25,-809 72.25,-803 78.25,-803 78.25,-803 239,-803 239,-803 245,-803 251,-809 251,-815 251,-815 251,-827 251,-827 251,-833 245,-839 239,-839"/>
<text xml:space="preserve" text-anchor="middle" x="158.62" y="-815.95" font-family="Times New Roman,serif" font-size="14.00">.github/workflows/cdd_go.yml</text>
</g>
<!-- n73&#45;&gt;n20 -->
<g id="edge37" class="edge">
<title>n73&#45;&gt;n20</title>
<path fill="none" stroke="black" d="M251.13,-818.28C273.21,-822.3 294.62,-830.99 309.25,-848 359.85,-906.82 278.95,-1486.93 329.25,-1546 339.71,-1558.29 353.9,-1566.1 369.26,-1570.9"/>
<polygon fill="black" stroke="black" points="368.02,-1574.19 378.59,-1573.37 369.82,-1567.43 368.02,-1574.19"/>
</g>
<!-- n74 -->
<g id="node74" class="node">
<title>n74</title>
<path fill="white" stroke="black" d="M224,-407C224,-407 93.25,-407 93.25,-407 87.25,-407 81.25,-401 81.25,-395 81.25,-395 81.25,-383 81.25,-383 81.25,-377 87.25,-371 93.25,-371 93.25,-371 224,-371 224,-371 230,-371 236,-377 236,-383 236,-383 236,-395 236,-395 236,-401 230,-407 224,-407"/>
<text xml:space="preserve" text-anchor="middle" x="158.62" y="-383.95" font-family="Times New Roman,serif" font-size="14.00">.github/workflows/ci.yml</text>
</g>
<!-- n74&#45;&gt;n6 -->
<g id="edge38" class="edge">
<title>n74&#45;&gt;n6</title>
<path fill="none" stroke="black" d="M236.13,-386.01C262.46,-388.94 290.1,-397.07 309.25,-416 342.72,-449.09 295.95,-486.74 329.25,-520 333.78,-524.52 338.82,-528.41 344.22,-531.75"/>
<polygon fill="black" stroke="black" points="342.51,-534.8 352.97,-536.46 345.83,-528.64 342.51,-534.8"/>
</g>
<!-- n75 -->
<g id="node75" class="node">
<title>n75</title>
<path fill="white" stroke="black" d="M261.5,-623C261.5,-623 55.75,-623 55.75,-623 49.75,-623 43.75,-617 43.75,-611 43.75,-611 43.75,-599 43.75,-599 43.75,-593 49.75,-587 55.75,-587 55.75,-587 261.5,-587 261.5,-587 267.5,-587 273.5,-593 273.5,-599 273.5,-599 273.5,-611 273.5,-611 273.5,-617 267.5,-623 261.5,-623"/>
<text xml:space="preserve" text-anchor="middle" x="158.62" y="-599.95" font-family="Times New Roman,serif" font-size="14.00">.github/workflows/close_cprelease.yml</text>
</g>
<!-- n75&#45;&gt;n17 -->
<g id="edge39" class="edge">
<title>n75&#45;&gt;n17</title>
<path fill="none" stroke="black" d="M273.76,-609.59C287.11,-614.48 299.44,-621.66 309.25,-632 357.97,-683.35 280.8,-738.4 329.25,-790 346.08,-807.93 370.87,-816.06 395,-819.28"/>
<polygon fill="black" stroke="black" points="394.57,-822.76 404.88,-820.3 395.29,-815.79 394.57,-822.76"/>
</g>
<!-- n76 -->
<g id="node76" class="node">
<title>n76</title>
<path fill="white" stroke="black" d="M225.5,-677C225.5,-677 91.75,-677 91.75,-677 85.75,-677 79.75,-671 79.75,-665 79.75,-665 79.75,-653 79.75,-653 79.75,-647 85.75,-641 91.75,-641 91.75,-641 225.5,-641 225.5,-641 231.5,-641 237.5,-647 237.5,-653 237.5,-653 237.5,-665 237.5,-665 237.5,-671 231.5,-677 225.5,-677"/>
<text xml:space="preserve" text-anchor="middle" x="158.62" y="-653.95" font-family="Times New Roman,serif" font-size="14.00">.github/workflows/cp.yml</text>
</g>
<!-- n76&#45;&gt;n9 -->
<g id="edge40" class="edge">
<title>n76&#45;&gt;n9</title>
<path fill="none" stroke="black" d="M237.92,-655.12C264.12,-658.03 291.21,-666.37 309.25,-686 341.27,-720.84 297.41,-862.99 329.25,-898 342.74,-912.83 361.65,-921.01 381.26,-925.26"/>
<polygon fill="black" stroke="black" points="380.58,-928.7 391.04,-927.02 381.81,-921.81 380.58,-928.7"/>
</g>
<!-- n77 -->
<g id="node77" class="node">
<title>n77</title>
<path fill="white" stroke="black" d="M253.62,-731C253.62,-731 63.62,-731 63.62,-731 57.62,-731 51.62,-725 51.62,-719 51.62,-719 51.62,-707 51.62,-707 51.62,-701 57.62,-695 63.62,-695 63.62,-695 253.62,-695 253.62,-695 259.62,-695 265.62,-701 265.62,-707 265.62,-707 265.62,-719 265.62,-719 265.62,-725 259.62,-731 253.62,-731"/>
<text xml:space="preserve" text-anchor="middle" x="158.62" y="-707.95" font-family="Times New Roman,serif" font-size="14.00">.github/workflows/nightly_tests.yml</text>
</g>
<!-- n77&#45;&gt;n10 -->
<g id="edge42" class="edge">
<title>n77&#45;&gt;n10</title>
<path fill="none" stroke="black" d="M265.87,-713.63C282.53,-718.53 297.95,-726.74 309.25,-740 346.09,-783.22 292.63,-1718.6 329.25,-1762 336.43,-1770.5 345.38,-1776.87 355.28,-1781.58"/>
<polygon fill="black" stroke="black" points="353.93,-1784.8 364.51,-1785.33 356.57,-1778.32 353.93,-1784.8"/>
</g>
<!-- n77&#45;&gt;n12 -->
<g id="edge41" class="edge">
<title>n77&#45;&gt;n12</title>
<path fill="none" stroke="black" d="M266.12,-713.85C282.65,-718.75 297.96,-726.91 309.25,-740 356,-794.21 282.77,-1329.55 329.25,-1384 351.72,-1410.32 391.25,-1416.07 422.81,-1415.79"/>
<polygon fill="black" stroke="black" points="422.63,-1419.3 432.52,-1415.49 422.41,-1412.3 422.63,-1419.3"/>
</g>
<!-- n78 -->
<g id="node78" class="node">
<title>n78</title>
<path fill="white" stroke="black" d="M224.38,-461C224.38,-461 92.88,-461 92.88,-461 86.88,-461 80.88,-455 80.88,-449 80.88,-449 80.88,-437 80.88,-437 80.88,-431 86.88,-425 92.88,-425 92.88,-425 224.38,-425 224.38,-425 230.38,-425 236.38,-431 236.38,-437 236.38,-437 236.38,-449 236.38,-449 236.38,-455 230.38,-461 224.38,-461"/>
<text xml:space="preserve" text-anchor="middle" x="158.62" y="-437.95" font-family="Times New Roman,serif" font-size="14.00">.github/workflows/rc.yml</text>
</g>
<!-- n78&#45;&gt;n11 -->
<g id="edge43" class="edge">
<title>n78&#45;&gt;n11</title>
<path fill="none" stroke="black" d="M236.52,-440.05C262.73,-443.02 290.2,-451.16 309.25,-470 342.72,-503.09 295.95,-540.74 329.25,-574 343.43,-588.16 362.6,-596.1 382.25,-600.33"/>
<polygon fill="black" stroke="black" points="381.55,-603.76 392.02,-602.09 382.79,-596.87 381.55,-603.76"/>
</g>
<!-- n79 -->
<g id="node79" class="node">
<title>n79</title>
<path fill="white" stroke="black" d="M289.25,-515C289.25,-515 28,-515 28,-515 22,-515 16,-509 16,-503 16,-503 16,-491 16,-491 16,-485 22,-479 28,-479 28,-479 289.25,-479 289.25,-479 295.25,-479 301.25,-485 301.25,-491 301.25,-491 301.25,-503 301.25,-503 301.25,-509 295.25,-515 289.25,-515"/>
<text xml:space="preserve" text-anchor="middle" x="158.62" y="-491.95" font-family="Times New Roman,serif" font-size="14.00">.github/workflows/update_baseline_schemas.yml</text>
</g>
<!-- n79&#45;&gt;n29 -->
<g id="edge44" class="edge">
<title>n79&#45;&gt;n29</title>
<path fill="none" stroke="black" d="M299.01,-515.41C302.63,-517.99 306.06,-520.85 309.25,-524 342.72,-557.09 295.95,-594.74 329.25,-628 339.99,-638.73 353.6,-645.88 368.1,-650.56"/>
<polygon fill="black" stroke="black" points="366.76,-653.82 377.34,-653.14 368.65,-647.08 366.76,-653.82"/>
</g>
<!-- n80 -->
<g id="node80" class="node">
<title>n80</title>
<path fill="white" stroke="black" d="M273.5,-893C273.5,-893 43.75,-893 43.75,-893 37.75,-893 31.75,-887 31.75,-881 31.75,-881 31.75,-869 31.75,-869 31.75,-863 37.75,-857 43.75,-857 43.75,-857 273.5,-857 273.5,-857 279.5,-857 285.5,-863 285.5,-869 285.5,-869 285.5,-881 285.5,-881 285.5,-887 279.5,-893 273.5,-893"/>
<text xml:space="preserve" text-anchor="middle" x="158.62" y="-869.95" font-family="Times New Roman,serif" font-size="14.00">.github/workflows/update_config_sync.yml</text>
</g>
<!-- n80&#45;&gt;n35 -->
<g id="edge45" class="edge">
<title>n80&#45;&gt;n35</title>
<path fill="none" stroke="black" d="M260.05,-893.34C279.25,-901.46 297.12,-913.16 309.25,-930 352.78,-990.43 280.93,-1543.32 329.25,-1600 343.88,-1617.16 365.77,-1625.58 387.97,-1629.28"/>
<polygon fill="black" stroke="black" points="387.35,-1632.73 397.72,-1630.58 388.27,-1625.79 387.35,-1632.73"/>
</g>
<!-- n81 -->
<g id="node81" class="node">
<title>n81</title>
<path fill="white" stroke="black" d="M261.88,-569C261.88,-569 55.38,-569 55.38,-569 49.38,-569 43.38,-563 43.38,-557 43.38,-557 43.38,-545 43.38,-545 43.38,-539 49.38,-533 55.38,-533 55.38,-533 261.88,-533 261.88,-533 267.88,-533 273.88,-539 273.88,-545 273.88,-545 273.88,-557 273.88,-557 273.88,-563 267.88,-569 261.88,-569"/>
<text xml:space="preserve" text-anchor="middle" x="158.62" y="-545.95" font-family="Times New Roman,serif" font-size="14.00">.github/workflows/update_voedger.yml</text>
</g>
<!-- n81&#45;&gt;n12 -->
<g id="edge47" class="edge">
<title>n81&#45;&gt;n12</title>
<path fill="none" stroke="black" d="M274.03,-554.41C287.51,-559.44 299.8,-566.98 309.25,-578 367.54,-646.02 271.3,-1315.68 329.25,-1384 351.64,-1410.39 391.18,-1416.13 422.76,-1415.84"/>
<polygon fill="black" stroke="black" points="422.59,-1419.34 432.48,-1415.53 422.37,-1412.35 422.59,-1419.34"/>
</g>
<!-- n81&#45;&gt;n34 -->
<g id="edge46" class="edge">
<title>n81&#45;&gt;n34</title>
<path fill="none" stroke="black" d="M274.27,-556.59C287.29,-561.38 299.39,-568.26 309.25,-578 342.72,-611.09 295.95,-648.74 329.25,-682 340.74,-693.48 355.51,-700.87 371.16,-705.51"/>
<polygon fill="black" stroke="black" points="370.07,-708.84 380.63,-707.92 371.8,-702.06 370.07,-708.84"/>
</g>
<!-- n82 -->
<g id="node82" class="node">
<title>n82</title>
<path fill="white" stroke="black" d="M225.5,-214C225.5,-214 91.75,-214 91.75,-214 85.75,-214 79.75,-208 79.75,-202 79.75,-202 79.75,-190 79.75,-190 79.75,-184 85.75,-178 91.75,-178 91.75,-178 225.5,-178 225.5,-178 231.5,-178 237.5,-184 237.5,-190 237.5,-190 237.5,-202 237.5,-202 237.5,-208 231.5,-214 225.5,-214"/>
<text xml:space="preserve" text-anchor="middle" x="158.62" y="-190.95" font-family="Times New Roman,serif" font-size="14.00">.github/workflows/cd.yml</text>
</g>
<!-- n82&#45;&gt;n20 -->
<g id="edge48" class="edge">
<title>n82&#45;&gt;n20</title>
<path fill="none" stroke="black" d="M237.62,-191.23C264.27,-193.93 291.74,-202.37 309.25,-223 356.81,-279.05 281.97,-1489.71 329.25,-1546 339.63,-1558.36 353.77,-1566.2 369.12,-1571.02"/>
<polygon fill="black" stroke="black" points="367.88,-1574.31 378.44,-1573.5 369.68,-1567.54 367.88,-1574.31"/>
</g>
<!-- n83 -->
<g id="node83" class="node">
<title>n83</title>
<path fill="white" stroke="black" d="M228.88,-268C228.88,-268 88.38,-268 88.38,-268 82.38,-268 76.38,-262 76.38,-256 76.38,-256 76.38,-244 76.38,-244 76.38,-238 82.38,-232 88.38,-232 88.38,-232 228.88,-232 228.88,-232 234.88,-232 240.88,-238 240.88,-244 240.88,-244 240.88,-256 240.88,-256 240.88,-262 234.88,-268 228.88,-268"/>
<text xml:space="preserve" text-anchor="middle" x="158.62" y="-244.95" font-family="Times New Roman,serif" font-size="14.00">.github/workflows/cdd.yml</text>
</g>
<!-- n83&#45;&gt;n20 -->
<g id="edge50" class="edge">
<title>n83&#45;&gt;n20</title>
<path fill="none" stroke="black" d="M241.12,-245.63C266.65,-248.7 292.51,-257.28 309.25,-277 354.89,-330.75 283.89,-1492.02 329.25,-1546 339.63,-1558.36 353.78,-1566.2 369.13,-1571.01"/>
<polygon fill="black" stroke="black" points="367.88,-1574.3 378.45,-1573.49 369.68,-1567.54 367.88,-1574.3"/>
</g>
<!-- n83&#45;&gt;n35 -->
<g id="edge49" class="edge">
<title>n83&#45;&gt;n35</title>
<path fill="none" stroke="black" d="M241.13,-245.62C266.66,-248.7 292.51,-257.28 309.25,-277 356.81,-333.05 281.97,-1543.71 329.25,-1600 343.75,-1617.27 365.6,-1625.72 387.82,-1629.42"/>
<polygon fill="black" stroke="black" points="387.2,-1632.87 397.57,-1630.71 388.12,-1625.93 387.2,-1632.87"/>
</g>
<!-- n84 -->
<g id="node84" class="node">
<title>n84</title>
<path fill="white" stroke="black" d="M224,-322C224,-322 93.25,-322 93.25,-322 87.25,-322 81.25,-316 81.25,-310 81.25,-310 81.25,-298 81.25,-298 81.25,-292 87.25,-286 93.25,-286 93.25,-286 224,-286 224,-286 230,-286 236,-292 236,-298 236,-298 236,-310 236,-310 236,-316 230,-322 224,-322"/>
<text xml:space="preserve" text-anchor="middle" x="158.62" y="-298.95" font-family="Times New Roman,serif" font-size="14.00">.github/workflows/ci.yml</text>
</g>
<!-- n84&#45;&gt;n4 -->
<g id="edge51" class="edge">
<title>n84&#45;&gt;n4</title>
<path fill="none" stroke="black" d="M236.11,-313.83C263.77,-321.48 292.33,-335.03 309.25,-359 339.51,-401.87 295.59,-2207.74 329.25,-2248 338.77,-2259.38 351.47,-2266.94 365.37,-2271.83"/>
<polygon fill="black" stroke="black" points="364.17,-2275.12 374.76,-2274.63 366.18,-2268.41 364.17,-2275.12"/>
</g>
<!-- n85 -->
<g id="node85" class="node">
<title>n85</title>
<path fill="white" stroke="black" d="M225.5,-160C225.5,-160 91.75,-160 91.75,-160 85.75,-160 79.75,-154 79.75,-148 79.75,-148 79.75,-136 79.75,-136 79.75,-130 85.75,-124 91.75,-124 91.75,-124 225.5,-124 225.5,-124 231.5,-124 237.5,-130 237.5,-136 237.5,-136 237.5,-148 237.5,-148 237.5,-154 231.5,-160 225.5,-160"/>
<text xml:space="preserve" text-anchor="middle" x="158.62" y="-136.95" font-family="Times New Roman,serif" font-size="14.00">.github/workflows/cp.yml</text>
</g>
<!-- n85&#45;&gt;n9 -->
<g id="edge52" class="edge">
<title>n85&#45;&gt;n9</title>
<path fill="none" stroke="black" d="M237.87,-137.39C264.39,-140.14 291.7,-148.58 309.25,-169 362.06,-230.46 276.75,-836.27 329.25,-898 342.43,-913.5 361.53,-921.87 381.45,-926.08"/>
<polygon fill="black" stroke="black" points="380.62,-929.49 391.07,-927.75 381.82,-922.59 380.62,-929.49"/>
</g>
<!-- n86 -->
<g id="node86" class="node">
<title>n86</title>
<path fill="white" stroke="black" d="M259.25,-106C259.25,-106 58,-106 58,-106 52,-106 46,-100 46,-94 46,-94 46,-82 46,-82 46,-76 52,-70 58,-70 58,-70 259.25,-70 259.25,-70 265.25,-70 271.25,-76 271.25,-82 271.25,-82 271.25,-94 271.25,-94 271.25,-100 265.25,-106 259.25,-106"/>
<text xml:space="preserve" text-anchor="middle" x="158.62" y="-82.95" font-family="Times New Roman,serif" font-size="14.00">.github/workflows/cronecprelease.yml</text>
</g>
<!-- n86&#45;&gt;n9 -->
<g id="edge53" class="edge">
<title>n86&#45;&gt;n9</title>
<path fill="none" stroke="black" d="M271.43,-90.49C285.93,-95.5 299.2,-103.28 309.25,-115 365.91,-181.06 272.93,-831.65 329.25,-898 342.42,-913.51 361.51,-921.89 381.43,-926.1"/>
<polygon fill="black" stroke="black" points="380.6,-929.51 391.05,-927.77 381.8,-922.61 380.6,-929.51"/>
</g>
<!-- n87 -->
<g id="node87" class="node">
<title>n87</title>
<path fill="white" stroke="black" d="M224.38,-52C224.38,-52 92.88,-52 92.88,-52 86.88,-52 80.88,-46 80.88,-40 80.88,-40 80.88,-28 80.88,-28 80.88,-22 86.88,-16 92.88,-16 92.88,-16 224.38,-16 224.38,-16 230.38,-16 236.38,-22 236.38,-28 236.38,-28 236.38,-40 236.38,-40 236.38,-46 230.38,-52 224.38,-52"/>
<text xml:space="preserve" text-anchor="middle" x="158.62" y="-28.95" font-family="Times New Roman,serif" font-size="14.00">.github/workflows/rc.yml</text>
</g>
<!-- n87&#45;&gt;n11 -->
<g id="edge54" class="edge">
<title>n87&#45;&gt;n11</title>
<path fill="none" stroke="black" d="M236.57,-29.38C263.44,-32.02 291.33,-40.38 309.25,-61 346.68,-104.05 292.04,-530.76 329.25,-574 342.66,-589.58 362.05,-597.94 382.19,-602.1"/>
<polygon fill="black" stroke="black" points="381.49,-605.53 391.93,-603.75 382.66,-598.63 381.49,-605.53"/>
</g>
</g>
</svg>
